M48
; DRILL file {KiCad 5.1.8-1.fc33} date Wed Jan 13 18:10:46 2021
; FORMAT={-:-/ absolute / inch / decimal}
; #@! TF.CreationDate,2021-01-13T18:10:46+01:00
; #@! TF.GenerationSoftware,Kicad,Pcbnew,5.1.8-1.fc33
; #@! TF.FileFunction,Plated,1,2,PTH
FMAT,2
INCH
T1C0.0197
T2C0.0256
T3C0.0315
T4C0.0394
T5C0.0433
T6C0.0512
%
G90
G05
T1
X8.45Y-2.69
X8.45Y-2.7294
X8.45Y-2.7687
X8.45Y-2.8081
X8.45Y-2.8475
T2
X8.4449Y-3.0512
X8.4449Y-3.1012
X8.4449Y-3.1512
X8.4449Y-3.2012
X8.4449Y-3.2512
T3
X6.752Y-5.0984
X6.9441Y-5.0984
X8.4449Y-4.7244
X8.4449Y-4.8031
X8.4449Y-4.8819
X8.4449Y-4.9606
X8.4449Y-5.0394
T4
X8.4449Y-5.2756
X8.4449Y-5.3756
X8.4449Y-5.4756
X8.4449Y-5.5756
X8.4449Y-5.6756
T5
X7.8937Y-4.7047
X7.8937Y-4.8819
X8.1496Y-4.7047
X8.1496Y-4.8819
T6
X6.7126Y-5.6299
X6.811Y-5.4331
X6.9094Y-5.6299
T0
M30
