G04 #@! TF.GenerationSoftware,KiCad,Pcbnew,5.1.8-1.fc33*
G04 #@! TF.CreationDate,2021-01-13T18:10:52+01:00*
G04 #@! TF.ProjectId,holder,686f6c64-6572-42e6-9b69-6361645f7063,rev?*
G04 #@! TF.SameCoordinates,Original*
G04 #@! TF.FileFunction,Soldermask,Bot*
G04 #@! TF.FilePolarity,Negative*
%FSLAX46Y46*%
G04 Gerber Fmt 4.6, Leading zero omitted, Abs format (unit mm)*
G04 Created by KiCad (PCBNEW 5.1.8-1.fc33) date 2021-01-13 18:10:52*
%MOMM*%
%LPD*%
G01*
G04 APERTURE LIST*
%ADD10C,2.102000*%
%ADD11C,2.442000*%
%ADD12O,1.802000X1.802000*%
%ADD13O,1.452000X1.452000*%
%ADD14O,1.102000X1.102000*%
%ADD15O,0.952000X0.952000*%
%ADD16C,1.602000*%
%ADD17C,0.100000*%
G04 APERTURE END LIST*
D10*
X207000000Y-119500000D03*
X207000000Y-124000000D03*
X200500000Y-119500000D03*
X200500000Y-124000000D03*
D11*
X170500000Y-143000000D03*
X173000000Y-138000000D03*
X175500000Y-143000000D03*
D12*
X214500000Y-144160000D03*
X214500000Y-141620000D03*
X214500000Y-139080000D03*
X214500000Y-136540000D03*
G36*
G01*
X213599000Y-134850000D02*
X213599000Y-133150000D01*
G75*
G02*
X213650000Y-133099000I51000J0D01*
G01*
X215350000Y-133099000D01*
G75*
G02*
X215401000Y-133150000I0J-51000D01*
G01*
X215401000Y-134850000D01*
G75*
G02*
X215350000Y-134901000I-51000J0D01*
G01*
X213650000Y-134901000D01*
G75*
G02*
X213599000Y-134850000I0J51000D01*
G01*
G37*
D13*
X214500000Y-128000000D03*
X214500000Y-126000000D03*
X214500000Y-124000000D03*
X214500000Y-122000000D03*
G36*
G01*
X213774000Y-120675000D02*
X213774000Y-119325000D01*
G75*
G02*
X213825000Y-119274000I51000J0D01*
G01*
X215175000Y-119274000D01*
G75*
G02*
X215226000Y-119325000I0J-51000D01*
G01*
X215226000Y-120675000D01*
G75*
G02*
X215175000Y-120726000I-51000J0D01*
G01*
X213825000Y-120726000D01*
G75*
G02*
X213774000Y-120675000I0J51000D01*
G01*
G37*
D14*
X214500000Y-82580000D03*
X214500000Y-81310000D03*
X214500000Y-80040000D03*
X214500000Y-78770000D03*
G36*
G01*
X213949000Y-78000000D02*
X213949000Y-77000000D01*
G75*
G02*
X214000000Y-76949000I51000J0D01*
G01*
X215000000Y-76949000D01*
G75*
G02*
X215051000Y-77000000I0J-51000D01*
G01*
X215051000Y-78000000D01*
G75*
G02*
X215000000Y-78051000I-51000J0D01*
G01*
X214000000Y-78051000D01*
G75*
G02*
X213949000Y-78000000I0J51000D01*
G01*
G37*
D15*
X214630000Y-72326000D03*
X214630000Y-71326000D03*
X214630000Y-70326000D03*
X214630000Y-69326000D03*
G36*
G01*
X214154000Y-68751000D02*
X214154000Y-67901000D01*
G75*
G02*
X214205000Y-67850000I51000J0D01*
G01*
X215055000Y-67850000D01*
G75*
G02*
X215106000Y-67901000I0J-51000D01*
G01*
X215106000Y-68751000D01*
G75*
G02*
X215055000Y-68802000I-51000J0D01*
G01*
X214205000Y-68802000D01*
G75*
G02*
X214154000Y-68751000I0J51000D01*
G01*
G37*
D16*
X176380000Y-129500000D03*
X171500000Y-129500000D03*
D17*
G36*
X214672906Y-81830824D02*
G01*
X214673671Y-81832672D01*
X214672631Y-81834175D01*
X214656609Y-81842738D01*
X214637972Y-81858033D01*
X214622677Y-81876670D01*
X214611312Y-81897934D01*
X214604312Y-81921009D01*
X214601949Y-81945000D01*
X214604312Y-81968991D01*
X214611312Y-81992066D01*
X214622677Y-82013330D01*
X214637972Y-82031967D01*
X214656609Y-82047262D01*
X214672631Y-82055825D01*
X214673687Y-82057524D01*
X214672744Y-82059287D01*
X214670923Y-82059437D01*
X214659365Y-82054650D01*
X214553808Y-82033653D01*
X214446192Y-82033653D01*
X214340635Y-82054650D01*
X214329077Y-82059437D01*
X214327094Y-82059176D01*
X214326329Y-82057328D01*
X214327369Y-82055825D01*
X214343391Y-82047262D01*
X214362028Y-82031967D01*
X214377323Y-82013330D01*
X214388688Y-81992066D01*
X214395688Y-81968991D01*
X214398051Y-81945000D01*
X214395688Y-81921009D01*
X214388688Y-81897934D01*
X214377323Y-81876670D01*
X214362028Y-81858033D01*
X214343391Y-81842738D01*
X214327369Y-81834175D01*
X214326313Y-81832476D01*
X214327256Y-81830713D01*
X214329077Y-81830563D01*
X214340635Y-81835350D01*
X214446192Y-81856347D01*
X214553808Y-81856347D01*
X214659365Y-81835350D01*
X214670923Y-81830563D01*
X214672906Y-81830824D01*
G37*
G36*
X214672906Y-80560824D02*
G01*
X214673671Y-80562672D01*
X214672631Y-80564175D01*
X214656609Y-80572738D01*
X214637972Y-80588033D01*
X214622677Y-80606670D01*
X214611312Y-80627934D01*
X214604312Y-80651009D01*
X214601949Y-80675000D01*
X214604312Y-80698991D01*
X214611312Y-80722066D01*
X214622677Y-80743330D01*
X214637972Y-80761967D01*
X214656609Y-80777262D01*
X214672631Y-80785825D01*
X214673687Y-80787524D01*
X214672744Y-80789287D01*
X214670923Y-80789437D01*
X214659365Y-80784650D01*
X214553808Y-80763653D01*
X214446192Y-80763653D01*
X214340635Y-80784650D01*
X214329077Y-80789437D01*
X214327094Y-80789176D01*
X214326329Y-80787328D01*
X214327369Y-80785825D01*
X214343391Y-80777262D01*
X214362028Y-80761967D01*
X214377323Y-80743330D01*
X214388688Y-80722066D01*
X214395688Y-80698991D01*
X214398051Y-80675000D01*
X214395688Y-80651009D01*
X214388688Y-80627934D01*
X214377323Y-80606670D01*
X214362028Y-80588033D01*
X214343391Y-80572738D01*
X214327369Y-80564175D01*
X214326313Y-80562476D01*
X214327256Y-80560713D01*
X214329077Y-80560563D01*
X214340635Y-80565350D01*
X214446192Y-80586347D01*
X214553808Y-80586347D01*
X214659365Y-80565350D01*
X214670923Y-80560563D01*
X214672906Y-80560824D01*
G37*
G36*
X214672906Y-79290824D02*
G01*
X214673671Y-79292672D01*
X214672631Y-79294175D01*
X214656609Y-79302738D01*
X214637972Y-79318033D01*
X214622677Y-79336670D01*
X214611312Y-79357934D01*
X214604312Y-79381009D01*
X214601949Y-79405000D01*
X214604312Y-79428991D01*
X214611312Y-79452066D01*
X214622677Y-79473330D01*
X214637972Y-79491967D01*
X214656609Y-79507262D01*
X214672631Y-79515825D01*
X214673687Y-79517524D01*
X214672744Y-79519287D01*
X214670923Y-79519437D01*
X214659365Y-79514650D01*
X214553808Y-79493653D01*
X214446192Y-79493653D01*
X214340635Y-79514650D01*
X214329077Y-79519437D01*
X214327094Y-79519176D01*
X214326329Y-79517328D01*
X214327369Y-79515825D01*
X214343391Y-79507262D01*
X214362028Y-79491967D01*
X214377323Y-79473330D01*
X214388688Y-79452066D01*
X214395688Y-79428991D01*
X214398051Y-79405000D01*
X214395688Y-79381009D01*
X214388688Y-79357934D01*
X214377323Y-79336670D01*
X214362028Y-79318033D01*
X214343391Y-79302738D01*
X214327369Y-79294175D01*
X214326313Y-79292476D01*
X214327256Y-79290713D01*
X214329077Y-79290563D01*
X214340635Y-79295350D01*
X214446192Y-79316347D01*
X214553808Y-79316347D01*
X214659365Y-79295350D01*
X214670923Y-79290563D01*
X214672906Y-79290824D01*
G37*
G36*
X214823654Y-78050000D02*
G01*
X214823654Y-78052000D01*
X214822118Y-78052990D01*
X214797931Y-78055372D01*
X214774856Y-78062372D01*
X214753592Y-78073737D01*
X214734955Y-78089032D01*
X214719660Y-78107669D01*
X214708295Y-78128933D01*
X214701295Y-78152008D01*
X214698932Y-78175998D01*
X214701295Y-78199990D01*
X214708295Y-78223065D01*
X214719660Y-78244329D01*
X214734955Y-78262966D01*
X214753670Y-78278324D01*
X214757998Y-78281216D01*
X214758883Y-78283010D01*
X214757772Y-78284673D01*
X214756122Y-78284727D01*
X214659365Y-78244650D01*
X214553808Y-78223653D01*
X214446192Y-78223653D01*
X214340635Y-78244650D01*
X214243878Y-78284727D01*
X214241895Y-78284466D01*
X214241130Y-78282618D01*
X214242002Y-78281216D01*
X214246330Y-78278324D01*
X214265045Y-78262965D01*
X214280340Y-78244328D01*
X214291705Y-78223065D01*
X214298705Y-78199990D01*
X214301068Y-78175998D01*
X214298705Y-78152007D01*
X214291705Y-78128932D01*
X214280340Y-78107669D01*
X214265044Y-78089032D01*
X214246407Y-78073737D01*
X214225144Y-78062372D01*
X214202069Y-78055372D01*
X214177882Y-78052990D01*
X214176256Y-78051825D01*
X214176452Y-78049835D01*
X214178078Y-78049000D01*
X214821922Y-78049000D01*
X214823654Y-78050000D01*
G37*
G36*
X214377044Y-71724299D02*
G01*
X214406562Y-71744022D01*
X214492406Y-71779580D01*
X214583543Y-71797708D01*
X214676457Y-71797708D01*
X214767594Y-71779580D01*
X214853438Y-71744022D01*
X214882956Y-71724299D01*
X214884952Y-71724168D01*
X214886063Y-71725831D01*
X214885336Y-71727508D01*
X214871292Y-71739033D01*
X214855997Y-71757670D01*
X214844631Y-71778933D01*
X214837631Y-71802008D01*
X214835268Y-71825999D01*
X214837631Y-71849990D01*
X214844631Y-71873065D01*
X214855996Y-71894329D01*
X214871291Y-71912966D01*
X214885336Y-71924492D01*
X214886040Y-71926364D01*
X214884772Y-71927910D01*
X214882956Y-71927701D01*
X214853438Y-71907978D01*
X214767594Y-71872420D01*
X214676457Y-71854292D01*
X214583543Y-71854292D01*
X214492406Y-71872420D01*
X214406562Y-71907978D01*
X214377044Y-71927701D01*
X214375048Y-71927832D01*
X214373937Y-71926169D01*
X214374664Y-71924492D01*
X214388708Y-71912967D01*
X214404003Y-71894330D01*
X214415369Y-71873067D01*
X214422369Y-71849992D01*
X214424732Y-71826001D01*
X214422369Y-71802010D01*
X214415369Y-71778935D01*
X214404004Y-71757671D01*
X214388709Y-71739034D01*
X214374664Y-71727508D01*
X214373960Y-71725636D01*
X214375228Y-71724090D01*
X214377044Y-71724299D01*
G37*
G36*
X214377044Y-70724299D02*
G01*
X214406562Y-70744022D01*
X214492406Y-70779580D01*
X214583543Y-70797708D01*
X214676457Y-70797708D01*
X214767594Y-70779580D01*
X214853438Y-70744022D01*
X214882956Y-70724299D01*
X214884952Y-70724168D01*
X214886063Y-70725831D01*
X214885336Y-70727508D01*
X214871292Y-70739033D01*
X214855997Y-70757670D01*
X214844631Y-70778933D01*
X214837631Y-70802008D01*
X214835268Y-70825999D01*
X214837631Y-70849990D01*
X214844631Y-70873065D01*
X214855996Y-70894329D01*
X214871291Y-70912966D01*
X214885336Y-70924492D01*
X214886040Y-70926364D01*
X214884772Y-70927910D01*
X214882956Y-70927701D01*
X214853438Y-70907978D01*
X214767594Y-70872420D01*
X214676457Y-70854292D01*
X214583543Y-70854292D01*
X214492406Y-70872420D01*
X214406562Y-70907978D01*
X214377044Y-70927701D01*
X214375048Y-70927832D01*
X214373937Y-70926169D01*
X214374664Y-70924492D01*
X214388708Y-70912967D01*
X214404003Y-70894330D01*
X214415369Y-70873067D01*
X214422369Y-70849992D01*
X214424732Y-70826001D01*
X214422369Y-70802010D01*
X214415369Y-70778935D01*
X214404004Y-70757671D01*
X214388709Y-70739034D01*
X214374664Y-70727508D01*
X214373960Y-70725636D01*
X214375228Y-70724090D01*
X214377044Y-70724299D01*
G37*
G36*
X214377044Y-69724299D02*
G01*
X214406562Y-69744022D01*
X214492406Y-69779580D01*
X214583543Y-69797708D01*
X214676457Y-69797708D01*
X214767594Y-69779580D01*
X214853438Y-69744022D01*
X214882956Y-69724299D01*
X214884952Y-69724168D01*
X214886063Y-69725831D01*
X214885336Y-69727508D01*
X214871292Y-69739033D01*
X214855997Y-69757670D01*
X214844631Y-69778933D01*
X214837631Y-69802008D01*
X214835268Y-69825999D01*
X214837631Y-69849990D01*
X214844631Y-69873065D01*
X214855996Y-69894329D01*
X214871291Y-69912966D01*
X214885336Y-69924492D01*
X214886040Y-69926364D01*
X214884772Y-69927910D01*
X214882956Y-69927701D01*
X214853438Y-69907978D01*
X214767594Y-69872420D01*
X214676457Y-69854292D01*
X214583543Y-69854292D01*
X214492406Y-69872420D01*
X214406562Y-69907978D01*
X214377044Y-69927701D01*
X214375048Y-69927832D01*
X214373937Y-69926169D01*
X214374664Y-69924492D01*
X214388708Y-69912967D01*
X214404003Y-69894330D01*
X214415369Y-69873067D01*
X214422369Y-69849992D01*
X214424732Y-69826001D01*
X214422369Y-69802010D01*
X214415369Y-69778935D01*
X214404004Y-69757671D01*
X214388709Y-69739034D01*
X214374664Y-69727508D01*
X214373960Y-69725636D01*
X214375228Y-69724090D01*
X214377044Y-69724299D01*
G37*
G36*
X215078580Y-68801000D02*
G01*
X215078580Y-68803000D01*
X215077044Y-68803990D01*
X215052857Y-68806372D01*
X215029782Y-68813372D01*
X215008518Y-68824737D01*
X214989881Y-68840032D01*
X214974586Y-68858669D01*
X214963221Y-68879933D01*
X214956221Y-68903008D01*
X214953858Y-68926999D01*
X214956221Y-68950990D01*
X214963221Y-68974065D01*
X214974586Y-68995329D01*
X214986112Y-69009373D01*
X214986438Y-69011347D01*
X214984892Y-69012615D01*
X214983152Y-69012056D01*
X214930697Y-68959601D01*
X214853438Y-68907978D01*
X214767594Y-68872420D01*
X214676457Y-68854292D01*
X214583543Y-68854292D01*
X214492406Y-68872420D01*
X214406562Y-68907978D01*
X214329303Y-68959601D01*
X214276848Y-69012056D01*
X214274916Y-69012574D01*
X214273502Y-69011160D01*
X214273888Y-69009373D01*
X214285414Y-68995329D01*
X214296779Y-68974065D01*
X214303779Y-68950990D01*
X214306142Y-68926999D01*
X214303779Y-68903008D01*
X214296779Y-68879933D01*
X214285414Y-68858669D01*
X214270119Y-68840032D01*
X214251482Y-68824737D01*
X214230218Y-68813372D01*
X214207143Y-68806372D01*
X214182956Y-68803990D01*
X214181330Y-68802825D01*
X214181526Y-68800835D01*
X214183152Y-68800000D01*
X215076848Y-68800000D01*
X215078580Y-68801000D01*
G37*
M02*
