G04 #@! TF.GenerationSoftware,KiCad,Pcbnew,5.1.8-1.fc33*
G04 #@! TF.CreationDate,2021-01-13T18:10:52+01:00*
G04 #@! TF.ProjectId,holder,686f6c64-6572-42e6-9b69-6361645f7063,rev?*
G04 #@! TF.SameCoordinates,Original*
G04 #@! TF.FileFunction,Legend,Top*
G04 #@! TF.FilePolarity,Positive*
%FSLAX46Y46*%
G04 Gerber Fmt 4.6, Leading zero omitted, Abs format (unit mm)*
G04 Created by KiCad (PCBNEW 5.1.8-1.fc33) date 2021-01-13 18:10:52*
%MOMM*%
%LPD*%
G01*
G04 APERTURE LIST*
%ADD10C,0.060000*%
%ADD11C,0.150000*%
%ADD12C,0.120000*%
%ADD13C,0.100000*%
G04 APERTURE END LIST*
D10*
X160000000Y-60500000D02*
X160500000Y-60500000D01*
D11*
X203692738Y-75352380D02*
X204264166Y-75352380D01*
X203978452Y-76352380D02*
X203978452Y-75352380D01*
X204597500Y-76352380D02*
X204597500Y-75685714D01*
X204597500Y-75876190D02*
X204645119Y-75780952D01*
X204692738Y-75733333D01*
X204787976Y-75685714D01*
X204883214Y-75685714D01*
X205645119Y-76352380D02*
X205645119Y-75828571D01*
X205597500Y-75733333D01*
X205502261Y-75685714D01*
X205311785Y-75685714D01*
X205216547Y-75733333D01*
X205645119Y-76304761D02*
X205549880Y-76352380D01*
X205311785Y-76352380D01*
X205216547Y-76304761D01*
X205168928Y-76209523D01*
X205168928Y-76114285D01*
X205216547Y-76019047D01*
X205311785Y-75971428D01*
X205549880Y-75971428D01*
X205645119Y-75923809D01*
X206549880Y-76304761D02*
X206454642Y-76352380D01*
X206264166Y-76352380D01*
X206168928Y-76304761D01*
X206121309Y-76257142D01*
X206073690Y-76161904D01*
X206073690Y-75876190D01*
X206121309Y-75780952D01*
X206168928Y-75733333D01*
X206264166Y-75685714D01*
X206454642Y-75685714D01*
X206549880Y-75733333D01*
X206978452Y-76352380D02*
X206978452Y-75352380D01*
X207073690Y-75971428D02*
X207359404Y-76352380D01*
X207359404Y-75685714D02*
X206978452Y-76066666D01*
X207740357Y-76304761D02*
X207835595Y-76352380D01*
X208026071Y-76352380D01*
X208121309Y-76304761D01*
X208168928Y-76209523D01*
X208168928Y-76161904D01*
X208121309Y-76066666D01*
X208026071Y-76019047D01*
X207883214Y-76019047D01*
X207787976Y-75971428D01*
X207740357Y-75876190D01*
X207740357Y-75828571D01*
X207787976Y-75733333D01*
X207883214Y-75685714D01*
X208026071Y-75685714D01*
X208121309Y-75733333D01*
X204026071Y-77002380D02*
X204121309Y-77002380D01*
X204216547Y-77050000D01*
X204264166Y-77097619D01*
X204311785Y-77192857D01*
X204359404Y-77383333D01*
X204359404Y-77621428D01*
X204311785Y-77811904D01*
X204264166Y-77907142D01*
X204216547Y-77954761D01*
X204121309Y-78002380D01*
X204026071Y-78002380D01*
X203930833Y-77954761D01*
X203883214Y-77907142D01*
X203835595Y-77811904D01*
X203787976Y-77621428D01*
X203787976Y-77383333D01*
X203835595Y-77192857D01*
X203883214Y-77097619D01*
X203930833Y-77050000D01*
X204026071Y-77002380D01*
X204835595Y-77954761D02*
X204835595Y-78002380D01*
X204787976Y-78097619D01*
X204740357Y-78145238D01*
X205216547Y-77097619D02*
X205264166Y-77050000D01*
X205359404Y-77002380D01*
X205597500Y-77002380D01*
X205692738Y-77050000D01*
X205740357Y-77097619D01*
X205787976Y-77192857D01*
X205787976Y-77288095D01*
X205740357Y-77430952D01*
X205168928Y-78002380D01*
X205787976Y-78002380D01*
X206692738Y-77002380D02*
X206216547Y-77002380D01*
X206168928Y-77478571D01*
X206216547Y-77430952D01*
X206311785Y-77383333D01*
X206549880Y-77383333D01*
X206645119Y-77430952D01*
X206692738Y-77478571D01*
X206740357Y-77573809D01*
X206740357Y-77811904D01*
X206692738Y-77907142D01*
X206645119Y-77954761D01*
X206549880Y-78002380D01*
X206311785Y-78002380D01*
X206216547Y-77954761D01*
X206168928Y-77907142D01*
X207168928Y-78002380D02*
X207168928Y-77335714D01*
X207168928Y-77430952D02*
X207216547Y-77383333D01*
X207311785Y-77335714D01*
X207454642Y-77335714D01*
X207549880Y-77383333D01*
X207597500Y-77478571D01*
X207597500Y-78002380D01*
X207597500Y-77478571D02*
X207645119Y-77383333D01*
X207740357Y-77335714D01*
X207883214Y-77335714D01*
X207978452Y-77383333D01*
X208026071Y-77478571D01*
X208026071Y-78002380D01*
X208502261Y-78002380D02*
X208502261Y-77335714D01*
X208502261Y-77430952D02*
X208549880Y-77383333D01*
X208645119Y-77335714D01*
X208787976Y-77335714D01*
X208883214Y-77383333D01*
X208930833Y-77478571D01*
X208930833Y-78002380D01*
X208930833Y-77478571D02*
X208978452Y-77383333D01*
X209073690Y-77335714D01*
X209216547Y-77335714D01*
X209311785Y-77383333D01*
X209359404Y-77478571D01*
X209359404Y-78002380D01*
X204026071Y-78652380D02*
X204121309Y-78652380D01*
X204216547Y-78700000D01*
X204264166Y-78747619D01*
X204311785Y-78842857D01*
X204359404Y-79033333D01*
X204359404Y-79271428D01*
X204311785Y-79461904D01*
X204264166Y-79557142D01*
X204216547Y-79604761D01*
X204121309Y-79652380D01*
X204026071Y-79652380D01*
X203930833Y-79604761D01*
X203883214Y-79557142D01*
X203835595Y-79461904D01*
X203787976Y-79271428D01*
X203787976Y-79033333D01*
X203835595Y-78842857D01*
X203883214Y-78747619D01*
X203930833Y-78700000D01*
X204026071Y-78652380D01*
X204835595Y-79604761D02*
X204835595Y-79652380D01*
X204787976Y-79747619D01*
X204740357Y-79795238D01*
X205168928Y-78652380D02*
X205787976Y-78652380D01*
X205454642Y-79033333D01*
X205597500Y-79033333D01*
X205692738Y-79080952D01*
X205740357Y-79128571D01*
X205787976Y-79223809D01*
X205787976Y-79461904D01*
X205740357Y-79557142D01*
X205692738Y-79604761D01*
X205597500Y-79652380D01*
X205311785Y-79652380D01*
X205216547Y-79604761D01*
X205168928Y-79557142D01*
X206216547Y-79652380D02*
X206216547Y-78985714D01*
X206216547Y-79080952D02*
X206264166Y-79033333D01*
X206359404Y-78985714D01*
X206502261Y-78985714D01*
X206597500Y-79033333D01*
X206645119Y-79128571D01*
X206645119Y-79652380D01*
X206645119Y-79128571D02*
X206692738Y-79033333D01*
X206787976Y-78985714D01*
X206930833Y-78985714D01*
X207026071Y-79033333D01*
X207073690Y-79128571D01*
X207073690Y-79652380D01*
X207549880Y-79652380D02*
X207549880Y-78985714D01*
X207549880Y-79080952D02*
X207597500Y-79033333D01*
X207692738Y-78985714D01*
X207835595Y-78985714D01*
X207930833Y-79033333D01*
X207978452Y-79128571D01*
X207978452Y-79652380D01*
X207978452Y-79128571D02*
X208026071Y-79033333D01*
X208121309Y-78985714D01*
X208264166Y-78985714D01*
X208359404Y-79033333D01*
X208407023Y-79128571D01*
X208407023Y-79652380D01*
X204026071Y-80302380D02*
X204121309Y-80302380D01*
X204216547Y-80350000D01*
X204264166Y-80397619D01*
X204311785Y-80492857D01*
X204359404Y-80683333D01*
X204359404Y-80921428D01*
X204311785Y-81111904D01*
X204264166Y-81207142D01*
X204216547Y-81254761D01*
X204121309Y-81302380D01*
X204026071Y-81302380D01*
X203930833Y-81254761D01*
X203883214Y-81207142D01*
X203835595Y-81111904D01*
X203787976Y-80921428D01*
X203787976Y-80683333D01*
X203835595Y-80492857D01*
X203883214Y-80397619D01*
X203930833Y-80350000D01*
X204026071Y-80302380D01*
X204835595Y-81254761D02*
X204835595Y-81302380D01*
X204787976Y-81397619D01*
X204740357Y-81445238D01*
X205740357Y-80302380D02*
X205264166Y-80302380D01*
X205216547Y-80778571D01*
X205264166Y-80730952D01*
X205359404Y-80683333D01*
X205597500Y-80683333D01*
X205692738Y-80730952D01*
X205740357Y-80778571D01*
X205787976Y-80873809D01*
X205787976Y-81111904D01*
X205740357Y-81207142D01*
X205692738Y-81254761D01*
X205597500Y-81302380D01*
X205359404Y-81302380D01*
X205264166Y-81254761D01*
X205216547Y-81207142D01*
X206216547Y-81302380D02*
X206216547Y-80635714D01*
X206216547Y-80730952D02*
X206264166Y-80683333D01*
X206359404Y-80635714D01*
X206502261Y-80635714D01*
X206597500Y-80683333D01*
X206645119Y-80778571D01*
X206645119Y-81302380D01*
X206645119Y-80778571D02*
X206692738Y-80683333D01*
X206787976Y-80635714D01*
X206930833Y-80635714D01*
X207026071Y-80683333D01*
X207073690Y-80778571D01*
X207073690Y-81302380D01*
X207549880Y-81302380D02*
X207549880Y-80635714D01*
X207549880Y-80730952D02*
X207597500Y-80683333D01*
X207692738Y-80635714D01*
X207835595Y-80635714D01*
X207930833Y-80683333D01*
X207978452Y-80778571D01*
X207978452Y-81302380D01*
X207978452Y-80778571D02*
X208026071Y-80683333D01*
X208121309Y-80635714D01*
X208264166Y-80635714D01*
X208359404Y-80683333D01*
X208407023Y-80778571D01*
X208407023Y-81302380D01*
X204026071Y-81952380D02*
X204121309Y-81952380D01*
X204216547Y-82000000D01*
X204264166Y-82047619D01*
X204311785Y-82142857D01*
X204359404Y-82333333D01*
X204359404Y-82571428D01*
X204311785Y-82761904D01*
X204264166Y-82857142D01*
X204216547Y-82904761D01*
X204121309Y-82952380D01*
X204026071Y-82952380D01*
X203930833Y-82904761D01*
X203883214Y-82857142D01*
X203835595Y-82761904D01*
X203787976Y-82571428D01*
X203787976Y-82333333D01*
X203835595Y-82142857D01*
X203883214Y-82047619D01*
X203930833Y-82000000D01*
X204026071Y-81952380D01*
X204835595Y-82904761D02*
X204835595Y-82952380D01*
X204787976Y-83047619D01*
X204740357Y-83095238D01*
X205407023Y-82380952D02*
X205311785Y-82333333D01*
X205264166Y-82285714D01*
X205216547Y-82190476D01*
X205216547Y-82142857D01*
X205264166Y-82047619D01*
X205311785Y-82000000D01*
X205407023Y-81952380D01*
X205597500Y-81952380D01*
X205692738Y-82000000D01*
X205740357Y-82047619D01*
X205787976Y-82142857D01*
X205787976Y-82190476D01*
X205740357Y-82285714D01*
X205692738Y-82333333D01*
X205597500Y-82380952D01*
X205407023Y-82380952D01*
X205311785Y-82428571D01*
X205264166Y-82476190D01*
X205216547Y-82571428D01*
X205216547Y-82761904D01*
X205264166Y-82857142D01*
X205311785Y-82904761D01*
X205407023Y-82952380D01*
X205597500Y-82952380D01*
X205692738Y-82904761D01*
X205740357Y-82857142D01*
X205787976Y-82761904D01*
X205787976Y-82571428D01*
X205740357Y-82476190D01*
X205692738Y-82428571D01*
X205597500Y-82380952D01*
X206216547Y-82952380D02*
X206216547Y-82285714D01*
X206216547Y-82380952D02*
X206264166Y-82333333D01*
X206359404Y-82285714D01*
X206502261Y-82285714D01*
X206597500Y-82333333D01*
X206645119Y-82428571D01*
X206645119Y-82952380D01*
X206645119Y-82428571D02*
X206692738Y-82333333D01*
X206787976Y-82285714D01*
X206930833Y-82285714D01*
X207026071Y-82333333D01*
X207073690Y-82428571D01*
X207073690Y-82952380D01*
X207549880Y-82952380D02*
X207549880Y-82285714D01*
X207549880Y-82380952D02*
X207597500Y-82333333D01*
X207692738Y-82285714D01*
X207835595Y-82285714D01*
X207930833Y-82333333D01*
X207978452Y-82428571D01*
X207978452Y-82952380D01*
X207978452Y-82428571D02*
X208026071Y-82333333D01*
X208121309Y-82285714D01*
X208264166Y-82285714D01*
X208359404Y-82333333D01*
X208407023Y-82428571D01*
X208407023Y-82952380D01*
X204359404Y-84602380D02*
X203787976Y-84602380D01*
X204073690Y-84602380D02*
X204073690Y-83602380D01*
X203978452Y-83745238D01*
X203883214Y-83840476D01*
X203787976Y-83888095D01*
X204787976Y-84602380D02*
X204787976Y-83935714D01*
X204787976Y-84030952D02*
X204835595Y-83983333D01*
X204930833Y-83935714D01*
X205073690Y-83935714D01*
X205168928Y-83983333D01*
X205216547Y-84078571D01*
X205216547Y-84602380D01*
X205216547Y-84078571D02*
X205264166Y-83983333D01*
X205359404Y-83935714D01*
X205502261Y-83935714D01*
X205597500Y-83983333D01*
X205645119Y-84078571D01*
X205645119Y-84602380D01*
X206121309Y-84602380D02*
X206121309Y-83935714D01*
X206121309Y-84030952D02*
X206168928Y-83983333D01*
X206264166Y-83935714D01*
X206407023Y-83935714D01*
X206502261Y-83983333D01*
X206549880Y-84078571D01*
X206549880Y-84602380D01*
X206549880Y-84078571D02*
X206597500Y-83983333D01*
X206692738Y-83935714D01*
X206835595Y-83935714D01*
X206930833Y-83983333D01*
X206978452Y-84078571D01*
X206978452Y-84602380D01*
X204359404Y-86252380D02*
X203787976Y-86252380D01*
X204073690Y-86252380D02*
X204073690Y-85252380D01*
X203978452Y-85395238D01*
X203883214Y-85490476D01*
X203787976Y-85538095D01*
X204835595Y-86204761D02*
X204835595Y-86252380D01*
X204787976Y-86347619D01*
X204740357Y-86395238D01*
X205216547Y-85347619D02*
X205264166Y-85300000D01*
X205359404Y-85252380D01*
X205597500Y-85252380D01*
X205692738Y-85300000D01*
X205740357Y-85347619D01*
X205787976Y-85442857D01*
X205787976Y-85538095D01*
X205740357Y-85680952D01*
X205168928Y-86252380D01*
X205787976Y-86252380D01*
X206216547Y-86252380D02*
X206216547Y-85585714D01*
X206216547Y-85680952D02*
X206264166Y-85633333D01*
X206359404Y-85585714D01*
X206502261Y-85585714D01*
X206597500Y-85633333D01*
X206645119Y-85728571D01*
X206645119Y-86252380D01*
X206645119Y-85728571D02*
X206692738Y-85633333D01*
X206787976Y-85585714D01*
X206930833Y-85585714D01*
X207026071Y-85633333D01*
X207073690Y-85728571D01*
X207073690Y-86252380D01*
X207549880Y-86252380D02*
X207549880Y-85585714D01*
X207549880Y-85680952D02*
X207597500Y-85633333D01*
X207692738Y-85585714D01*
X207835595Y-85585714D01*
X207930833Y-85633333D01*
X207978452Y-85728571D01*
X207978452Y-86252380D01*
X207978452Y-85728571D02*
X208026071Y-85633333D01*
X208121309Y-85585714D01*
X208264166Y-85585714D01*
X208359404Y-85633333D01*
X208407023Y-85728571D01*
X208407023Y-86252380D01*
X204359404Y-87902380D02*
X203787976Y-87902380D01*
X204073690Y-87902380D02*
X204073690Y-86902380D01*
X203978452Y-87045238D01*
X203883214Y-87140476D01*
X203787976Y-87188095D01*
X204835595Y-87854761D02*
X204835595Y-87902380D01*
X204787976Y-87997619D01*
X204740357Y-88045238D01*
X205740357Y-86902380D02*
X205264166Y-86902380D01*
X205216547Y-87378571D01*
X205264166Y-87330952D01*
X205359404Y-87283333D01*
X205597500Y-87283333D01*
X205692738Y-87330952D01*
X205740357Y-87378571D01*
X205787976Y-87473809D01*
X205787976Y-87711904D01*
X205740357Y-87807142D01*
X205692738Y-87854761D01*
X205597500Y-87902380D01*
X205359404Y-87902380D01*
X205264166Y-87854761D01*
X205216547Y-87807142D01*
X206216547Y-87902380D02*
X206216547Y-87235714D01*
X206216547Y-87330952D02*
X206264166Y-87283333D01*
X206359404Y-87235714D01*
X206502261Y-87235714D01*
X206597500Y-87283333D01*
X206645119Y-87378571D01*
X206645119Y-87902380D01*
X206645119Y-87378571D02*
X206692738Y-87283333D01*
X206787976Y-87235714D01*
X206930833Y-87235714D01*
X207026071Y-87283333D01*
X207073690Y-87378571D01*
X207073690Y-87902380D01*
X207549880Y-87902380D02*
X207549880Y-87235714D01*
X207549880Y-87330952D02*
X207597500Y-87283333D01*
X207692738Y-87235714D01*
X207835595Y-87235714D01*
X207930833Y-87283333D01*
X207978452Y-87378571D01*
X207978452Y-87902380D01*
X207978452Y-87378571D02*
X208026071Y-87283333D01*
X208121309Y-87235714D01*
X208264166Y-87235714D01*
X208359404Y-87283333D01*
X208407023Y-87378571D01*
X208407023Y-87902380D01*
X203787976Y-88647619D02*
X203835595Y-88600000D01*
X203930833Y-88552380D01*
X204168928Y-88552380D01*
X204264166Y-88600000D01*
X204311785Y-88647619D01*
X204359404Y-88742857D01*
X204359404Y-88838095D01*
X204311785Y-88980952D01*
X203740357Y-89552380D01*
X204359404Y-89552380D01*
X204787976Y-89552380D02*
X204787976Y-88885714D01*
X204787976Y-88980952D02*
X204835595Y-88933333D01*
X204930833Y-88885714D01*
X205073690Y-88885714D01*
X205168928Y-88933333D01*
X205216547Y-89028571D01*
X205216547Y-89552380D01*
X205216547Y-89028571D02*
X205264166Y-88933333D01*
X205359404Y-88885714D01*
X205502261Y-88885714D01*
X205597500Y-88933333D01*
X205645119Y-89028571D01*
X205645119Y-89552380D01*
X206121309Y-89552380D02*
X206121309Y-88885714D01*
X206121309Y-88980952D02*
X206168928Y-88933333D01*
X206264166Y-88885714D01*
X206407023Y-88885714D01*
X206502261Y-88933333D01*
X206549880Y-89028571D01*
X206549880Y-89552380D01*
X206549880Y-89028571D02*
X206597500Y-88933333D01*
X206692738Y-88885714D01*
X206835595Y-88885714D01*
X206930833Y-88933333D01*
X206978452Y-89028571D01*
X206978452Y-89552380D01*
X164619047Y-138904761D02*
X164666666Y-138809523D01*
X164714285Y-138761904D01*
X164809523Y-138714285D01*
X164857142Y-138714285D01*
X164952380Y-138761904D01*
X165000000Y-138809523D01*
X165047619Y-138904761D01*
X165047619Y-139095238D01*
X165000000Y-139190476D01*
X164952380Y-139238095D01*
X164857142Y-139285714D01*
X164809523Y-139285714D01*
X164714285Y-139238095D01*
X164666666Y-139190476D01*
X164619047Y-139095238D01*
X164619047Y-138904761D01*
X164571428Y-138809523D01*
X164523809Y-138761904D01*
X164428571Y-138714285D01*
X164238095Y-138714285D01*
X164142857Y-138761904D01*
X164095238Y-138809523D01*
X164047619Y-138904761D01*
X164047619Y-139095238D01*
X164095238Y-139190476D01*
X164142857Y-139238095D01*
X164238095Y-139285714D01*
X164428571Y-139285714D01*
X164523809Y-139238095D01*
X164571428Y-139190476D01*
X164619047Y-139095238D01*
X165047619Y-128666666D02*
X165047619Y-129333333D01*
X164047619Y-128904761D01*
X165047619Y-119190476D02*
X165047619Y-119000000D01*
X165000000Y-118904761D01*
X164952380Y-118857142D01*
X164809523Y-118761904D01*
X164619047Y-118714285D01*
X164238095Y-118714285D01*
X164142857Y-118761904D01*
X164095238Y-118809523D01*
X164047619Y-118904761D01*
X164047619Y-119095238D01*
X164095238Y-119190476D01*
X164142857Y-119238095D01*
X164238095Y-119285714D01*
X164476190Y-119285714D01*
X164571428Y-119238095D01*
X164619047Y-119190476D01*
X164666666Y-119095238D01*
X164666666Y-118904761D01*
X164619047Y-118809523D01*
X164571428Y-118761904D01*
X164476190Y-118714285D01*
X165047619Y-88666666D02*
X165047619Y-89285714D01*
X164666666Y-88952380D01*
X164666666Y-89095238D01*
X164619047Y-89190476D01*
X164571428Y-89238095D01*
X164476190Y-89285714D01*
X164238095Y-89285714D01*
X164142857Y-89238095D01*
X164095238Y-89190476D01*
X164047619Y-89095238D01*
X164047619Y-88809523D01*
X164095238Y-88714285D01*
X164142857Y-88666666D01*
X164952380Y-78714285D02*
X165000000Y-78761904D01*
X165047619Y-78857142D01*
X165047619Y-79095238D01*
X165000000Y-79190476D01*
X164952380Y-79238095D01*
X164857142Y-79285714D01*
X164761904Y-79285714D01*
X164619047Y-79238095D01*
X164047619Y-78666666D01*
X164047619Y-79285714D01*
X164047619Y-69285714D02*
X164047619Y-68714285D01*
X164047619Y-69000000D02*
X165047619Y-69000000D01*
X164904761Y-68904761D01*
X164809523Y-68809523D01*
X164761904Y-68714285D01*
D10*
X160000000Y-146500000D02*
X160500000Y-146500000D01*
X160000000Y-145500000D02*
X160500000Y-145500000D01*
X160000000Y-144500000D02*
X160500000Y-144500000D01*
X160000000Y-143500000D02*
X160500000Y-143500000D01*
X160000000Y-142500000D02*
X160500000Y-142500000D01*
X160000000Y-141500000D02*
X160500000Y-141500000D01*
X160000000Y-140500000D02*
X160500000Y-140500000D01*
X160000000Y-139500000D02*
X160500000Y-139500000D01*
X160000000Y-138500000D02*
X160500000Y-138500000D01*
X160000000Y-137500000D02*
X160500000Y-137500000D01*
X160000000Y-136500000D02*
X160500000Y-136500000D01*
X160000000Y-135500000D02*
X160500000Y-135500000D01*
X160000000Y-134500000D02*
X160500000Y-134500000D01*
X160000000Y-133500000D02*
X160500000Y-133500000D01*
X160000000Y-132500000D02*
X160500000Y-132500000D01*
X160000000Y-131500000D02*
X160500000Y-131500000D01*
X160000000Y-130500000D02*
X160500000Y-130500000D01*
X160000000Y-129500000D02*
X160500000Y-129500000D01*
X160000000Y-128500000D02*
X160500000Y-128500000D01*
X160000000Y-127500000D02*
X160500000Y-127500000D01*
X160000000Y-126500000D02*
X160500000Y-126500000D01*
X160000000Y-125500000D02*
X160500000Y-125500000D01*
X160000000Y-124500000D02*
X160500000Y-124500000D01*
X160000000Y-123500000D02*
X160500000Y-123500000D01*
X160000000Y-122500000D02*
X160500000Y-122500000D01*
X160000000Y-121500000D02*
X160500000Y-121500000D01*
X160000000Y-120500000D02*
X160500000Y-120500000D01*
X160000000Y-119500000D02*
X160500000Y-119500000D01*
X160000000Y-118500000D02*
X160500000Y-118500000D01*
X160000000Y-117500000D02*
X160500000Y-117500000D01*
X160000000Y-116500000D02*
X160500000Y-116500000D01*
X160000000Y-115500000D02*
X160500000Y-115500000D01*
X160000000Y-114500000D02*
X160500000Y-114500000D01*
X160000000Y-113500000D02*
X160500000Y-113500000D01*
X160000000Y-112500000D02*
X160500000Y-112500000D01*
X160000000Y-111500000D02*
X160500000Y-111500000D01*
X160000000Y-110500000D02*
X160500000Y-110500000D01*
X160000000Y-109500000D02*
X160500000Y-109500000D01*
X160000000Y-108500000D02*
X160500000Y-108500000D01*
X160000000Y-107500000D02*
X160500000Y-107500000D01*
X160000000Y-106500000D02*
X160500000Y-106500000D01*
X160000000Y-101500000D02*
X160500000Y-101500000D01*
X160000000Y-100500000D02*
X160500000Y-100500000D01*
X160000000Y-99500000D02*
X160500000Y-99500000D01*
X160000000Y-98500000D02*
X160500000Y-98500000D01*
X160000000Y-97500000D02*
X160500000Y-97500000D01*
X160000000Y-96500000D02*
X160500000Y-96500000D01*
X160000000Y-95500000D02*
X160500000Y-95500000D01*
X160000000Y-94500000D02*
X160500000Y-94500000D01*
X160000000Y-93500000D02*
X160500000Y-93500000D01*
X160000000Y-92500000D02*
X160500000Y-92500000D01*
X160000000Y-91500000D02*
X160500000Y-91500000D01*
X160000000Y-90500000D02*
X160500000Y-90500000D01*
X160000000Y-89500000D02*
X160500000Y-89500000D01*
X160000000Y-88500000D02*
X160500000Y-88500000D01*
X160000000Y-87500000D02*
X160500000Y-87500000D01*
X160000000Y-86500000D02*
X160500000Y-86500000D01*
X160000000Y-85500000D02*
X160500000Y-85500000D01*
X160000000Y-84500000D02*
X160500000Y-84500000D01*
X160000000Y-83500000D02*
X160500000Y-83500000D01*
X160000000Y-82500000D02*
X160500000Y-82500000D01*
X160000000Y-81500000D02*
X160500000Y-81500000D01*
X160000000Y-80500000D02*
X160500000Y-80500000D01*
X160000000Y-79500000D02*
X160500000Y-79500000D01*
X160000000Y-78500000D02*
X160500000Y-78500000D01*
X160000000Y-77500000D02*
X160500000Y-77500000D01*
X160000000Y-76500000D02*
X160500000Y-76500000D01*
X160000000Y-75500000D02*
X160500000Y-75500000D01*
X160000000Y-74500000D02*
X160500000Y-74500000D01*
X160000000Y-73500000D02*
X160500000Y-73500000D01*
X160000000Y-72500000D02*
X160500000Y-72500000D01*
X160000000Y-71500000D02*
X160500000Y-71500000D01*
X160000000Y-70500000D02*
X160500000Y-70500000D01*
X160000000Y-69500000D02*
X160500000Y-69500000D01*
X160000000Y-68500000D02*
X160500000Y-68500000D01*
X160000000Y-67500000D02*
X160500000Y-67500000D01*
X160000000Y-66500000D02*
X160500000Y-66500000D01*
X160000000Y-65500000D02*
X160500000Y-65500000D01*
X160000000Y-64500000D02*
X160500000Y-64500000D01*
X160000000Y-63500000D02*
X160500000Y-63500000D01*
X160000000Y-62500000D02*
X160500000Y-62500000D01*
X160000000Y-61500000D02*
X160500000Y-61500000D01*
D12*
X160000000Y-100000000D02*
X163000000Y-100000000D01*
X160000000Y-144000000D02*
X162000000Y-144000000D01*
X160000000Y-146000000D02*
X162000000Y-146000000D01*
X160000000Y-147000000D02*
X162000000Y-147000000D01*
X160000000Y-145000000D02*
X163000000Y-145000000D01*
X160000000Y-141000000D02*
X162000000Y-141000000D01*
X160000000Y-142000000D02*
X162000000Y-142000000D01*
X160000000Y-143000000D02*
X162000000Y-143000000D01*
X160000000Y-134000000D02*
X162000000Y-134000000D01*
X160000000Y-140000000D02*
X165000000Y-140000000D01*
X160000000Y-136000000D02*
X162000000Y-136000000D01*
X160000000Y-138000000D02*
X162000000Y-138000000D01*
X160000000Y-139000000D02*
X162000000Y-139000000D01*
X160000000Y-137000000D02*
X162000000Y-137000000D01*
X160000000Y-135000000D02*
X163000000Y-135000000D01*
X160000000Y-131000000D02*
X162000000Y-131000000D01*
X160000000Y-132000000D02*
X162000000Y-132000000D01*
X160000000Y-133000000D02*
X162000000Y-133000000D01*
X160000000Y-124000000D02*
X162000000Y-124000000D01*
X160000000Y-130000000D02*
X165000000Y-130000000D01*
X160000000Y-126000000D02*
X162000000Y-126000000D01*
X160000000Y-128000000D02*
X162000000Y-128000000D01*
X160000000Y-129000000D02*
X162000000Y-129000000D01*
X160000000Y-127000000D02*
X162000000Y-127000000D01*
X160000000Y-125000000D02*
X163000000Y-125000000D01*
X160000000Y-121000000D02*
X162000000Y-121000000D01*
X160000000Y-122000000D02*
X162000000Y-122000000D01*
X160000000Y-123000000D02*
X162000000Y-123000000D01*
X160000000Y-114000000D02*
X162000000Y-114000000D01*
X160000000Y-120000000D02*
X165000000Y-120000000D01*
X160000000Y-116000000D02*
X162000000Y-116000000D01*
X160000000Y-118000000D02*
X162000000Y-118000000D01*
X160000000Y-119000000D02*
X162000000Y-119000000D01*
X160000000Y-117000000D02*
X162000000Y-117000000D01*
X160000000Y-115000000D02*
X163000000Y-115000000D01*
X160000000Y-111000000D02*
X162000000Y-111000000D01*
X160000000Y-112000000D02*
X162000000Y-112000000D01*
X160000000Y-113000000D02*
X162000000Y-113000000D01*
X160000000Y-110000000D02*
X163000000Y-110000000D01*
X160000000Y-108000000D02*
X162000000Y-108000000D01*
X160000000Y-109000000D02*
X162000000Y-109000000D01*
X160000000Y-107000000D02*
X162000000Y-107000000D01*
X160000000Y-101000000D02*
X162000000Y-101000000D01*
X160000000Y-94000000D02*
X162000000Y-94000000D01*
X160000000Y-96000000D02*
X162000000Y-96000000D01*
X160000000Y-98000000D02*
X162000000Y-98000000D01*
X160000000Y-99000000D02*
X162000000Y-99000000D01*
X160000000Y-97000000D02*
X162000000Y-97000000D01*
X160000000Y-95000000D02*
X163000000Y-95000000D01*
X160000000Y-91000000D02*
X162000000Y-91000000D01*
X160000000Y-92000000D02*
X162000000Y-92000000D01*
X160000000Y-93000000D02*
X162000000Y-93000000D01*
X160000000Y-84000000D02*
X162000000Y-84000000D01*
X160000000Y-90000000D02*
X165000000Y-90000000D01*
X160000000Y-86000000D02*
X162000000Y-86000000D01*
X160000000Y-88000000D02*
X162000000Y-88000000D01*
X160000000Y-89000000D02*
X162000000Y-89000000D01*
X160000000Y-87000000D02*
X162000000Y-87000000D01*
X160000000Y-85000000D02*
X163000000Y-85000000D01*
X160000000Y-81000000D02*
X162000000Y-81000000D01*
X160000000Y-82000000D02*
X162000000Y-82000000D01*
X160000000Y-83000000D02*
X162000000Y-83000000D01*
X160000000Y-74000000D02*
X162000000Y-74000000D01*
X160000000Y-80000000D02*
X165000000Y-80000000D01*
X160000000Y-76000000D02*
X162000000Y-76000000D01*
X160000000Y-78000000D02*
X162000000Y-78000000D01*
X160000000Y-79000000D02*
X162000000Y-79000000D01*
X160000000Y-77000000D02*
X162000000Y-77000000D01*
X160000000Y-75000000D02*
X163000000Y-75000000D01*
X160000000Y-71000000D02*
X162000000Y-71000000D01*
X160000000Y-72000000D02*
X162000000Y-72000000D01*
X160000000Y-73000000D02*
X162000000Y-73000000D01*
X160000000Y-70000000D02*
X165000000Y-70000000D01*
X160000000Y-69000000D02*
X162000000Y-69000000D01*
X160000000Y-68000000D02*
X162000000Y-68000000D01*
X160000000Y-67000000D02*
X162000000Y-67000000D01*
X160000000Y-66000000D02*
X162000000Y-66000000D01*
X160000000Y-65000000D02*
X163000000Y-65000000D01*
X160000000Y-64000000D02*
X162000000Y-64000000D01*
X160000000Y-63000000D02*
X162000000Y-63000000D01*
X160000000Y-62000000D02*
X162000000Y-62000000D01*
X160000000Y-61000000D02*
X162000000Y-61000000D01*
X205910000Y-140910000D02*
X205910000Y-139650000D01*
X205910000Y-134090000D02*
X205910000Y-135350000D01*
X202150000Y-140910000D02*
X205910000Y-140910000D01*
X199900000Y-134090000D02*
X205910000Y-134090000D01*
X201500000Y-125000000D02*
X206000000Y-125000000D01*
X200250000Y-121000000D02*
X200250000Y-122500000D01*
X206000000Y-118500000D02*
X201500000Y-118500000D01*
X207250000Y-122500000D02*
X207250000Y-121000000D01*
X167979000Y-143121000D02*
X167979000Y-138080000D01*
X178020000Y-143121000D02*
X178020000Y-138080000D01*
X167979000Y-138080000D02*
X171575000Y-138080000D01*
X174425000Y-138080000D02*
X178020000Y-138080000D01*
X176925000Y-143121000D02*
X178020000Y-143121000D01*
X167979000Y-143121000D02*
X169074000Y-143121000D01*
X171926000Y-143121000D02*
X174075000Y-143121000D01*
X171380000Y-141763000D02*
X171380000Y-138080000D01*
X174620000Y-141763000D02*
X174620000Y-138080000D01*
X171926000Y-143121000D02*
X174075000Y-143121000D01*
X171380000Y-138080000D02*
X171575000Y-138080000D01*
X174425000Y-138080000D02*
X174620000Y-138080000D01*
X184875000Y-128375000D02*
X194125000Y-128375000D01*
X194125000Y-128375000D02*
X194125000Y-138625000D01*
X194125000Y-138625000D02*
X183875000Y-138625000D01*
X183875000Y-138625000D02*
X183875000Y-129375000D01*
X199947936Y-109790000D02*
X204052064Y-109790000D01*
X199947936Y-113210000D02*
X204052064Y-113210000D01*
X201397936Y-106590000D02*
X202602064Y-106590000D01*
X201397936Y-108410000D02*
X202602064Y-108410000D01*
X201741422Y-103290000D02*
X202258578Y-103290000D01*
X201741422Y-104710000D02*
X202258578Y-104710000D01*
X201837221Y-100490000D02*
X202162779Y-100490000D01*
X201837221Y-101510000D02*
X202162779Y-101510000D01*
X213170000Y-145490000D02*
X215830000Y-145490000D01*
X213170000Y-135270000D02*
X213170000Y-145490000D01*
X215830000Y-135270000D02*
X215830000Y-145490000D01*
X213170000Y-135270000D02*
X215830000Y-135270000D01*
X213170000Y-134000000D02*
X213170000Y-132670000D01*
X213170000Y-132670000D02*
X214500000Y-132670000D01*
X213440000Y-129060000D02*
X215560000Y-129060000D01*
X213440000Y-121000000D02*
X213440000Y-129060000D01*
X215560000Y-121000000D02*
X215560000Y-129060000D01*
X213440000Y-121000000D02*
X215560000Y-121000000D01*
X213440000Y-120000000D02*
X213440000Y-118940000D01*
X213440000Y-118940000D02*
X214500000Y-118940000D01*
X213390000Y-83275000D02*
X214192470Y-83275000D01*
X214807530Y-83275000D02*
X215610000Y-83275000D01*
X213390000Y-78260000D02*
X213390000Y-83275000D01*
X215610000Y-78260000D02*
X215610000Y-83275000D01*
X213390000Y-78260000D02*
X213936529Y-78260000D01*
X215063471Y-78260000D02*
X215610000Y-78260000D01*
X213390000Y-77500000D02*
X213390000Y-76740000D01*
X213390000Y-76740000D02*
X214500000Y-76740000D01*
X213935000Y-72886000D02*
X214235507Y-72886000D01*
X215024493Y-72886000D02*
X215325000Y-72886000D01*
X213935000Y-69011000D02*
X213935000Y-72886000D01*
X215325000Y-69011000D02*
X215325000Y-72886000D01*
X213935000Y-69011000D02*
X214021724Y-69011000D01*
X215238276Y-69011000D02*
X215325000Y-69011000D01*
X213935000Y-68326000D02*
X213935000Y-67641000D01*
X213935000Y-67641000D02*
X214630000Y-67641000D01*
X170740000Y-126975000D02*
X177140000Y-126975000D01*
X170740000Y-132025000D02*
X177140000Y-132025000D01*
X177140000Y-132025000D02*
G75*
G03*
X177140000Y-126975000I0J2525000D01*
G01*
X170740000Y-132025000D02*
G75*
G02*
X170740000Y-126975000I0J2525000D01*
G01*
X170100000Y-86110000D02*
X171900000Y-86110000D01*
X171900000Y-82890000D02*
X169450000Y-82890000D01*
X171760000Y-79580000D02*
X171760000Y-78650000D01*
X171760000Y-76420000D02*
X171760000Y-77350000D01*
X171760000Y-76420000D02*
X169600000Y-76420000D01*
X171760000Y-79580000D02*
X170300000Y-79580000D01*
X173030000Y-113550000D02*
X171530000Y-113550000D01*
X171530000Y-113550000D02*
X171530000Y-113820000D01*
X171530000Y-113820000D02*
X168700000Y-113820000D01*
X173030000Y-120450000D02*
X171530000Y-120450000D01*
X171530000Y-120450000D02*
X171530000Y-120180000D01*
X171530000Y-120180000D02*
X170430000Y-120180000D01*
X173500000Y-95590000D02*
X175380000Y-95590000D01*
X173500000Y-95590000D02*
X171620000Y-95590000D01*
X173500000Y-90410000D02*
X175380000Y-90410000D01*
X173500000Y-90410000D02*
X169975000Y-90410000D01*
D11*
X171275000Y-107950000D02*
X175725000Y-107950000D01*
X169750000Y-101050000D02*
X175725000Y-101050000D01*
D13*
X172100000Y-69400000D02*
X172600000Y-69400000D01*
X172600000Y-69400000D02*
X172600000Y-69900000D01*
X172600000Y-72600000D02*
X172600000Y-72100000D01*
X172600000Y-72100000D02*
X172600000Y-72600000D01*
X172600000Y-72600000D02*
X172100000Y-72600000D01*
X169400000Y-72600000D02*
X169900000Y-72600000D01*
X169400000Y-72600000D02*
X169400000Y-72100000D01*
X169400000Y-69400000D02*
X169400000Y-69900000D01*
X169650000Y-65360000D02*
X169800000Y-65360000D01*
X169650000Y-65350000D02*
X169650000Y-65200000D01*
X172350000Y-65350000D02*
X172350000Y-65200000D01*
X172350000Y-65350000D02*
X172200000Y-65350000D01*
X172200000Y-62650000D02*
X172350000Y-62650000D01*
X172350000Y-62650000D02*
X172350000Y-62800000D01*
X169650000Y-62800000D02*
X169650000Y-62550000D01*
D12*
X192160000Y-122610000D02*
X192610000Y-122610000D01*
X192610000Y-122610000D02*
X192610000Y-122160000D01*
X185840000Y-122610000D02*
X185390000Y-122610000D01*
X185390000Y-122610000D02*
X185390000Y-122160000D01*
X192160000Y-115390000D02*
X192610000Y-115390000D01*
X192610000Y-115390000D02*
X192610000Y-115840000D01*
X185840000Y-115390000D02*
X185390000Y-115390000D01*
X185390000Y-115390000D02*
X185390000Y-115840000D01*
X185390000Y-115840000D02*
X184100000Y-115840000D01*
X192310000Y-92610000D02*
X192610000Y-92610000D01*
X192610000Y-92610000D02*
X192610000Y-92310000D01*
X185690000Y-92610000D02*
X185390000Y-92610000D01*
X185390000Y-92610000D02*
X185390000Y-92310000D01*
X192310000Y-85390000D02*
X192610000Y-85390000D01*
X192610000Y-85390000D02*
X192610000Y-85690000D01*
X185690000Y-85390000D02*
X185390000Y-85390000D01*
X185390000Y-85390000D02*
X185390000Y-85690000D01*
X185390000Y-85690000D02*
X184075000Y-85690000D01*
X193160000Y-109110000D02*
X194110000Y-109110000D01*
X194110000Y-109110000D02*
X194110000Y-108160000D01*
X184840000Y-109110000D02*
X183890000Y-109110000D01*
X183890000Y-109110000D02*
X183890000Y-108160000D01*
X193160000Y-98890000D02*
X194110000Y-98890000D01*
X194110000Y-98890000D02*
X194110000Y-99840000D01*
X184840000Y-98890000D02*
X183890000Y-98890000D01*
X183890000Y-98890000D02*
X183890000Y-99840000D01*
X183890000Y-99840000D02*
X182550000Y-99840000D01*
D11*
X200761904Y-133404761D02*
X200904761Y-133452380D01*
X201142857Y-133452380D01*
X201238095Y-133404761D01*
X201285714Y-133357142D01*
X201333333Y-133261904D01*
X201333333Y-133166666D01*
X201285714Y-133071428D01*
X201238095Y-133023809D01*
X201142857Y-132976190D01*
X200952380Y-132928571D01*
X200857142Y-132880952D01*
X200809523Y-132833333D01*
X200761904Y-132738095D01*
X200761904Y-132642857D01*
X200809523Y-132547619D01*
X200857142Y-132500000D01*
X200952380Y-132452380D01*
X201190476Y-132452380D01*
X201333333Y-132500000D01*
X201952380Y-132452380D02*
X202142857Y-132452380D01*
X202238095Y-132500000D01*
X202333333Y-132595238D01*
X202380952Y-132785714D01*
X202380952Y-133119047D01*
X202333333Y-133309523D01*
X202238095Y-133404761D01*
X202142857Y-133452380D01*
X201952380Y-133452380D01*
X201857142Y-133404761D01*
X201761904Y-133309523D01*
X201714285Y-133119047D01*
X201714285Y-132785714D01*
X201761904Y-132595238D01*
X201857142Y-132500000D01*
X201952380Y-132452380D01*
X202666666Y-132452380D02*
X203238095Y-132452380D01*
X202952380Y-133452380D02*
X202952380Y-132452380D01*
X203571428Y-133071428D02*
X204333333Y-133071428D01*
X204761904Y-132547619D02*
X204809523Y-132500000D01*
X204904761Y-132452380D01*
X205142857Y-132452380D01*
X205238095Y-132500000D01*
X205285714Y-132547619D01*
X205333333Y-132642857D01*
X205333333Y-132738095D01*
X205285714Y-132880952D01*
X204714285Y-133452380D01*
X205333333Y-133452380D01*
X205714285Y-132547619D02*
X205761904Y-132500000D01*
X205857142Y-132452380D01*
X206095238Y-132452380D01*
X206190476Y-132500000D01*
X206238095Y-132547619D01*
X206285714Y-132642857D01*
X206285714Y-132738095D01*
X206238095Y-132880952D01*
X205666666Y-133452380D01*
X206285714Y-133452380D01*
X206619047Y-132452380D02*
X207238095Y-132452380D01*
X206904761Y-132833333D01*
X207047619Y-132833333D01*
X207142857Y-132880952D01*
X207190476Y-132928571D01*
X207238095Y-133023809D01*
X207238095Y-133261904D01*
X207190476Y-133357142D01*
X207142857Y-133404761D01*
X207047619Y-133452380D01*
X206761904Y-133452380D01*
X206666666Y-133404761D01*
X206619047Y-133357142D01*
X201726190Y-116952380D02*
X201535714Y-116952380D01*
X201440476Y-117000000D01*
X201392857Y-117047619D01*
X201297619Y-117190476D01*
X201250000Y-117380952D01*
X201250000Y-117761904D01*
X201297619Y-117857142D01*
X201345238Y-117904761D01*
X201440476Y-117952380D01*
X201630952Y-117952380D01*
X201726190Y-117904761D01*
X201773809Y-117857142D01*
X201821428Y-117761904D01*
X201821428Y-117523809D01*
X201773809Y-117428571D01*
X201726190Y-117380952D01*
X201630952Y-117333333D01*
X201440476Y-117333333D01*
X201345238Y-117380952D01*
X201297619Y-117428571D01*
X201250000Y-117523809D01*
X202154761Y-117952380D02*
X202678571Y-117285714D01*
X202154761Y-117285714D02*
X202678571Y-117952380D01*
X203488095Y-116952380D02*
X203297619Y-116952380D01*
X203202380Y-117000000D01*
X203154761Y-117047619D01*
X203059523Y-117190476D01*
X203011904Y-117380952D01*
X203011904Y-117761904D01*
X203059523Y-117857142D01*
X203107142Y-117904761D01*
X203202380Y-117952380D01*
X203392857Y-117952380D01*
X203488095Y-117904761D01*
X203535714Y-117857142D01*
X203583333Y-117761904D01*
X203583333Y-117523809D01*
X203535714Y-117428571D01*
X203488095Y-117380952D01*
X203392857Y-117333333D01*
X203202380Y-117333333D01*
X203107142Y-117380952D01*
X203059523Y-117428571D01*
X203011904Y-117523809D01*
X204011904Y-117952380D02*
X204011904Y-117285714D01*
X204011904Y-117380952D02*
X204059523Y-117333333D01*
X204154761Y-117285714D01*
X204297619Y-117285714D01*
X204392857Y-117333333D01*
X204440476Y-117428571D01*
X204440476Y-117952380D01*
X204440476Y-117428571D02*
X204488095Y-117333333D01*
X204583333Y-117285714D01*
X204726190Y-117285714D01*
X204821428Y-117333333D01*
X204869047Y-117428571D01*
X204869047Y-117952380D01*
X205345238Y-117952380D02*
X205345238Y-117285714D01*
X205345238Y-117380952D02*
X205392857Y-117333333D01*
X205488095Y-117285714D01*
X205630952Y-117285714D01*
X205726190Y-117333333D01*
X205773809Y-117428571D01*
X205773809Y-117952380D01*
X205773809Y-117428571D02*
X205821428Y-117333333D01*
X205916666Y-117285714D01*
X206059523Y-117285714D01*
X206154761Y-117333333D01*
X206202380Y-117428571D01*
X206202380Y-117952380D01*
X169785714Y-135857142D02*
X169738095Y-135904761D01*
X169595238Y-135952380D01*
X169500000Y-135952380D01*
X169357142Y-135904761D01*
X169261904Y-135809523D01*
X169214285Y-135714285D01*
X169166666Y-135523809D01*
X169166666Y-135380952D01*
X169214285Y-135190476D01*
X169261904Y-135095238D01*
X169357142Y-135000000D01*
X169500000Y-134952380D01*
X169595238Y-134952380D01*
X169738095Y-135000000D01*
X169785714Y-135047619D01*
X170166666Y-135666666D02*
X170642857Y-135666666D01*
X170071428Y-135952380D02*
X170404761Y-134952380D01*
X170738095Y-135952380D01*
X171119047Y-135952380D02*
X171309523Y-135952380D01*
X171404761Y-135904761D01*
X171452380Y-135857142D01*
X171547619Y-135714285D01*
X171595238Y-135523809D01*
X171595238Y-135142857D01*
X171547619Y-135047619D01*
X171500000Y-135000000D01*
X171404761Y-134952380D01*
X171214285Y-134952380D01*
X171119047Y-135000000D01*
X171071428Y-135047619D01*
X171023809Y-135142857D01*
X171023809Y-135380952D01*
X171071428Y-135476190D01*
X171119047Y-135523809D01*
X171214285Y-135571428D01*
X171404761Y-135571428D01*
X171500000Y-135523809D01*
X171547619Y-135476190D01*
X171595238Y-135380952D01*
X172023809Y-135571428D02*
X172785714Y-135571428D01*
X173261904Y-135952380D02*
X173261904Y-134952380D01*
X173261904Y-135428571D02*
X173833333Y-135428571D01*
X173833333Y-135952380D02*
X173833333Y-134952380D01*
X174785714Y-134952380D02*
X174309523Y-134952380D01*
X174261904Y-135428571D01*
X174309523Y-135380952D01*
X174404761Y-135333333D01*
X174642857Y-135333333D01*
X174738095Y-135380952D01*
X174785714Y-135428571D01*
X174833333Y-135523809D01*
X174833333Y-135761904D01*
X174785714Y-135857142D01*
X174738095Y-135904761D01*
X174642857Y-135952380D01*
X174404761Y-135952380D01*
X174309523Y-135904761D01*
X174261904Y-135857142D01*
X182357142Y-127952380D02*
X181880952Y-127952380D01*
X181880952Y-126952380D01*
X183023809Y-127428571D02*
X182690476Y-127428571D01*
X182690476Y-127952380D02*
X182690476Y-126952380D01*
X183166666Y-126952380D01*
X183880952Y-127428571D02*
X184023809Y-127476190D01*
X184071428Y-127523809D01*
X184119047Y-127619047D01*
X184119047Y-127761904D01*
X184071428Y-127857142D01*
X184023809Y-127904761D01*
X183928571Y-127952380D01*
X183547619Y-127952380D01*
X183547619Y-126952380D01*
X183880952Y-126952380D01*
X183976190Y-127000000D01*
X184023809Y-127047619D01*
X184071428Y-127142857D01*
X184071428Y-127238095D01*
X184023809Y-127333333D01*
X183976190Y-127380952D01*
X183880952Y-127428571D01*
X183547619Y-127428571D01*
X185071428Y-127000000D02*
X184976190Y-126952380D01*
X184833333Y-126952380D01*
X184690476Y-127000000D01*
X184595238Y-127095238D01*
X184547619Y-127190476D01*
X184500000Y-127380952D01*
X184500000Y-127523809D01*
X184547619Y-127714285D01*
X184595238Y-127809523D01*
X184690476Y-127904761D01*
X184833333Y-127952380D01*
X184928571Y-127952380D01*
X185071428Y-127904761D01*
X185119047Y-127857142D01*
X185119047Y-127523809D01*
X184928571Y-127523809D01*
X185500000Y-127666666D02*
X185976190Y-127666666D01*
X185404761Y-127952380D02*
X185738095Y-126952380D01*
X186071428Y-127952380D01*
X186404761Y-127571428D02*
X187166666Y-127571428D01*
X188166666Y-127952380D02*
X187595238Y-127952380D01*
X187880952Y-127952380D02*
X187880952Y-126952380D01*
X187785714Y-127095238D01*
X187690476Y-127190476D01*
X187595238Y-127238095D01*
X189023809Y-127285714D02*
X189023809Y-127952380D01*
X188785714Y-126904761D02*
X188547619Y-127619047D01*
X189166666Y-127619047D01*
X189976190Y-127285714D02*
X189976190Y-127952380D01*
X189738095Y-126904761D02*
X189500000Y-127619047D01*
X190119047Y-127619047D01*
X191214285Y-126904761D02*
X190357142Y-128190476D01*
X191738095Y-126952380D02*
X191833333Y-126952380D01*
X191928571Y-127000000D01*
X191976190Y-127047619D01*
X192023809Y-127142857D01*
X192071428Y-127333333D01*
X192071428Y-127571428D01*
X192023809Y-127761904D01*
X191976190Y-127857142D01*
X191928571Y-127904761D01*
X191833333Y-127952380D01*
X191738095Y-127952380D01*
X191642857Y-127904761D01*
X191595238Y-127857142D01*
X191547619Y-127761904D01*
X191500000Y-127571428D01*
X191500000Y-127333333D01*
X191547619Y-127142857D01*
X191595238Y-127047619D01*
X191642857Y-127000000D01*
X191738095Y-126952380D01*
X192500000Y-127857142D02*
X192547619Y-127904761D01*
X192500000Y-127952380D01*
X192452380Y-127904761D01*
X192500000Y-127857142D01*
X192500000Y-127952380D01*
X193119047Y-127380952D02*
X193023809Y-127333333D01*
X192976190Y-127285714D01*
X192928571Y-127190476D01*
X192928571Y-127142857D01*
X192976190Y-127047619D01*
X193023809Y-127000000D01*
X193119047Y-126952380D01*
X193309523Y-126952380D01*
X193404761Y-127000000D01*
X193452380Y-127047619D01*
X193500000Y-127142857D01*
X193500000Y-127190476D01*
X193452380Y-127285714D01*
X193404761Y-127333333D01*
X193309523Y-127380952D01*
X193119047Y-127380952D01*
X193023809Y-127428571D01*
X192976190Y-127476190D01*
X192928571Y-127571428D01*
X192928571Y-127761904D01*
X192976190Y-127857142D01*
X193023809Y-127904761D01*
X193119047Y-127952380D01*
X193309523Y-127952380D01*
X193404761Y-127904761D01*
X193452380Y-127857142D01*
X193500000Y-127761904D01*
X193500000Y-127571428D01*
X193452380Y-127476190D01*
X193404761Y-127428571D01*
X193309523Y-127380952D01*
X193928571Y-127952380D02*
X193928571Y-127285714D01*
X193928571Y-127380952D02*
X193976190Y-127333333D01*
X194071428Y-127285714D01*
X194214285Y-127285714D01*
X194309523Y-127333333D01*
X194357142Y-127428571D01*
X194357142Y-127952380D01*
X194357142Y-127428571D02*
X194404761Y-127333333D01*
X194500000Y-127285714D01*
X194642857Y-127285714D01*
X194738095Y-127333333D01*
X194785714Y-127428571D01*
X194785714Y-127952380D01*
X195261904Y-127952380D02*
X195261904Y-127285714D01*
X195261904Y-127380952D02*
X195309523Y-127333333D01*
X195404761Y-127285714D01*
X195547619Y-127285714D01*
X195642857Y-127333333D01*
X195690476Y-127428571D01*
X195690476Y-127952380D01*
X195690476Y-127428571D02*
X195738095Y-127333333D01*
X195833333Y-127285714D01*
X195976190Y-127285714D01*
X196071428Y-127333333D01*
X196119047Y-127428571D01*
X196119047Y-127952380D01*
X206285714Y-111047619D02*
X206333333Y-111000000D01*
X206428571Y-110952380D01*
X206666666Y-110952380D01*
X206761904Y-111000000D01*
X206809523Y-111047619D01*
X206857142Y-111142857D01*
X206857142Y-111238095D01*
X206809523Y-111380952D01*
X206238095Y-111952380D01*
X206857142Y-111952380D01*
X207761904Y-110952380D02*
X207285714Y-110952380D01*
X207238095Y-111428571D01*
X207285714Y-111380952D01*
X207380952Y-111333333D01*
X207619047Y-111333333D01*
X207714285Y-111380952D01*
X207761904Y-111428571D01*
X207809523Y-111523809D01*
X207809523Y-111761904D01*
X207761904Y-111857142D01*
X207714285Y-111904761D01*
X207619047Y-111952380D01*
X207380952Y-111952380D01*
X207285714Y-111904761D01*
X207238095Y-111857142D01*
X208761904Y-111952380D02*
X208190476Y-111952380D01*
X208476190Y-111952380D02*
X208476190Y-110952380D01*
X208380952Y-111095238D01*
X208285714Y-111190476D01*
X208190476Y-111238095D01*
X209142857Y-111047619D02*
X209190476Y-111000000D01*
X209285714Y-110952380D01*
X209523809Y-110952380D01*
X209619047Y-111000000D01*
X209666666Y-111047619D01*
X209714285Y-111142857D01*
X209714285Y-111238095D01*
X209666666Y-111380952D01*
X209095238Y-111952380D01*
X209714285Y-111952380D01*
X206857142Y-107952380D02*
X206285714Y-107952380D01*
X206571428Y-107952380D02*
X206571428Y-106952380D01*
X206476190Y-107095238D01*
X206380952Y-107190476D01*
X206285714Y-107238095D01*
X207238095Y-107047619D02*
X207285714Y-107000000D01*
X207380952Y-106952380D01*
X207619047Y-106952380D01*
X207714285Y-107000000D01*
X207761904Y-107047619D01*
X207809523Y-107142857D01*
X207809523Y-107238095D01*
X207761904Y-107380952D01*
X207190476Y-107952380D01*
X207809523Y-107952380D01*
X208428571Y-106952380D02*
X208523809Y-106952380D01*
X208619047Y-107000000D01*
X208666666Y-107047619D01*
X208714285Y-107142857D01*
X208761904Y-107333333D01*
X208761904Y-107571428D01*
X208714285Y-107761904D01*
X208666666Y-107857142D01*
X208619047Y-107904761D01*
X208523809Y-107952380D01*
X208428571Y-107952380D01*
X208333333Y-107904761D01*
X208285714Y-107857142D01*
X208238095Y-107761904D01*
X208190476Y-107571428D01*
X208190476Y-107333333D01*
X208238095Y-107142857D01*
X208285714Y-107047619D01*
X208333333Y-107000000D01*
X208428571Y-106952380D01*
X209619047Y-106952380D02*
X209428571Y-106952380D01*
X209333333Y-107000000D01*
X209285714Y-107047619D01*
X209190476Y-107190476D01*
X209142857Y-107380952D01*
X209142857Y-107761904D01*
X209190476Y-107857142D01*
X209238095Y-107904761D01*
X209333333Y-107952380D01*
X209523809Y-107952380D01*
X209619047Y-107904761D01*
X209666666Y-107857142D01*
X209714285Y-107761904D01*
X209714285Y-107523809D01*
X209666666Y-107428571D01*
X209619047Y-107380952D01*
X209523809Y-107333333D01*
X209333333Y-107333333D01*
X209238095Y-107380952D01*
X209190476Y-107428571D01*
X209142857Y-107523809D01*
X206523809Y-103452380D02*
X206619047Y-103452380D01*
X206714285Y-103500000D01*
X206761904Y-103547619D01*
X206809523Y-103642857D01*
X206857142Y-103833333D01*
X206857142Y-104071428D01*
X206809523Y-104261904D01*
X206761904Y-104357142D01*
X206714285Y-104404761D01*
X206619047Y-104452380D01*
X206523809Y-104452380D01*
X206428571Y-104404761D01*
X206380952Y-104357142D01*
X206333333Y-104261904D01*
X206285714Y-104071428D01*
X206285714Y-103833333D01*
X206333333Y-103642857D01*
X206380952Y-103547619D01*
X206428571Y-103500000D01*
X206523809Y-103452380D01*
X207428571Y-103880952D02*
X207333333Y-103833333D01*
X207285714Y-103785714D01*
X207238095Y-103690476D01*
X207238095Y-103642857D01*
X207285714Y-103547619D01*
X207333333Y-103500000D01*
X207428571Y-103452380D01*
X207619047Y-103452380D01*
X207714285Y-103500000D01*
X207761904Y-103547619D01*
X207809523Y-103642857D01*
X207809523Y-103690476D01*
X207761904Y-103785714D01*
X207714285Y-103833333D01*
X207619047Y-103880952D01*
X207428571Y-103880952D01*
X207333333Y-103928571D01*
X207285714Y-103976190D01*
X207238095Y-104071428D01*
X207238095Y-104261904D01*
X207285714Y-104357142D01*
X207333333Y-104404761D01*
X207428571Y-104452380D01*
X207619047Y-104452380D01*
X207714285Y-104404761D01*
X207761904Y-104357142D01*
X207809523Y-104261904D01*
X207809523Y-104071428D01*
X207761904Y-103976190D01*
X207714285Y-103928571D01*
X207619047Y-103880952D01*
X208428571Y-103452380D02*
X208523809Y-103452380D01*
X208619047Y-103500000D01*
X208666666Y-103547619D01*
X208714285Y-103642857D01*
X208761904Y-103833333D01*
X208761904Y-104071428D01*
X208714285Y-104261904D01*
X208666666Y-104357142D01*
X208619047Y-104404761D01*
X208523809Y-104452380D01*
X208428571Y-104452380D01*
X208333333Y-104404761D01*
X208285714Y-104357142D01*
X208238095Y-104261904D01*
X208190476Y-104071428D01*
X208190476Y-103833333D01*
X208238095Y-103642857D01*
X208285714Y-103547619D01*
X208333333Y-103500000D01*
X208428571Y-103452380D01*
X209666666Y-103452380D02*
X209190476Y-103452380D01*
X209142857Y-103928571D01*
X209190476Y-103880952D01*
X209285714Y-103833333D01*
X209523809Y-103833333D01*
X209619047Y-103880952D01*
X209666666Y-103928571D01*
X209714285Y-104023809D01*
X209714285Y-104261904D01*
X209666666Y-104357142D01*
X209619047Y-104404761D01*
X209523809Y-104452380D01*
X209285714Y-104452380D01*
X209190476Y-104404761D01*
X209142857Y-104357142D01*
X206523809Y-100452380D02*
X206619047Y-100452380D01*
X206714285Y-100500000D01*
X206761904Y-100547619D01*
X206809523Y-100642857D01*
X206857142Y-100833333D01*
X206857142Y-101071428D01*
X206809523Y-101261904D01*
X206761904Y-101357142D01*
X206714285Y-101404761D01*
X206619047Y-101452380D01*
X206523809Y-101452380D01*
X206428571Y-101404761D01*
X206380952Y-101357142D01*
X206333333Y-101261904D01*
X206285714Y-101071428D01*
X206285714Y-100833333D01*
X206333333Y-100642857D01*
X206380952Y-100547619D01*
X206428571Y-100500000D01*
X206523809Y-100452380D01*
X207714285Y-100452380D02*
X207523809Y-100452380D01*
X207428571Y-100500000D01*
X207380952Y-100547619D01*
X207285714Y-100690476D01*
X207238095Y-100880952D01*
X207238095Y-101261904D01*
X207285714Y-101357142D01*
X207333333Y-101404761D01*
X207428571Y-101452380D01*
X207619047Y-101452380D01*
X207714285Y-101404761D01*
X207761904Y-101357142D01*
X207809523Y-101261904D01*
X207809523Y-101023809D01*
X207761904Y-100928571D01*
X207714285Y-100880952D01*
X207619047Y-100833333D01*
X207428571Y-100833333D01*
X207333333Y-100880952D01*
X207285714Y-100928571D01*
X207238095Y-101023809D01*
X208428571Y-100452380D02*
X208523809Y-100452380D01*
X208619047Y-100500000D01*
X208666666Y-100547619D01*
X208714285Y-100642857D01*
X208761904Y-100833333D01*
X208761904Y-101071428D01*
X208714285Y-101261904D01*
X208666666Y-101357142D01*
X208619047Y-101404761D01*
X208523809Y-101452380D01*
X208428571Y-101452380D01*
X208333333Y-101404761D01*
X208285714Y-101357142D01*
X208238095Y-101261904D01*
X208190476Y-101071428D01*
X208190476Y-100833333D01*
X208238095Y-100642857D01*
X208285714Y-100547619D01*
X208333333Y-100500000D01*
X208428571Y-100452380D01*
X209095238Y-100452380D02*
X209714285Y-100452380D01*
X209380952Y-100833333D01*
X209523809Y-100833333D01*
X209619047Y-100880952D01*
X209666666Y-100928571D01*
X209714285Y-101023809D01*
X209714285Y-101261904D01*
X209666666Y-101357142D01*
X209619047Y-101404761D01*
X209523809Y-101452380D01*
X209238095Y-101452380D01*
X209142857Y-101404761D01*
X209095238Y-101357142D01*
X206523809Y-98452380D02*
X206619047Y-98452380D01*
X206714285Y-98500000D01*
X206761904Y-98547619D01*
X206809523Y-98642857D01*
X206857142Y-98833333D01*
X206857142Y-99071428D01*
X206809523Y-99261904D01*
X206761904Y-99357142D01*
X206714285Y-99404761D01*
X206619047Y-99452380D01*
X206523809Y-99452380D01*
X206428571Y-99404761D01*
X206380952Y-99357142D01*
X206333333Y-99261904D01*
X206285714Y-99071428D01*
X206285714Y-98833333D01*
X206333333Y-98642857D01*
X206380952Y-98547619D01*
X206428571Y-98500000D01*
X206523809Y-98452380D01*
X207714285Y-98785714D02*
X207714285Y-99452380D01*
X207476190Y-98404761D02*
X207238095Y-99119047D01*
X207857142Y-99119047D01*
X208428571Y-98452380D02*
X208523809Y-98452380D01*
X208619047Y-98500000D01*
X208666666Y-98547619D01*
X208714285Y-98642857D01*
X208761904Y-98833333D01*
X208761904Y-99071428D01*
X208714285Y-99261904D01*
X208666666Y-99357142D01*
X208619047Y-99404761D01*
X208523809Y-99452380D01*
X208428571Y-99452380D01*
X208333333Y-99404761D01*
X208285714Y-99357142D01*
X208238095Y-99261904D01*
X208190476Y-99071428D01*
X208190476Y-98833333D01*
X208238095Y-98642857D01*
X208285714Y-98547619D01*
X208333333Y-98500000D01*
X208428571Y-98452380D01*
X209142857Y-98547619D02*
X209190476Y-98500000D01*
X209285714Y-98452380D01*
X209523809Y-98452380D01*
X209619047Y-98500000D01*
X209666666Y-98547619D01*
X209714285Y-98642857D01*
X209714285Y-98738095D01*
X209666666Y-98880952D01*
X209095238Y-99452380D01*
X209714285Y-99452380D01*
X206523809Y-96452380D02*
X206619047Y-96452380D01*
X206714285Y-96500000D01*
X206761904Y-96547619D01*
X206809523Y-96642857D01*
X206857142Y-96833333D01*
X206857142Y-97071428D01*
X206809523Y-97261904D01*
X206761904Y-97357142D01*
X206714285Y-97404761D01*
X206619047Y-97452380D01*
X206523809Y-97452380D01*
X206428571Y-97404761D01*
X206380952Y-97357142D01*
X206333333Y-97261904D01*
X206285714Y-97071428D01*
X206285714Y-96833333D01*
X206333333Y-96642857D01*
X206380952Y-96547619D01*
X206428571Y-96500000D01*
X206523809Y-96452380D01*
X207238095Y-96547619D02*
X207285714Y-96500000D01*
X207380952Y-96452380D01*
X207619047Y-96452380D01*
X207714285Y-96500000D01*
X207761904Y-96547619D01*
X207809523Y-96642857D01*
X207809523Y-96738095D01*
X207761904Y-96880952D01*
X207190476Y-97452380D01*
X207809523Y-97452380D01*
X208428571Y-96452380D02*
X208523809Y-96452380D01*
X208619047Y-96500000D01*
X208666666Y-96547619D01*
X208714285Y-96642857D01*
X208761904Y-96833333D01*
X208761904Y-97071428D01*
X208714285Y-97261904D01*
X208666666Y-97357142D01*
X208619047Y-97404761D01*
X208523809Y-97452380D01*
X208428571Y-97452380D01*
X208333333Y-97404761D01*
X208285714Y-97357142D01*
X208238095Y-97261904D01*
X208190476Y-97071428D01*
X208190476Y-96833333D01*
X208238095Y-96642857D01*
X208285714Y-96547619D01*
X208333333Y-96500000D01*
X208428571Y-96452380D01*
X209714285Y-97452380D02*
X209142857Y-97452380D01*
X209428571Y-97452380D02*
X209428571Y-96452380D01*
X209333333Y-96595238D01*
X209238095Y-96690476D01*
X209142857Y-96738095D01*
X211547619Y-142809523D02*
X211500000Y-142761904D01*
X211452380Y-142666666D01*
X211452380Y-142428571D01*
X211500000Y-142333333D01*
X211547619Y-142285714D01*
X211642857Y-142238095D01*
X211738095Y-142238095D01*
X211880952Y-142285714D01*
X212452380Y-142857142D01*
X212452380Y-142238095D01*
X212404761Y-141761904D02*
X212452380Y-141761904D01*
X212547619Y-141809523D01*
X212595238Y-141857142D01*
X211452380Y-140857142D02*
X211452380Y-141333333D01*
X211928571Y-141380952D01*
X211880952Y-141333333D01*
X211833333Y-141238095D01*
X211833333Y-141000000D01*
X211880952Y-140904761D01*
X211928571Y-140857142D01*
X212023809Y-140809523D01*
X212261904Y-140809523D01*
X212357142Y-140857142D01*
X212404761Y-140904761D01*
X212452380Y-141000000D01*
X212452380Y-141238095D01*
X212404761Y-141333333D01*
X212357142Y-141380952D01*
X211785714Y-139952380D02*
X212452380Y-139952380D01*
X211404761Y-140190476D02*
X212119047Y-140428571D01*
X212119047Y-139809523D01*
X212452380Y-139428571D02*
X211785714Y-139428571D01*
X211880952Y-139428571D02*
X211833333Y-139380952D01*
X211785714Y-139285714D01*
X211785714Y-139142857D01*
X211833333Y-139047619D01*
X211928571Y-139000000D01*
X212452380Y-139000000D01*
X211928571Y-139000000D02*
X211833333Y-138952380D01*
X211785714Y-138857142D01*
X211785714Y-138714285D01*
X211833333Y-138619047D01*
X211928571Y-138571428D01*
X212452380Y-138571428D01*
X212452380Y-138095238D02*
X211785714Y-138095238D01*
X211880952Y-138095238D02*
X211833333Y-138047619D01*
X211785714Y-137952380D01*
X211785714Y-137809523D01*
X211833333Y-137714285D01*
X211928571Y-137666666D01*
X212452380Y-137666666D01*
X211928571Y-137666666D02*
X211833333Y-137619047D01*
X211785714Y-137523809D01*
X211785714Y-137380952D01*
X211833333Y-137285714D01*
X211928571Y-137238095D01*
X212452380Y-137238095D01*
X211547619Y-125619047D02*
X211500000Y-125571428D01*
X211452380Y-125476190D01*
X211452380Y-125238095D01*
X211500000Y-125142857D01*
X211547619Y-125095238D01*
X211642857Y-125047619D01*
X211738095Y-125047619D01*
X211880952Y-125095238D01*
X212452380Y-125666666D01*
X212452380Y-125047619D01*
X212452380Y-124619047D02*
X211785714Y-124619047D01*
X211880952Y-124619047D02*
X211833333Y-124571428D01*
X211785714Y-124476190D01*
X211785714Y-124333333D01*
X211833333Y-124238095D01*
X211928571Y-124190476D01*
X212452380Y-124190476D01*
X211928571Y-124190476D02*
X211833333Y-124142857D01*
X211785714Y-124047619D01*
X211785714Y-123904761D01*
X211833333Y-123809523D01*
X211928571Y-123761904D01*
X212452380Y-123761904D01*
X212452380Y-123285714D02*
X211785714Y-123285714D01*
X211880952Y-123285714D02*
X211833333Y-123238095D01*
X211785714Y-123142857D01*
X211785714Y-123000000D01*
X211833333Y-122904761D01*
X211928571Y-122857142D01*
X212452380Y-122857142D01*
X211928571Y-122857142D02*
X211833333Y-122809523D01*
X211785714Y-122714285D01*
X211785714Y-122571428D01*
X211833333Y-122476190D01*
X211928571Y-122428571D01*
X212452380Y-122428571D01*
X212452380Y-82238095D02*
X212452380Y-82809523D01*
X212452380Y-82523809D02*
X211452380Y-82523809D01*
X211595238Y-82619047D01*
X211690476Y-82714285D01*
X211738095Y-82809523D01*
X212404761Y-81761904D02*
X212452380Y-81761904D01*
X212547619Y-81809523D01*
X212595238Y-81857142D01*
X211547619Y-81380952D02*
X211500000Y-81333333D01*
X211452380Y-81238095D01*
X211452380Y-81000000D01*
X211500000Y-80904761D01*
X211547619Y-80857142D01*
X211642857Y-80809523D01*
X211738095Y-80809523D01*
X211880952Y-80857142D01*
X212452380Y-81428571D01*
X212452380Y-80809523D01*
X211452380Y-80476190D02*
X211452380Y-79809523D01*
X212452380Y-80238095D01*
X212452380Y-79428571D02*
X211785714Y-79428571D01*
X211880952Y-79428571D02*
X211833333Y-79380952D01*
X211785714Y-79285714D01*
X211785714Y-79142857D01*
X211833333Y-79047619D01*
X211928571Y-79000000D01*
X212452380Y-79000000D01*
X211928571Y-79000000D02*
X211833333Y-78952380D01*
X211785714Y-78857142D01*
X211785714Y-78714285D01*
X211833333Y-78619047D01*
X211928571Y-78571428D01*
X212452380Y-78571428D01*
X212452380Y-78095238D02*
X211785714Y-78095238D01*
X211880952Y-78095238D02*
X211833333Y-78047619D01*
X211785714Y-77952380D01*
X211785714Y-77809523D01*
X211833333Y-77714285D01*
X211928571Y-77666666D01*
X212452380Y-77666666D01*
X211928571Y-77666666D02*
X211833333Y-77619047D01*
X211785714Y-77523809D01*
X211785714Y-77380952D01*
X211833333Y-77285714D01*
X211928571Y-77238095D01*
X212452380Y-77238095D01*
X212952380Y-71547619D02*
X212952380Y-72119047D01*
X212952380Y-71833333D02*
X211952380Y-71833333D01*
X212095238Y-71928571D01*
X212190476Y-72023809D01*
X212238095Y-72119047D01*
X212952380Y-71119047D02*
X212285714Y-71119047D01*
X212380952Y-71119047D02*
X212333333Y-71071428D01*
X212285714Y-70976190D01*
X212285714Y-70833333D01*
X212333333Y-70738095D01*
X212428571Y-70690476D01*
X212952380Y-70690476D01*
X212428571Y-70690476D02*
X212333333Y-70642857D01*
X212285714Y-70547619D01*
X212285714Y-70404761D01*
X212333333Y-70309523D01*
X212428571Y-70261904D01*
X212952380Y-70261904D01*
X212952380Y-69785714D02*
X212285714Y-69785714D01*
X212380952Y-69785714D02*
X212333333Y-69738095D01*
X212285714Y-69642857D01*
X212285714Y-69500000D01*
X212333333Y-69404761D01*
X212428571Y-69357142D01*
X212952380Y-69357142D01*
X212428571Y-69357142D02*
X212333333Y-69309523D01*
X212285714Y-69214285D01*
X212285714Y-69071428D01*
X212333333Y-68976190D01*
X212428571Y-68928571D01*
X212952380Y-68928571D01*
X171582857Y-126427380D02*
X171582857Y-125427380D01*
X171582857Y-125903571D02*
X172154285Y-125903571D01*
X172154285Y-126427380D02*
X172154285Y-125427380D01*
X173201904Y-126332142D02*
X173154285Y-126379761D01*
X173011428Y-126427380D01*
X172916190Y-126427380D01*
X172773333Y-126379761D01*
X172678095Y-126284523D01*
X172630476Y-126189285D01*
X172582857Y-125998809D01*
X172582857Y-125855952D01*
X172630476Y-125665476D01*
X172678095Y-125570238D01*
X172773333Y-125475000D01*
X172916190Y-125427380D01*
X173011428Y-125427380D01*
X173154285Y-125475000D01*
X173201904Y-125522619D01*
X173630476Y-126046428D02*
X174392380Y-126046428D01*
X175297142Y-125760714D02*
X175297142Y-126427380D01*
X175059047Y-125379761D02*
X174820952Y-126094047D01*
X175440000Y-126094047D01*
X175868571Y-126427380D02*
X176059047Y-126427380D01*
X176154285Y-126379761D01*
X176201904Y-126332142D01*
X176297142Y-126189285D01*
X176344761Y-125998809D01*
X176344761Y-125617857D01*
X176297142Y-125522619D01*
X176249523Y-125475000D01*
X176154285Y-125427380D01*
X175963809Y-125427380D01*
X175868571Y-125475000D01*
X175820952Y-125522619D01*
X175773333Y-125617857D01*
X175773333Y-125855952D01*
X175820952Y-125951190D01*
X175868571Y-125998809D01*
X175963809Y-126046428D01*
X176154285Y-126046428D01*
X176249523Y-125998809D01*
X176297142Y-125951190D01*
X176344761Y-125855952D01*
X167142857Y-82004761D02*
X167285714Y-82052380D01*
X167523809Y-82052380D01*
X167619047Y-82004761D01*
X167666666Y-81957142D01*
X167714285Y-81861904D01*
X167714285Y-81766666D01*
X167666666Y-81671428D01*
X167619047Y-81623809D01*
X167523809Y-81576190D01*
X167333333Y-81528571D01*
X167238095Y-81480952D01*
X167190476Y-81433333D01*
X167142857Y-81338095D01*
X167142857Y-81242857D01*
X167190476Y-81147619D01*
X167238095Y-81100000D01*
X167333333Y-81052380D01*
X167571428Y-81052380D01*
X167714285Y-81100000D01*
X168333333Y-81052380D02*
X168523809Y-81052380D01*
X168619047Y-81100000D01*
X168714285Y-81195238D01*
X168761904Y-81385714D01*
X168761904Y-81719047D01*
X168714285Y-81909523D01*
X168619047Y-82004761D01*
X168523809Y-82052380D01*
X168333333Y-82052380D01*
X168238095Y-82004761D01*
X168142857Y-81909523D01*
X168095238Y-81719047D01*
X168095238Y-81385714D01*
X168142857Y-81195238D01*
X168238095Y-81100000D01*
X168333333Y-81052380D01*
X169047619Y-81052380D02*
X169619047Y-81052380D01*
X169333333Y-82052380D02*
X169333333Y-81052380D01*
X169952380Y-81671428D02*
X170714285Y-81671428D01*
X171142857Y-81147619D02*
X171190476Y-81100000D01*
X171285714Y-81052380D01*
X171523809Y-81052380D01*
X171619047Y-81100000D01*
X171666666Y-81147619D01*
X171714285Y-81242857D01*
X171714285Y-81338095D01*
X171666666Y-81480952D01*
X171095238Y-82052380D01*
X171714285Y-82052380D01*
X172047619Y-81052380D02*
X172666666Y-81052380D01*
X172333333Y-81433333D01*
X172476190Y-81433333D01*
X172571428Y-81480952D01*
X172619047Y-81528571D01*
X172666666Y-81623809D01*
X172666666Y-81861904D01*
X172619047Y-81957142D01*
X172571428Y-82004761D01*
X172476190Y-82052380D01*
X172190476Y-82052380D01*
X172095238Y-82004761D01*
X172047619Y-81957142D01*
X173095238Y-81671428D02*
X173857142Y-81671428D01*
X174809523Y-81052380D02*
X174333333Y-81052380D01*
X174285714Y-81528571D01*
X174333333Y-81480952D01*
X174428571Y-81433333D01*
X174666666Y-81433333D01*
X174761904Y-81480952D01*
X174809523Y-81528571D01*
X174857142Y-81623809D01*
X174857142Y-81861904D01*
X174809523Y-81957142D01*
X174761904Y-82004761D01*
X174666666Y-82052380D01*
X174428571Y-82052380D01*
X174333333Y-82004761D01*
X174285714Y-81957142D01*
X168238095Y-75904761D02*
X168380952Y-75952380D01*
X168619047Y-75952380D01*
X168714285Y-75904761D01*
X168761904Y-75857142D01*
X168809523Y-75761904D01*
X168809523Y-75666666D01*
X168761904Y-75571428D01*
X168714285Y-75523809D01*
X168619047Y-75476190D01*
X168428571Y-75428571D01*
X168333333Y-75380952D01*
X168285714Y-75333333D01*
X168238095Y-75238095D01*
X168238095Y-75142857D01*
X168285714Y-75047619D01*
X168333333Y-75000000D01*
X168428571Y-74952380D01*
X168666666Y-74952380D01*
X168809523Y-75000000D01*
X169428571Y-74952380D02*
X169619047Y-74952380D01*
X169714285Y-75000000D01*
X169809523Y-75095238D01*
X169857142Y-75285714D01*
X169857142Y-75619047D01*
X169809523Y-75809523D01*
X169714285Y-75904761D01*
X169619047Y-75952380D01*
X169428571Y-75952380D01*
X169333333Y-75904761D01*
X169238095Y-75809523D01*
X169190476Y-75619047D01*
X169190476Y-75285714D01*
X169238095Y-75095238D01*
X169333333Y-75000000D01*
X169428571Y-74952380D01*
X170142857Y-74952380D02*
X170714285Y-74952380D01*
X170428571Y-75952380D02*
X170428571Y-74952380D01*
X171047619Y-75571428D02*
X171809523Y-75571428D01*
X172238095Y-75047619D02*
X172285714Y-75000000D01*
X172380952Y-74952380D01*
X172619047Y-74952380D01*
X172714285Y-75000000D01*
X172761904Y-75047619D01*
X172809523Y-75142857D01*
X172809523Y-75238095D01*
X172761904Y-75380952D01*
X172190476Y-75952380D01*
X172809523Y-75952380D01*
X173142857Y-74952380D02*
X173761904Y-74952380D01*
X173428571Y-75333333D01*
X173571428Y-75333333D01*
X173666666Y-75380952D01*
X173714285Y-75428571D01*
X173761904Y-75523809D01*
X173761904Y-75761904D01*
X173714285Y-75857142D01*
X173666666Y-75904761D01*
X173571428Y-75952380D01*
X173285714Y-75952380D01*
X173190476Y-75904761D01*
X173142857Y-75857142D01*
X171142857Y-111952380D02*
X171714285Y-111952380D01*
X171428571Y-112952380D02*
X171428571Y-111952380D01*
X172238095Y-111952380D02*
X172428571Y-111952380D01*
X172523809Y-112000000D01*
X172619047Y-112095238D01*
X172666666Y-112285714D01*
X172666666Y-112619047D01*
X172619047Y-112809523D01*
X172523809Y-112904761D01*
X172428571Y-112952380D01*
X172238095Y-112952380D01*
X172142857Y-112904761D01*
X172047619Y-112809523D01*
X172000000Y-112619047D01*
X172000000Y-112285714D01*
X172047619Y-112095238D01*
X172142857Y-112000000D01*
X172238095Y-111952380D01*
X173095238Y-112571428D02*
X173857142Y-112571428D01*
X174285714Y-112047619D02*
X174333333Y-112000000D01*
X174428571Y-111952380D01*
X174666666Y-111952380D01*
X174761904Y-112000000D01*
X174809523Y-112047619D01*
X174857142Y-112142857D01*
X174857142Y-112238095D01*
X174809523Y-112380952D01*
X174238095Y-112952380D01*
X174857142Y-112952380D01*
X175761904Y-111952380D02*
X175285714Y-111952380D01*
X175238095Y-112428571D01*
X175285714Y-112380952D01*
X175380952Y-112333333D01*
X175619047Y-112333333D01*
X175714285Y-112380952D01*
X175761904Y-112428571D01*
X175809523Y-112523809D01*
X175809523Y-112761904D01*
X175761904Y-112857142D01*
X175714285Y-112904761D01*
X175619047Y-112952380D01*
X175380952Y-112952380D01*
X175285714Y-112904761D01*
X175238095Y-112857142D01*
X176190476Y-112047619D02*
X176238095Y-112000000D01*
X176333333Y-111952380D01*
X176571428Y-111952380D01*
X176666666Y-112000000D01*
X176714285Y-112047619D01*
X176761904Y-112142857D01*
X176761904Y-112238095D01*
X176714285Y-112380952D01*
X176142857Y-112952380D01*
X176761904Y-112952380D01*
X167571428Y-89974761D02*
X167714285Y-90022380D01*
X167952380Y-90022380D01*
X168047619Y-89974761D01*
X168095238Y-89927142D01*
X168142857Y-89831904D01*
X168142857Y-89736666D01*
X168095238Y-89641428D01*
X168047619Y-89593809D01*
X167952380Y-89546190D01*
X167761904Y-89498571D01*
X167666666Y-89450952D01*
X167619047Y-89403333D01*
X167571428Y-89308095D01*
X167571428Y-89212857D01*
X167619047Y-89117619D01*
X167666666Y-89070000D01*
X167761904Y-89022380D01*
X168000000Y-89022380D01*
X168142857Y-89070000D01*
X168761904Y-89022380D02*
X168952380Y-89022380D01*
X169047619Y-89070000D01*
X169142857Y-89165238D01*
X169190476Y-89355714D01*
X169190476Y-89689047D01*
X169142857Y-89879523D01*
X169047619Y-89974761D01*
X168952380Y-90022380D01*
X168761904Y-90022380D01*
X168666666Y-89974761D01*
X168571428Y-89879523D01*
X168523809Y-89689047D01*
X168523809Y-89355714D01*
X168571428Y-89165238D01*
X168666666Y-89070000D01*
X168761904Y-89022380D01*
X169619047Y-90022380D02*
X169619047Y-89022380D01*
X170000000Y-89022380D01*
X170095238Y-89070000D01*
X170142857Y-89117619D01*
X170190476Y-89212857D01*
X170190476Y-89355714D01*
X170142857Y-89450952D01*
X170095238Y-89498571D01*
X170000000Y-89546190D01*
X169619047Y-89546190D01*
X170619047Y-89641428D02*
X171380952Y-89641428D01*
X172000000Y-89450952D02*
X171904761Y-89403333D01*
X171857142Y-89355714D01*
X171809523Y-89260476D01*
X171809523Y-89212857D01*
X171857142Y-89117619D01*
X171904761Y-89070000D01*
X172000000Y-89022380D01*
X172190476Y-89022380D01*
X172285714Y-89070000D01*
X172333333Y-89117619D01*
X172380952Y-89212857D01*
X172380952Y-89260476D01*
X172333333Y-89355714D01*
X172285714Y-89403333D01*
X172190476Y-89450952D01*
X172000000Y-89450952D01*
X171904761Y-89498571D01*
X171857142Y-89546190D01*
X171809523Y-89641428D01*
X171809523Y-89831904D01*
X171857142Y-89927142D01*
X171904761Y-89974761D01*
X172000000Y-90022380D01*
X172190476Y-90022380D01*
X172285714Y-89974761D01*
X172333333Y-89927142D01*
X172380952Y-89831904D01*
X172380952Y-89641428D01*
X172333333Y-89546190D01*
X172285714Y-89498571D01*
X172190476Y-89450952D01*
X173523809Y-88974761D02*
X172666666Y-90260476D01*
X174380952Y-90022380D02*
X173809523Y-90022380D01*
X174095238Y-90022380D02*
X174095238Y-89022380D01*
X174000000Y-89165238D01*
X173904761Y-89260476D01*
X173809523Y-89308095D01*
X174809523Y-89927142D02*
X174857142Y-89974761D01*
X174809523Y-90022380D01*
X174761904Y-89974761D01*
X174809523Y-89927142D01*
X174809523Y-90022380D01*
X175238095Y-89117619D02*
X175285714Y-89070000D01*
X175380952Y-89022380D01*
X175619047Y-89022380D01*
X175714285Y-89070000D01*
X175761904Y-89117619D01*
X175809523Y-89212857D01*
X175809523Y-89308095D01*
X175761904Y-89450952D01*
X175190476Y-90022380D01*
X175809523Y-90022380D01*
X176142857Y-89022380D02*
X176809523Y-89022380D01*
X176380952Y-90022380D01*
X177190476Y-90022380D02*
X177190476Y-89355714D01*
X177190476Y-89450952D02*
X177238095Y-89403333D01*
X177333333Y-89355714D01*
X177476190Y-89355714D01*
X177571428Y-89403333D01*
X177619047Y-89498571D01*
X177619047Y-90022380D01*
X177619047Y-89498571D02*
X177666666Y-89403333D01*
X177761904Y-89355714D01*
X177904761Y-89355714D01*
X178000000Y-89403333D01*
X178047619Y-89498571D01*
X178047619Y-90022380D01*
X178523809Y-90022380D02*
X178523809Y-89355714D01*
X178523809Y-89450952D02*
X178571428Y-89403333D01*
X178666666Y-89355714D01*
X178809523Y-89355714D01*
X178904761Y-89403333D01*
X178952380Y-89498571D01*
X178952380Y-90022380D01*
X178952380Y-89498571D02*
X179000000Y-89403333D01*
X179095238Y-89355714D01*
X179238095Y-89355714D01*
X179333333Y-89403333D01*
X179380952Y-89498571D01*
X179380952Y-90022380D01*
X167142857Y-99452380D02*
X167714285Y-99452380D01*
X167428571Y-100452380D02*
X167428571Y-99452380D01*
X168000000Y-100404761D02*
X168142857Y-100452380D01*
X168380952Y-100452380D01*
X168476190Y-100404761D01*
X168523809Y-100357142D01*
X168571428Y-100261904D01*
X168571428Y-100166666D01*
X168523809Y-100071428D01*
X168476190Y-100023809D01*
X168380952Y-99976190D01*
X168190476Y-99928571D01*
X168095238Y-99880952D01*
X168047619Y-99833333D01*
X168000000Y-99738095D01*
X168000000Y-99642857D01*
X168047619Y-99547619D01*
X168095238Y-99500000D01*
X168190476Y-99452380D01*
X168428571Y-99452380D01*
X168571428Y-99500000D01*
X168952380Y-100404761D02*
X169095238Y-100452380D01*
X169333333Y-100452380D01*
X169428571Y-100404761D01*
X169476190Y-100357142D01*
X169523809Y-100261904D01*
X169523809Y-100166666D01*
X169476190Y-100071428D01*
X169428571Y-100023809D01*
X169333333Y-99976190D01*
X169142857Y-99928571D01*
X169047619Y-99880952D01*
X169000000Y-99833333D01*
X168952380Y-99738095D01*
X168952380Y-99642857D01*
X169000000Y-99547619D01*
X169047619Y-99500000D01*
X169142857Y-99452380D01*
X169380952Y-99452380D01*
X169523809Y-99500000D01*
X170142857Y-99452380D02*
X170333333Y-99452380D01*
X170428571Y-99500000D01*
X170523809Y-99595238D01*
X170571428Y-99785714D01*
X170571428Y-100119047D01*
X170523809Y-100309523D01*
X170428571Y-100404761D01*
X170333333Y-100452380D01*
X170142857Y-100452380D01*
X170047619Y-100404761D01*
X169952380Y-100309523D01*
X169904761Y-100119047D01*
X169904761Y-99785714D01*
X169952380Y-99595238D01*
X170047619Y-99500000D01*
X170142857Y-99452380D01*
X171000000Y-100452380D02*
X171000000Y-99452380D01*
X171380952Y-99452380D01*
X171476190Y-99500000D01*
X171523809Y-99547619D01*
X171571428Y-99642857D01*
X171571428Y-99785714D01*
X171523809Y-99880952D01*
X171476190Y-99928571D01*
X171380952Y-99976190D01*
X171000000Y-99976190D01*
X172000000Y-100071428D02*
X172761904Y-100071428D01*
X173190476Y-99547619D02*
X173238095Y-99500000D01*
X173333333Y-99452380D01*
X173571428Y-99452380D01*
X173666666Y-99500000D01*
X173714285Y-99547619D01*
X173761904Y-99642857D01*
X173761904Y-99738095D01*
X173714285Y-99880952D01*
X173142857Y-100452380D01*
X173761904Y-100452380D01*
X174380952Y-99452380D02*
X174476190Y-99452380D01*
X174571428Y-99500000D01*
X174619047Y-99547619D01*
X174666666Y-99642857D01*
X174714285Y-99833333D01*
X174714285Y-100071428D01*
X174666666Y-100261904D01*
X174619047Y-100357142D01*
X174571428Y-100404761D01*
X174476190Y-100452380D01*
X174380952Y-100452380D01*
X174285714Y-100404761D01*
X174238095Y-100357142D01*
X174190476Y-100261904D01*
X174142857Y-100071428D01*
X174142857Y-99833333D01*
X174190476Y-99642857D01*
X174238095Y-99547619D01*
X174285714Y-99500000D01*
X174380952Y-99452380D01*
X175857142Y-99404761D02*
X175000000Y-100690476D01*
X176380952Y-99452380D02*
X176476190Y-99452380D01*
X176571428Y-99500000D01*
X176619047Y-99547619D01*
X176666666Y-99642857D01*
X176714285Y-99833333D01*
X176714285Y-100071428D01*
X176666666Y-100261904D01*
X176619047Y-100357142D01*
X176571428Y-100404761D01*
X176476190Y-100452380D01*
X176380952Y-100452380D01*
X176285714Y-100404761D01*
X176238095Y-100357142D01*
X176190476Y-100261904D01*
X176142857Y-100071428D01*
X176142857Y-99833333D01*
X176190476Y-99642857D01*
X176238095Y-99547619D01*
X176285714Y-99500000D01*
X176380952Y-99452380D01*
X177142857Y-100357142D02*
X177190476Y-100404761D01*
X177142857Y-100452380D01*
X177095238Y-100404761D01*
X177142857Y-100357142D01*
X177142857Y-100452380D01*
X178047619Y-99452380D02*
X177857142Y-99452380D01*
X177761904Y-99500000D01*
X177714285Y-99547619D01*
X177619047Y-99690476D01*
X177571428Y-99880952D01*
X177571428Y-100261904D01*
X177619047Y-100357142D01*
X177666666Y-100404761D01*
X177761904Y-100452380D01*
X177952380Y-100452380D01*
X178047619Y-100404761D01*
X178095238Y-100357142D01*
X178142857Y-100261904D01*
X178142857Y-100023809D01*
X178095238Y-99928571D01*
X178047619Y-99880952D01*
X177952380Y-99833333D01*
X177761904Y-99833333D01*
X177666666Y-99880952D01*
X177619047Y-99928571D01*
X177571428Y-100023809D01*
X179047619Y-99452380D02*
X178571428Y-99452380D01*
X178523809Y-99928571D01*
X178571428Y-99880952D01*
X178666666Y-99833333D01*
X178904761Y-99833333D01*
X179000000Y-99880952D01*
X179047619Y-99928571D01*
X179095238Y-100023809D01*
X179095238Y-100261904D01*
X179047619Y-100357142D01*
X179000000Y-100404761D01*
X178904761Y-100452380D01*
X178666666Y-100452380D01*
X178571428Y-100404761D01*
X178523809Y-100357142D01*
X179523809Y-100452380D02*
X179523809Y-99785714D01*
X179523809Y-99880952D02*
X179571428Y-99833333D01*
X179666666Y-99785714D01*
X179809523Y-99785714D01*
X179904761Y-99833333D01*
X179952380Y-99928571D01*
X179952380Y-100452380D01*
X179952380Y-99928571D02*
X180000000Y-99833333D01*
X180095238Y-99785714D01*
X180238095Y-99785714D01*
X180333333Y-99833333D01*
X180380952Y-99928571D01*
X180380952Y-100452380D01*
X180857142Y-100452380D02*
X180857142Y-99785714D01*
X180857142Y-99880952D02*
X180904761Y-99833333D01*
X181000000Y-99785714D01*
X181142857Y-99785714D01*
X181238095Y-99833333D01*
X181285714Y-99928571D01*
X181285714Y-100452380D01*
X181285714Y-99928571D02*
X181333333Y-99833333D01*
X181428571Y-99785714D01*
X181571428Y-99785714D01*
X181666666Y-99833333D01*
X181714285Y-99928571D01*
X181714285Y-100452380D01*
X167261904Y-68752380D02*
X166785714Y-68752380D01*
X166785714Y-67752380D01*
X168119047Y-67800000D02*
X168023809Y-67752380D01*
X167880952Y-67752380D01*
X167738095Y-67800000D01*
X167642857Y-67895238D01*
X167595238Y-67990476D01*
X167547619Y-68180952D01*
X167547619Y-68323809D01*
X167595238Y-68514285D01*
X167642857Y-68609523D01*
X167738095Y-68704761D01*
X167880952Y-68752380D01*
X167976190Y-68752380D01*
X168119047Y-68704761D01*
X168166666Y-68657142D01*
X168166666Y-68323809D01*
X167976190Y-68323809D01*
X168547619Y-68466666D02*
X169023809Y-68466666D01*
X168452380Y-68752380D02*
X168785714Y-67752380D01*
X169119047Y-68752380D01*
X169452380Y-68371428D02*
X170214285Y-68371428D01*
X171214285Y-68752380D02*
X170642857Y-68752380D01*
X170928571Y-68752380D02*
X170928571Y-67752380D01*
X170833333Y-67895238D01*
X170738095Y-67990476D01*
X170642857Y-68038095D01*
X172071428Y-67752380D02*
X171880952Y-67752380D01*
X171785714Y-67800000D01*
X171738095Y-67847619D01*
X171642857Y-67990476D01*
X171595238Y-68180952D01*
X171595238Y-68561904D01*
X171642857Y-68657142D01*
X171690476Y-68704761D01*
X171785714Y-68752380D01*
X171976190Y-68752380D01*
X172071428Y-68704761D01*
X172119047Y-68657142D01*
X172166666Y-68561904D01*
X172166666Y-68323809D01*
X172119047Y-68228571D01*
X172071428Y-68180952D01*
X171976190Y-68133333D01*
X171785714Y-68133333D01*
X171690476Y-68180952D01*
X171642857Y-68228571D01*
X171595238Y-68323809D01*
X173309523Y-67704761D02*
X172452380Y-68990476D01*
X173833333Y-67752380D02*
X173928571Y-67752380D01*
X174023809Y-67800000D01*
X174071428Y-67847619D01*
X174119047Y-67942857D01*
X174166666Y-68133333D01*
X174166666Y-68371428D01*
X174119047Y-68561904D01*
X174071428Y-68657142D01*
X174023809Y-68704761D01*
X173928571Y-68752380D01*
X173833333Y-68752380D01*
X173738095Y-68704761D01*
X173690476Y-68657142D01*
X173642857Y-68561904D01*
X173595238Y-68371428D01*
X173595238Y-68133333D01*
X173642857Y-67942857D01*
X173690476Y-67847619D01*
X173738095Y-67800000D01*
X173833333Y-67752380D01*
X174595238Y-68657142D02*
X174642857Y-68704761D01*
X174595238Y-68752380D01*
X174547619Y-68704761D01*
X174595238Y-68657142D01*
X174595238Y-68752380D01*
X175547619Y-67752380D02*
X175071428Y-67752380D01*
X175023809Y-68228571D01*
X175071428Y-68180952D01*
X175166666Y-68133333D01*
X175404761Y-68133333D01*
X175500000Y-68180952D01*
X175547619Y-68228571D01*
X175595238Y-68323809D01*
X175595238Y-68561904D01*
X175547619Y-68657142D01*
X175500000Y-68704761D01*
X175404761Y-68752380D01*
X175166666Y-68752380D01*
X175071428Y-68704761D01*
X175023809Y-68657142D01*
X176023809Y-68752380D02*
X176023809Y-68085714D01*
X176023809Y-68180952D02*
X176071428Y-68133333D01*
X176166666Y-68085714D01*
X176309523Y-68085714D01*
X176404761Y-68133333D01*
X176452380Y-68228571D01*
X176452380Y-68752380D01*
X176452380Y-68228571D02*
X176500000Y-68133333D01*
X176595238Y-68085714D01*
X176738095Y-68085714D01*
X176833333Y-68133333D01*
X176880952Y-68228571D01*
X176880952Y-68752380D01*
X177357142Y-68752380D02*
X177357142Y-68085714D01*
X177357142Y-68180952D02*
X177404761Y-68133333D01*
X177500000Y-68085714D01*
X177642857Y-68085714D01*
X177738095Y-68133333D01*
X177785714Y-68228571D01*
X177785714Y-68752380D01*
X177785714Y-68228571D02*
X177833333Y-68133333D01*
X177928571Y-68085714D01*
X178071428Y-68085714D01*
X178166666Y-68133333D01*
X178214285Y-68228571D01*
X178214285Y-68752380D01*
X164761904Y-61987380D02*
X164285714Y-61987380D01*
X164285714Y-60987380D01*
X165619047Y-61035000D02*
X165523809Y-60987380D01*
X165380952Y-60987380D01*
X165238095Y-61035000D01*
X165142857Y-61130238D01*
X165095238Y-61225476D01*
X165047619Y-61415952D01*
X165047619Y-61558809D01*
X165095238Y-61749285D01*
X165142857Y-61844523D01*
X165238095Y-61939761D01*
X165380952Y-61987380D01*
X165476190Y-61987380D01*
X165619047Y-61939761D01*
X165666666Y-61892142D01*
X165666666Y-61558809D01*
X165476190Y-61558809D01*
X166047619Y-61701666D02*
X166523809Y-61701666D01*
X165952380Y-61987380D02*
X166285714Y-60987380D01*
X166619047Y-61987380D01*
X166952380Y-61606428D02*
X167714285Y-61606428D01*
X168333333Y-61415952D02*
X168238095Y-61368333D01*
X168190476Y-61320714D01*
X168142857Y-61225476D01*
X168142857Y-61177857D01*
X168190476Y-61082619D01*
X168238095Y-61035000D01*
X168333333Y-60987380D01*
X168523809Y-60987380D01*
X168619047Y-61035000D01*
X168666666Y-61082619D01*
X168714285Y-61177857D01*
X168714285Y-61225476D01*
X168666666Y-61320714D01*
X168619047Y-61368333D01*
X168523809Y-61415952D01*
X168333333Y-61415952D01*
X168238095Y-61463571D01*
X168190476Y-61511190D01*
X168142857Y-61606428D01*
X168142857Y-61796904D01*
X168190476Y-61892142D01*
X168238095Y-61939761D01*
X168333333Y-61987380D01*
X168523809Y-61987380D01*
X168619047Y-61939761D01*
X168666666Y-61892142D01*
X168714285Y-61796904D01*
X168714285Y-61606428D01*
X168666666Y-61511190D01*
X168619047Y-61463571D01*
X168523809Y-61415952D01*
X169857142Y-60939761D02*
X169000000Y-62225476D01*
X170380952Y-60987380D02*
X170476190Y-60987380D01*
X170571428Y-61035000D01*
X170619047Y-61082619D01*
X170666666Y-61177857D01*
X170714285Y-61368333D01*
X170714285Y-61606428D01*
X170666666Y-61796904D01*
X170619047Y-61892142D01*
X170571428Y-61939761D01*
X170476190Y-61987380D01*
X170380952Y-61987380D01*
X170285714Y-61939761D01*
X170238095Y-61892142D01*
X170190476Y-61796904D01*
X170142857Y-61606428D01*
X170142857Y-61368333D01*
X170190476Y-61177857D01*
X170238095Y-61082619D01*
X170285714Y-61035000D01*
X170380952Y-60987380D01*
X171142857Y-61892142D02*
X171190476Y-61939761D01*
X171142857Y-61987380D01*
X171095238Y-61939761D01*
X171142857Y-61892142D01*
X171142857Y-61987380D01*
X172047619Y-60987380D02*
X171857142Y-60987380D01*
X171761904Y-61035000D01*
X171714285Y-61082619D01*
X171619047Y-61225476D01*
X171571428Y-61415952D01*
X171571428Y-61796904D01*
X171619047Y-61892142D01*
X171666666Y-61939761D01*
X171761904Y-61987380D01*
X171952380Y-61987380D01*
X172047619Y-61939761D01*
X172095238Y-61892142D01*
X172142857Y-61796904D01*
X172142857Y-61558809D01*
X172095238Y-61463571D01*
X172047619Y-61415952D01*
X171952380Y-61368333D01*
X171761904Y-61368333D01*
X171666666Y-61415952D01*
X171619047Y-61463571D01*
X171571428Y-61558809D01*
X173047619Y-60987380D02*
X172571428Y-60987380D01*
X172523809Y-61463571D01*
X172571428Y-61415952D01*
X172666666Y-61368333D01*
X172904761Y-61368333D01*
X173000000Y-61415952D01*
X173047619Y-61463571D01*
X173095238Y-61558809D01*
X173095238Y-61796904D01*
X173047619Y-61892142D01*
X173000000Y-61939761D01*
X172904761Y-61987380D01*
X172666666Y-61987380D01*
X172571428Y-61939761D01*
X172523809Y-61892142D01*
X173523809Y-61987380D02*
X173523809Y-61320714D01*
X173523809Y-61415952D02*
X173571428Y-61368333D01*
X173666666Y-61320714D01*
X173809523Y-61320714D01*
X173904761Y-61368333D01*
X173952380Y-61463571D01*
X173952380Y-61987380D01*
X173952380Y-61463571D02*
X174000000Y-61368333D01*
X174095238Y-61320714D01*
X174238095Y-61320714D01*
X174333333Y-61368333D01*
X174380952Y-61463571D01*
X174380952Y-61987380D01*
X174857142Y-61987380D02*
X174857142Y-61320714D01*
X174857142Y-61415952D02*
X174904761Y-61368333D01*
X175000000Y-61320714D01*
X175142857Y-61320714D01*
X175238095Y-61368333D01*
X175285714Y-61463571D01*
X175285714Y-61987380D01*
X175285714Y-61463571D02*
X175333333Y-61368333D01*
X175428571Y-61320714D01*
X175571428Y-61320714D01*
X175666666Y-61368333D01*
X175714285Y-61463571D01*
X175714285Y-61987380D01*
X183238095Y-113602380D02*
X182761904Y-113602380D01*
X182761904Y-112602380D01*
X184238095Y-113697619D02*
X184142857Y-113650000D01*
X184047619Y-113554761D01*
X183904761Y-113411904D01*
X183809523Y-113364285D01*
X183714285Y-113364285D01*
X183761904Y-113602380D02*
X183666666Y-113554761D01*
X183571428Y-113459523D01*
X183523809Y-113269047D01*
X183523809Y-112935714D01*
X183571428Y-112745238D01*
X183666666Y-112650000D01*
X183761904Y-112602380D01*
X183952380Y-112602380D01*
X184047619Y-112650000D01*
X184142857Y-112745238D01*
X184190476Y-112935714D01*
X184190476Y-113269047D01*
X184142857Y-113459523D01*
X184047619Y-113554761D01*
X183952380Y-113602380D01*
X183761904Y-113602380D01*
X184952380Y-113078571D02*
X184619047Y-113078571D01*
X184619047Y-113602380D02*
X184619047Y-112602380D01*
X185095238Y-112602380D01*
X185476190Y-113602380D02*
X185476190Y-112602380D01*
X185857142Y-112602380D01*
X185952380Y-112650000D01*
X186000000Y-112697619D01*
X186047619Y-112792857D01*
X186047619Y-112935714D01*
X186000000Y-113030952D01*
X185952380Y-113078571D01*
X185857142Y-113126190D01*
X185476190Y-113126190D01*
X186476190Y-113221428D02*
X187238095Y-113221428D01*
X188142857Y-112935714D02*
X188142857Y-113602380D01*
X187904761Y-112554761D02*
X187666666Y-113269047D01*
X188285714Y-113269047D01*
X188809523Y-113030952D02*
X188714285Y-112983333D01*
X188666666Y-112935714D01*
X188619047Y-112840476D01*
X188619047Y-112792857D01*
X188666666Y-112697619D01*
X188714285Y-112650000D01*
X188809523Y-112602380D01*
X189000000Y-112602380D01*
X189095238Y-112650000D01*
X189142857Y-112697619D01*
X189190476Y-112792857D01*
X189190476Y-112840476D01*
X189142857Y-112935714D01*
X189095238Y-112983333D01*
X189000000Y-113030952D01*
X188809523Y-113030952D01*
X188714285Y-113078571D01*
X188666666Y-113126190D01*
X188619047Y-113221428D01*
X188619047Y-113411904D01*
X188666666Y-113507142D01*
X188714285Y-113554761D01*
X188809523Y-113602380D01*
X189000000Y-113602380D01*
X189095238Y-113554761D01*
X189142857Y-113507142D01*
X189190476Y-113411904D01*
X189190476Y-113221428D01*
X189142857Y-113126190D01*
X189095238Y-113078571D01*
X189000000Y-113030952D01*
X190333333Y-112554761D02*
X189476190Y-113840476D01*
X190857142Y-112602380D02*
X190952380Y-112602380D01*
X191047619Y-112650000D01*
X191095238Y-112697619D01*
X191142857Y-112792857D01*
X191190476Y-112983333D01*
X191190476Y-113221428D01*
X191142857Y-113411904D01*
X191095238Y-113507142D01*
X191047619Y-113554761D01*
X190952380Y-113602380D01*
X190857142Y-113602380D01*
X190761904Y-113554761D01*
X190714285Y-113507142D01*
X190666666Y-113411904D01*
X190619047Y-113221428D01*
X190619047Y-112983333D01*
X190666666Y-112792857D01*
X190714285Y-112697619D01*
X190761904Y-112650000D01*
X190857142Y-112602380D01*
X191619047Y-113507142D02*
X191666666Y-113554761D01*
X191619047Y-113602380D01*
X191571428Y-113554761D01*
X191619047Y-113507142D01*
X191619047Y-113602380D01*
X192571428Y-112602380D02*
X192095238Y-112602380D01*
X192047619Y-113078571D01*
X192095238Y-113030952D01*
X192190476Y-112983333D01*
X192428571Y-112983333D01*
X192523809Y-113030952D01*
X192571428Y-113078571D01*
X192619047Y-113173809D01*
X192619047Y-113411904D01*
X192571428Y-113507142D01*
X192523809Y-113554761D01*
X192428571Y-113602380D01*
X192190476Y-113602380D01*
X192095238Y-113554761D01*
X192047619Y-113507142D01*
X193047619Y-113602380D02*
X193047619Y-112935714D01*
X193047619Y-113030952D02*
X193095238Y-112983333D01*
X193190476Y-112935714D01*
X193333333Y-112935714D01*
X193428571Y-112983333D01*
X193476190Y-113078571D01*
X193476190Y-113602380D01*
X193476190Y-113078571D02*
X193523809Y-112983333D01*
X193619047Y-112935714D01*
X193761904Y-112935714D01*
X193857142Y-112983333D01*
X193904761Y-113078571D01*
X193904761Y-113602380D01*
X194380952Y-113602380D02*
X194380952Y-112935714D01*
X194380952Y-113030952D02*
X194428571Y-112983333D01*
X194523809Y-112935714D01*
X194666666Y-112935714D01*
X194761904Y-112983333D01*
X194809523Y-113078571D01*
X194809523Y-113602380D01*
X194809523Y-113078571D02*
X194857142Y-112983333D01*
X194952380Y-112935714D01*
X195095238Y-112935714D01*
X195190476Y-112983333D01*
X195238095Y-113078571D01*
X195238095Y-113602380D01*
X183238095Y-83572380D02*
X182761904Y-83572380D01*
X182761904Y-82572380D01*
X184238095Y-83667619D02*
X184142857Y-83620000D01*
X184047619Y-83524761D01*
X183904761Y-83381904D01*
X183809523Y-83334285D01*
X183714285Y-83334285D01*
X183761904Y-83572380D02*
X183666666Y-83524761D01*
X183571428Y-83429523D01*
X183523809Y-83239047D01*
X183523809Y-82905714D01*
X183571428Y-82715238D01*
X183666666Y-82620000D01*
X183761904Y-82572380D01*
X183952380Y-82572380D01*
X184047619Y-82620000D01*
X184142857Y-82715238D01*
X184190476Y-82905714D01*
X184190476Y-83239047D01*
X184142857Y-83429523D01*
X184047619Y-83524761D01*
X183952380Y-83572380D01*
X183761904Y-83572380D01*
X184952380Y-83048571D02*
X184619047Y-83048571D01*
X184619047Y-83572380D02*
X184619047Y-82572380D01*
X185095238Y-82572380D01*
X185476190Y-83572380D02*
X185476190Y-82572380D01*
X185857142Y-82572380D01*
X185952380Y-82620000D01*
X186000000Y-82667619D01*
X186047619Y-82762857D01*
X186047619Y-82905714D01*
X186000000Y-83000952D01*
X185952380Y-83048571D01*
X185857142Y-83096190D01*
X185476190Y-83096190D01*
X186476190Y-83191428D02*
X187238095Y-83191428D01*
X187619047Y-82572380D02*
X188238095Y-82572380D01*
X187904761Y-82953333D01*
X188047619Y-82953333D01*
X188142857Y-83000952D01*
X188190476Y-83048571D01*
X188238095Y-83143809D01*
X188238095Y-83381904D01*
X188190476Y-83477142D01*
X188142857Y-83524761D01*
X188047619Y-83572380D01*
X187761904Y-83572380D01*
X187666666Y-83524761D01*
X187619047Y-83477142D01*
X188619047Y-82667619D02*
X188666666Y-82620000D01*
X188761904Y-82572380D01*
X189000000Y-82572380D01*
X189095238Y-82620000D01*
X189142857Y-82667619D01*
X189190476Y-82762857D01*
X189190476Y-82858095D01*
X189142857Y-83000952D01*
X188571428Y-83572380D01*
X189190476Y-83572380D01*
X190333333Y-82524761D02*
X189476190Y-83810476D01*
X190857142Y-82572380D02*
X190952380Y-82572380D01*
X191047619Y-82620000D01*
X191095238Y-82667619D01*
X191142857Y-82762857D01*
X191190476Y-82953333D01*
X191190476Y-83191428D01*
X191142857Y-83381904D01*
X191095238Y-83477142D01*
X191047619Y-83524761D01*
X190952380Y-83572380D01*
X190857142Y-83572380D01*
X190761904Y-83524761D01*
X190714285Y-83477142D01*
X190666666Y-83381904D01*
X190619047Y-83191428D01*
X190619047Y-82953333D01*
X190666666Y-82762857D01*
X190714285Y-82667619D01*
X190761904Y-82620000D01*
X190857142Y-82572380D01*
X191619047Y-83477142D02*
X191666666Y-83524761D01*
X191619047Y-83572380D01*
X191571428Y-83524761D01*
X191619047Y-83477142D01*
X191619047Y-83572380D01*
X192238095Y-83000952D02*
X192142857Y-82953333D01*
X192095238Y-82905714D01*
X192047619Y-82810476D01*
X192047619Y-82762857D01*
X192095238Y-82667619D01*
X192142857Y-82620000D01*
X192238095Y-82572380D01*
X192428571Y-82572380D01*
X192523809Y-82620000D01*
X192571428Y-82667619D01*
X192619047Y-82762857D01*
X192619047Y-82810476D01*
X192571428Y-82905714D01*
X192523809Y-82953333D01*
X192428571Y-83000952D01*
X192238095Y-83000952D01*
X192142857Y-83048571D01*
X192095238Y-83096190D01*
X192047619Y-83191428D01*
X192047619Y-83381904D01*
X192095238Y-83477142D01*
X192142857Y-83524761D01*
X192238095Y-83572380D01*
X192428571Y-83572380D01*
X192523809Y-83524761D01*
X192571428Y-83477142D01*
X192619047Y-83381904D01*
X192619047Y-83191428D01*
X192571428Y-83096190D01*
X192523809Y-83048571D01*
X192428571Y-83000952D01*
X193047619Y-83572380D02*
X193047619Y-82905714D01*
X193047619Y-83000952D02*
X193095238Y-82953333D01*
X193190476Y-82905714D01*
X193333333Y-82905714D01*
X193428571Y-82953333D01*
X193476190Y-83048571D01*
X193476190Y-83572380D01*
X193476190Y-83048571D02*
X193523809Y-82953333D01*
X193619047Y-82905714D01*
X193761904Y-82905714D01*
X193857142Y-82953333D01*
X193904761Y-83048571D01*
X193904761Y-83572380D01*
X194380952Y-83572380D02*
X194380952Y-82905714D01*
X194380952Y-83000952D02*
X194428571Y-82953333D01*
X194523809Y-82905714D01*
X194666666Y-82905714D01*
X194761904Y-82953333D01*
X194809523Y-83048571D01*
X194809523Y-83572380D01*
X194809523Y-83048571D02*
X194857142Y-82953333D01*
X194952380Y-82905714D01*
X195095238Y-82905714D01*
X195190476Y-82953333D01*
X195238095Y-83048571D01*
X195238095Y-83572380D01*
X183238095Y-97052380D02*
X182761904Y-97052380D01*
X182761904Y-96052380D01*
X184238095Y-97147619D02*
X184142857Y-97100000D01*
X184047619Y-97004761D01*
X183904761Y-96861904D01*
X183809523Y-96814285D01*
X183714285Y-96814285D01*
X183761904Y-97052380D02*
X183666666Y-97004761D01*
X183571428Y-96909523D01*
X183523809Y-96719047D01*
X183523809Y-96385714D01*
X183571428Y-96195238D01*
X183666666Y-96100000D01*
X183761904Y-96052380D01*
X183952380Y-96052380D01*
X184047619Y-96100000D01*
X184142857Y-96195238D01*
X184190476Y-96385714D01*
X184190476Y-96719047D01*
X184142857Y-96909523D01*
X184047619Y-97004761D01*
X183952380Y-97052380D01*
X183761904Y-97052380D01*
X184952380Y-96528571D02*
X184619047Y-96528571D01*
X184619047Y-97052380D02*
X184619047Y-96052380D01*
X185095238Y-96052380D01*
X185476190Y-97052380D02*
X185476190Y-96052380D01*
X185857142Y-96052380D01*
X185952380Y-96100000D01*
X186000000Y-96147619D01*
X186047619Y-96242857D01*
X186047619Y-96385714D01*
X186000000Y-96480952D01*
X185952380Y-96528571D01*
X185857142Y-96576190D01*
X185476190Y-96576190D01*
X186476190Y-96671428D02*
X187238095Y-96671428D01*
X188142857Y-96052380D02*
X187952380Y-96052380D01*
X187857142Y-96100000D01*
X187809523Y-96147619D01*
X187714285Y-96290476D01*
X187666666Y-96480952D01*
X187666666Y-96861904D01*
X187714285Y-96957142D01*
X187761904Y-97004761D01*
X187857142Y-97052380D01*
X188047619Y-97052380D01*
X188142857Y-97004761D01*
X188190476Y-96957142D01*
X188238095Y-96861904D01*
X188238095Y-96623809D01*
X188190476Y-96528571D01*
X188142857Y-96480952D01*
X188047619Y-96433333D01*
X187857142Y-96433333D01*
X187761904Y-96480952D01*
X187714285Y-96528571D01*
X187666666Y-96623809D01*
X189095238Y-96385714D02*
X189095238Y-97052380D01*
X188857142Y-96004761D02*
X188619047Y-96719047D01*
X189238095Y-96719047D01*
X190333333Y-96004761D02*
X189476190Y-97290476D01*
X190857142Y-96052380D02*
X190952380Y-96052380D01*
X191047619Y-96100000D01*
X191095238Y-96147619D01*
X191142857Y-96242857D01*
X191190476Y-96433333D01*
X191190476Y-96671428D01*
X191142857Y-96861904D01*
X191095238Y-96957142D01*
X191047619Y-97004761D01*
X190952380Y-97052380D01*
X190857142Y-97052380D01*
X190761904Y-97004761D01*
X190714285Y-96957142D01*
X190666666Y-96861904D01*
X190619047Y-96671428D01*
X190619047Y-96433333D01*
X190666666Y-96242857D01*
X190714285Y-96147619D01*
X190761904Y-96100000D01*
X190857142Y-96052380D01*
X191619047Y-96957142D02*
X191666666Y-97004761D01*
X191619047Y-97052380D01*
X191571428Y-97004761D01*
X191619047Y-96957142D01*
X191619047Y-97052380D01*
X192571428Y-96052380D02*
X192095238Y-96052380D01*
X192047619Y-96528571D01*
X192095238Y-96480952D01*
X192190476Y-96433333D01*
X192428571Y-96433333D01*
X192523809Y-96480952D01*
X192571428Y-96528571D01*
X192619047Y-96623809D01*
X192619047Y-96861904D01*
X192571428Y-96957142D01*
X192523809Y-97004761D01*
X192428571Y-97052380D01*
X192190476Y-97052380D01*
X192095238Y-97004761D01*
X192047619Y-96957142D01*
X193047619Y-97052380D02*
X193047619Y-96385714D01*
X193047619Y-96480952D02*
X193095238Y-96433333D01*
X193190476Y-96385714D01*
X193333333Y-96385714D01*
X193428571Y-96433333D01*
X193476190Y-96528571D01*
X193476190Y-97052380D01*
X193476190Y-96528571D02*
X193523809Y-96433333D01*
X193619047Y-96385714D01*
X193761904Y-96385714D01*
X193857142Y-96433333D01*
X193904761Y-96528571D01*
X193904761Y-97052380D01*
X194380952Y-97052380D02*
X194380952Y-96385714D01*
X194380952Y-96480952D02*
X194428571Y-96433333D01*
X194523809Y-96385714D01*
X194666666Y-96385714D01*
X194761904Y-96433333D01*
X194809523Y-96528571D01*
X194809523Y-97052380D01*
X194809523Y-96528571D02*
X194857142Y-96433333D01*
X194952380Y-96385714D01*
X195095238Y-96385714D01*
X195190476Y-96433333D01*
X195238095Y-96528571D01*
X195238095Y-97052380D01*
M02*
