G04 #@! TF.GenerationSoftware,KiCad,Pcbnew,5.1.8-1.fc33*
G04 #@! TF.CreationDate,2021-01-13T18:10:52+01:00*
G04 #@! TF.ProjectId,holder,686f6c64-6572-42e6-9b69-6361645f7063,rev?*
G04 #@! TF.SameCoordinates,Original*
G04 #@! TF.FileFunction,Legend,Bot*
G04 #@! TF.FilePolarity,Positive*
%FSLAX46Y46*%
G04 Gerber Fmt 4.6, Leading zero omitted, Abs format (unit mm)*
G04 Created by KiCad (PCBNEW 5.1.8-1.fc33) date 2021-01-13 18:10:52*
%MOMM*%
%LPD*%
G01*
G04 APERTURE LIST*
%ADD10C,0.120000*%
%ADD11C,0.150000*%
G04 APERTURE END LIST*
D10*
X179900000Y-111100000D02*
X179500000Y-111500000D01*
X180500000Y-111000000D02*
X179900000Y-111100000D01*
X180000000Y-110500000D02*
X179900000Y-111100000D01*
X180500000Y-111000000D02*
X180000000Y-110500000D01*
D11*
X179190476Y-103357142D02*
X179238095Y-103404761D01*
X179380952Y-103452380D01*
X179476190Y-103452380D01*
X179619047Y-103404761D01*
X179714285Y-103309523D01*
X179761904Y-103214285D01*
X179809523Y-103023809D01*
X179809523Y-102880952D01*
X179761904Y-102690476D01*
X179714285Y-102595238D01*
X179619047Y-102500000D01*
X179476190Y-102452380D01*
X179380952Y-102452380D01*
X179238095Y-102500000D01*
X179190476Y-102547619D01*
X184238095Y-103166666D02*
X183761904Y-103166666D01*
X184333333Y-103452380D02*
X184000000Y-102452380D01*
X183666666Y-103452380D01*
X184331071Y-83778571D02*
X184664404Y-83778571D01*
X184664404Y-84302380D02*
X184664404Y-83302380D01*
X184188214Y-83302380D01*
X183807261Y-84302380D02*
X183807261Y-83635714D01*
X183807261Y-83826190D02*
X183759642Y-83730952D01*
X183712023Y-83683333D01*
X183616785Y-83635714D01*
X183521547Y-83635714D01*
X182807261Y-84254761D02*
X182902500Y-84302380D01*
X183092976Y-84302380D01*
X183188214Y-84254761D01*
X183235833Y-84159523D01*
X183235833Y-83778571D01*
X183188214Y-83683333D01*
X183092976Y-83635714D01*
X182902500Y-83635714D01*
X182807261Y-83683333D01*
X182759642Y-83778571D01*
X182759642Y-83873809D01*
X183235833Y-83969047D01*
X181902500Y-83635714D02*
X181902500Y-84635714D01*
X181902500Y-84254761D02*
X181997738Y-84302380D01*
X182188214Y-84302380D01*
X182283452Y-84254761D01*
X182331071Y-84207142D01*
X182378690Y-84111904D01*
X182378690Y-83826190D01*
X182331071Y-83730952D01*
X182283452Y-83683333D01*
X182188214Y-83635714D01*
X181997738Y-83635714D01*
X181902500Y-83683333D01*
X180997738Y-83635714D02*
X180997738Y-84302380D01*
X181426309Y-83635714D02*
X181426309Y-84159523D01*
X181378690Y-84254761D01*
X181283452Y-84302380D01*
X181140595Y-84302380D01*
X181045357Y-84254761D01*
X180997738Y-84207142D01*
X180140595Y-84254761D02*
X180235833Y-84302380D01*
X180426309Y-84302380D01*
X180521547Y-84254761D01*
X180569166Y-84159523D01*
X180569166Y-83778571D01*
X180521547Y-83683333D01*
X180426309Y-83635714D01*
X180235833Y-83635714D01*
X180140595Y-83683333D01*
X180092976Y-83778571D01*
X180092976Y-83873809D01*
X180569166Y-83969047D01*
X179664404Y-83635714D02*
X179664404Y-84302380D01*
X179664404Y-83730952D02*
X179616785Y-83683333D01*
X179521547Y-83635714D01*
X179378690Y-83635714D01*
X179283452Y-83683333D01*
X179235833Y-83778571D01*
X179235833Y-84302380D01*
X178331071Y-84254761D02*
X178426309Y-84302380D01*
X178616785Y-84302380D01*
X178712023Y-84254761D01*
X178759642Y-84207142D01*
X178807261Y-84111904D01*
X178807261Y-83826190D01*
X178759642Y-83730952D01*
X178712023Y-83683333D01*
X178616785Y-83635714D01*
X178426309Y-83635714D01*
X178331071Y-83683333D01*
X177997738Y-83635714D02*
X177759642Y-84302380D01*
X177521547Y-83635714D02*
X177759642Y-84302380D01*
X177854880Y-84540476D01*
X177902500Y-84588095D01*
X177997738Y-84635714D01*
X184807261Y-85285714D02*
X184426309Y-85285714D01*
X184664404Y-85952380D02*
X184664404Y-85095238D01*
X184616785Y-85000000D01*
X184521547Y-84952380D01*
X184426309Y-84952380D01*
X183807261Y-86285714D02*
X184045357Y-86285714D01*
X184045357Y-84857142D01*
X183807261Y-84857142D01*
X183426309Y-85952380D02*
X183426309Y-84952380D01*
X183426309Y-85428571D02*
X182854880Y-85428571D01*
X182854880Y-85952380D02*
X182854880Y-84952380D01*
X182473928Y-85285714D02*
X181950119Y-85285714D01*
X182473928Y-85952380D01*
X181950119Y-85952380D01*
X181664404Y-86285714D02*
X181426309Y-86285714D01*
X181426309Y-84857142D01*
X181664404Y-84857142D01*
X180140595Y-85428571D02*
X179378690Y-85428571D01*
X179378690Y-85714285D02*
X180140595Y-85714285D01*
X178140595Y-85285714D02*
X178140595Y-85952380D01*
X178140595Y-85380952D02*
X178092976Y-85333333D01*
X177997738Y-85285714D01*
X177854880Y-85285714D01*
X177759642Y-85333333D01*
X177712023Y-85428571D01*
X177712023Y-85952380D01*
X176521547Y-84904761D02*
X177378690Y-86190476D01*
X176331071Y-85285714D02*
X175950119Y-85285714D01*
X176188214Y-84952380D02*
X176188214Y-85809523D01*
X176140595Y-85904761D01*
X176045357Y-85952380D01*
X175950119Y-85952380D01*
X175331071Y-86285714D02*
X175569166Y-86285714D01*
X175569166Y-84857142D01*
X175331071Y-84857142D01*
X174997738Y-85904761D02*
X174902500Y-85952380D01*
X174712023Y-85952380D01*
X174616785Y-85904761D01*
X174569166Y-85809523D01*
X174569166Y-85761904D01*
X174616785Y-85666666D01*
X174712023Y-85619047D01*
X174854880Y-85619047D01*
X174950119Y-85571428D01*
X174997738Y-85476190D01*
X174997738Y-85428571D01*
X174950119Y-85333333D01*
X174854880Y-85285714D01*
X174712023Y-85285714D01*
X174616785Y-85333333D01*
X174235833Y-86285714D02*
X173997738Y-86285714D01*
X173997738Y-84857142D01*
X174235833Y-84857142D01*
X184807261Y-86602380D02*
X184235833Y-86602380D01*
X184521547Y-87602380D02*
X184521547Y-86602380D01*
X183616785Y-87935714D02*
X183854880Y-87935714D01*
X183854880Y-86507142D01*
X183616785Y-86507142D01*
X183283452Y-87554761D02*
X183188214Y-87602380D01*
X182997738Y-87602380D01*
X182902500Y-87554761D01*
X182854880Y-87459523D01*
X182854880Y-87411904D01*
X182902500Y-87316666D01*
X182997738Y-87269047D01*
X183140595Y-87269047D01*
X183235833Y-87221428D01*
X183283452Y-87126190D01*
X183283452Y-87078571D01*
X183235833Y-86983333D01*
X183140595Y-86935714D01*
X182997738Y-86935714D01*
X182902500Y-86983333D01*
X182521547Y-87935714D02*
X182283452Y-87935714D01*
X182283452Y-86507142D01*
X182521547Y-86507142D01*
X180997738Y-87078571D02*
X180235833Y-87078571D01*
X180235833Y-87364285D02*
X180997738Y-87364285D01*
X178473928Y-87602380D02*
X179045357Y-87602380D01*
X178759642Y-87602380D02*
X178759642Y-86602380D01*
X178854880Y-86745238D01*
X178950119Y-86840476D01*
X179045357Y-86888095D01*
X177331071Y-86554761D02*
X178188214Y-87840476D01*
X177140595Y-86935714D02*
X176759642Y-86935714D01*
X176997738Y-87602380D02*
X176997738Y-86745238D01*
X176950119Y-86650000D01*
X176854880Y-86602380D01*
X176759642Y-86602380D01*
X176140595Y-87935714D02*
X176378690Y-87935714D01*
X176378690Y-86507142D01*
X176140595Y-86507142D01*
X175759642Y-87602380D02*
X175759642Y-86602380D01*
X175759642Y-87078571D02*
X175188214Y-87078571D01*
X175188214Y-87602380D02*
X175188214Y-86602380D01*
X174807261Y-86935714D02*
X174283452Y-86935714D01*
X174807261Y-87602380D01*
X174283452Y-87602380D01*
X173997738Y-87935714D02*
X173759642Y-87935714D01*
X173759642Y-86507142D01*
X173997738Y-86507142D01*
D10*
X181000000Y-104000000D02*
X179000000Y-104000000D01*
X181000000Y-103000000D02*
X181000000Y-105000000D01*
X182500000Y-105000000D02*
X182500000Y-104000000D01*
X181000000Y-104000000D02*
X182500000Y-105000000D01*
X182500000Y-103000000D02*
X181000000Y-104000000D01*
X182500000Y-104000000D02*
X182500000Y-103000000D01*
X184500000Y-104000000D02*
X182500000Y-104000000D01*
X180000000Y-100500000D02*
X180500000Y-100500000D01*
X180500000Y-100500000D02*
G75*
G02*
X181500000Y-100500000I500000J0D01*
G01*
X181500000Y-100500000D02*
G75*
G02*
X182500000Y-100500000I500000J0D01*
G01*
X182500000Y-100500000D02*
G75*
G02*
X183500000Y-100500000I500000J0D01*
G01*
X179000000Y-100500000D02*
X180000000Y-100500000D01*
X184500000Y-100500000D02*
X183500000Y-100500000D01*
X181000000Y-97000000D02*
X179000000Y-97000000D01*
X181000000Y-95500000D02*
X181000000Y-98500000D01*
X182000000Y-97000000D02*
X182000000Y-98500000D01*
X182000000Y-97000000D02*
X182000000Y-95500000D01*
X183000000Y-97000000D02*
X182000000Y-97000000D01*
X184500000Y-97000000D02*
X183000000Y-97000000D01*
D11*
X177164404Y-118952380D02*
X177164404Y-117952380D01*
X176592976Y-118952380D01*
X176592976Y-117952380D01*
X176116785Y-118571428D02*
X175354880Y-118571428D01*
X174878690Y-118952380D02*
X174878690Y-117952380D01*
X174545357Y-118666666D01*
X174212023Y-117952380D01*
X174212023Y-118952380D01*
X173545357Y-117952380D02*
X173354880Y-117952380D01*
X173259642Y-118000000D01*
X173164404Y-118095238D01*
X173116785Y-118285714D01*
X173116785Y-118619047D01*
X173164404Y-118809523D01*
X173259642Y-118904761D01*
X173354880Y-118952380D01*
X173545357Y-118952380D01*
X173640595Y-118904761D01*
X173735833Y-118809523D01*
X173783452Y-118619047D01*
X173783452Y-118285714D01*
X173735833Y-118095238D01*
X173640595Y-118000000D01*
X173545357Y-117952380D01*
X172735833Y-118904761D02*
X172592976Y-118952380D01*
X172354880Y-118952380D01*
X172259642Y-118904761D01*
X172212023Y-118857142D01*
X172164404Y-118761904D01*
X172164404Y-118666666D01*
X172212023Y-118571428D01*
X172259642Y-118523809D01*
X172354880Y-118476190D01*
X172545357Y-118428571D01*
X172640595Y-118380952D01*
X172688214Y-118333333D01*
X172735833Y-118238095D01*
X172735833Y-118142857D01*
X172688214Y-118047619D01*
X172640595Y-118000000D01*
X172545357Y-117952380D01*
X172307261Y-117952380D01*
X172164404Y-118000000D01*
X171402500Y-118428571D02*
X171735833Y-118428571D01*
X171735833Y-118952380D02*
X171735833Y-117952380D01*
X171259642Y-117952380D01*
X170878690Y-118428571D02*
X170545357Y-118428571D01*
X170402500Y-118952380D02*
X170878690Y-118952380D01*
X170878690Y-117952380D01*
X170402500Y-117952380D01*
X170116785Y-117952380D02*
X169545357Y-117952380D01*
X169831071Y-118952380D02*
X169831071Y-117952380D01*
X182738095Y-118500000D02*
X182833333Y-118452380D01*
X182976190Y-118452380D01*
X183119047Y-118500000D01*
X183214285Y-118595238D01*
X183261904Y-118690476D01*
X183309523Y-118880952D01*
X183309523Y-119023809D01*
X183261904Y-119214285D01*
X183214285Y-119309523D01*
X183119047Y-119404761D01*
X182976190Y-119452380D01*
X182880952Y-119452380D01*
X182738095Y-119404761D01*
X182690476Y-119357142D01*
X182690476Y-119023809D01*
X182880952Y-119023809D01*
X178785714Y-121404761D02*
X178642857Y-121452380D01*
X178404761Y-121452380D01*
X178309523Y-121404761D01*
X178261904Y-121357142D01*
X178214285Y-121261904D01*
X178214285Y-121166666D01*
X178261904Y-121071428D01*
X178309523Y-121023809D01*
X178404761Y-120976190D01*
X178595238Y-120928571D01*
X178690476Y-120880952D01*
X178738095Y-120833333D01*
X178785714Y-120738095D01*
X178785714Y-120642857D01*
X178738095Y-120547619D01*
X178690476Y-120500000D01*
X178595238Y-120452380D01*
X178357142Y-120452380D01*
X178214285Y-120500000D01*
X178761904Y-116452380D02*
X178761904Y-115452380D01*
X178523809Y-115452380D01*
X178380952Y-115500000D01*
X178285714Y-115595238D01*
X178238095Y-115690476D01*
X178190476Y-115880952D01*
X178190476Y-116023809D01*
X178238095Y-116214285D01*
X178285714Y-116309523D01*
X178380952Y-116404761D01*
X178523809Y-116452380D01*
X178761904Y-116452380D01*
D10*
X179500000Y-117000000D02*
X179500000Y-115500000D01*
X180500000Y-117000000D02*
X179500000Y-117000000D01*
X180000000Y-119000000D02*
X180500000Y-118500000D01*
X180000000Y-118000000D02*
X180000000Y-119000000D01*
X180500000Y-118500000D02*
X180000000Y-118000000D01*
X179500000Y-118500000D02*
X179500000Y-121500000D01*
X180000000Y-118500000D02*
X179500000Y-118500000D01*
X180500000Y-120000000D02*
X179500000Y-120000000D01*
X180500000Y-119500000D02*
X180500000Y-120500000D01*
X180500000Y-118000000D02*
X180500000Y-119000000D01*
X180500000Y-117500000D02*
X180500000Y-116500000D01*
X181000000Y-120000000D02*
X181000000Y-117000000D01*
X183000000Y-120000000D02*
X181000000Y-120000000D01*
D11*
X177164404Y-104452380D02*
X177164404Y-103452380D01*
X176926309Y-103452380D01*
X176783452Y-103500000D01*
X176688214Y-103595238D01*
X176640595Y-103690476D01*
X176592976Y-103880952D01*
X176592976Y-104023809D01*
X176640595Y-104214285D01*
X176688214Y-104309523D01*
X176783452Y-104404761D01*
X176926309Y-104452380D01*
X177164404Y-104452380D01*
X176164404Y-104452380D02*
X176164404Y-103785714D01*
X176164404Y-103452380D02*
X176212023Y-103500000D01*
X176164404Y-103547619D01*
X176116785Y-103500000D01*
X176164404Y-103452380D01*
X176164404Y-103547619D01*
X175545357Y-104452380D02*
X175640595Y-104404761D01*
X175688214Y-104357142D01*
X175735833Y-104261904D01*
X175735833Y-103976190D01*
X175688214Y-103880952D01*
X175640595Y-103833333D01*
X175545357Y-103785714D01*
X175402500Y-103785714D01*
X175307261Y-103833333D01*
X175259642Y-103880952D01*
X175212023Y-103976190D01*
X175212023Y-104261904D01*
X175259642Y-104357142D01*
X175307261Y-104404761D01*
X175402500Y-104452380D01*
X175545357Y-104452380D01*
X174354880Y-104452380D02*
X174354880Y-103452380D01*
X174354880Y-104404761D02*
X174450119Y-104452380D01*
X174640595Y-104452380D01*
X174735833Y-104404761D01*
X174783452Y-104357142D01*
X174831071Y-104261904D01*
X174831071Y-103976190D01*
X174783452Y-103880952D01*
X174735833Y-103833333D01*
X174640595Y-103785714D01*
X174450119Y-103785714D01*
X174354880Y-103833333D01*
X173497738Y-104404761D02*
X173592976Y-104452380D01*
X173783452Y-104452380D01*
X173878690Y-104404761D01*
X173926309Y-104309523D01*
X173926309Y-103928571D01*
X173878690Y-103833333D01*
X173783452Y-103785714D01*
X173592976Y-103785714D01*
X173497738Y-103833333D01*
X173450119Y-103928571D01*
X173450119Y-104023809D01*
X173926309Y-104119047D01*
X176831071Y-109428571D02*
X176688214Y-109476190D01*
X176640595Y-109523809D01*
X176592976Y-109619047D01*
X176592976Y-109761904D01*
X176640595Y-109857142D01*
X176688214Y-109904761D01*
X176783452Y-109952380D01*
X177164404Y-109952380D01*
X177164404Y-108952380D01*
X176831071Y-108952380D01*
X176735833Y-109000000D01*
X176688214Y-109047619D01*
X176640595Y-109142857D01*
X176640595Y-109238095D01*
X176688214Y-109333333D01*
X176735833Y-109380952D01*
X176831071Y-109428571D01*
X177164404Y-109428571D01*
X176164404Y-109952380D02*
X176164404Y-109285714D01*
X176164404Y-108952380D02*
X176212023Y-109000000D01*
X176164404Y-109047619D01*
X176116785Y-109000000D01*
X176164404Y-108952380D01*
X176164404Y-109047619D01*
X175688214Y-109285714D02*
X175688214Y-110285714D01*
X175688214Y-109333333D02*
X175592976Y-109285714D01*
X175402500Y-109285714D01*
X175307261Y-109333333D01*
X175259642Y-109380952D01*
X175212023Y-109476190D01*
X175212023Y-109761904D01*
X175259642Y-109857142D01*
X175307261Y-109904761D01*
X175402500Y-109952380D01*
X175592976Y-109952380D01*
X175688214Y-109904761D01*
X174640595Y-109952380D02*
X174735833Y-109904761D01*
X174783452Y-109857142D01*
X174831071Y-109761904D01*
X174831071Y-109476190D01*
X174783452Y-109380952D01*
X174735833Y-109333333D01*
X174640595Y-109285714D01*
X174497738Y-109285714D01*
X174402500Y-109333333D01*
X174354880Y-109380952D01*
X174307261Y-109476190D01*
X174307261Y-109761904D01*
X174354880Y-109857142D01*
X174402500Y-109904761D01*
X174497738Y-109952380D01*
X174640595Y-109952380D01*
X173735833Y-109952380D02*
X173831071Y-109904761D01*
X173878690Y-109809523D01*
X173878690Y-108952380D01*
X172926309Y-109952380D02*
X172926309Y-109428571D01*
X172973928Y-109333333D01*
X173069166Y-109285714D01*
X173259642Y-109285714D01*
X173354880Y-109333333D01*
X172926309Y-109904761D02*
X173021547Y-109952380D01*
X173259642Y-109952380D01*
X173354880Y-109904761D01*
X173402500Y-109809523D01*
X173402500Y-109714285D01*
X173354880Y-109619047D01*
X173259642Y-109571428D01*
X173021547Y-109571428D01*
X172926309Y-109523809D01*
X172450119Y-109952380D02*
X172450119Y-109285714D01*
X172450119Y-109476190D02*
X172402500Y-109380952D01*
X172354880Y-109333333D01*
X172259642Y-109285714D01*
X172164404Y-109285714D01*
X171069166Y-109952380D02*
X171069166Y-108952380D01*
X170497738Y-109952380D01*
X170497738Y-108952380D01*
X170021547Y-109952380D02*
X170021547Y-108952380D01*
X169640595Y-108952380D01*
X169545357Y-109000000D01*
X169497738Y-109047619D01*
X169450119Y-109142857D01*
X169450119Y-109285714D01*
X169497738Y-109380952D01*
X169545357Y-109428571D01*
X169640595Y-109476190D01*
X170021547Y-109476190D01*
X169021547Y-109952380D02*
X169021547Y-108952380D01*
X168450119Y-109952380D01*
X168450119Y-108952380D01*
X176592976Y-100857142D02*
X176640595Y-100904761D01*
X176783452Y-100952380D01*
X176878690Y-100952380D01*
X177021547Y-100904761D01*
X177116785Y-100809523D01*
X177164404Y-100714285D01*
X177212023Y-100523809D01*
X177212023Y-100380952D01*
X177164404Y-100190476D01*
X177116785Y-100095238D01*
X177021547Y-100000000D01*
X176878690Y-99952380D01*
X176783452Y-99952380D01*
X176640595Y-100000000D01*
X176592976Y-100047619D01*
X176021547Y-100952380D02*
X176116785Y-100904761D01*
X176164404Y-100857142D01*
X176212023Y-100761904D01*
X176212023Y-100476190D01*
X176164404Y-100380952D01*
X176116785Y-100333333D01*
X176021547Y-100285714D01*
X175878690Y-100285714D01*
X175783452Y-100333333D01*
X175735833Y-100380952D01*
X175688214Y-100476190D01*
X175688214Y-100761904D01*
X175735833Y-100857142D01*
X175783452Y-100904761D01*
X175878690Y-100952380D01*
X176021547Y-100952380D01*
X175259642Y-100952380D02*
X175259642Y-100285714D01*
X175259642Y-99952380D02*
X175307261Y-100000000D01*
X175259642Y-100047619D01*
X175212023Y-100000000D01*
X175259642Y-99952380D01*
X175259642Y-100047619D01*
X174640595Y-100952380D02*
X174735833Y-100904761D01*
X174783452Y-100809523D01*
X174783452Y-99952380D01*
X176592976Y-97357142D02*
X176640595Y-97404761D01*
X176783452Y-97452380D01*
X176878690Y-97452380D01*
X177021547Y-97404761D01*
X177116785Y-97309523D01*
X177164404Y-97214285D01*
X177212023Y-97023809D01*
X177212023Y-96880952D01*
X177164404Y-96690476D01*
X177116785Y-96595238D01*
X177021547Y-96500000D01*
X176878690Y-96452380D01*
X176783452Y-96452380D01*
X176640595Y-96500000D01*
X176592976Y-96547619D01*
X175735833Y-97452380D02*
X175735833Y-96928571D01*
X175783452Y-96833333D01*
X175878690Y-96785714D01*
X176069166Y-96785714D01*
X176164404Y-96833333D01*
X175735833Y-97404761D02*
X175831071Y-97452380D01*
X176069166Y-97452380D01*
X176164404Y-97404761D01*
X176212023Y-97309523D01*
X176212023Y-97214285D01*
X176164404Y-97119047D01*
X176069166Y-97071428D01*
X175831071Y-97071428D01*
X175735833Y-97023809D01*
X175259642Y-96785714D02*
X175259642Y-97785714D01*
X175259642Y-96833333D02*
X175164404Y-96785714D01*
X174973928Y-96785714D01*
X174878690Y-96833333D01*
X174831071Y-96880952D01*
X174783452Y-96976190D01*
X174783452Y-97261904D01*
X174831071Y-97357142D01*
X174878690Y-97404761D01*
X174973928Y-97452380D01*
X175164404Y-97452380D01*
X175259642Y-97404761D01*
X173926309Y-97452380D02*
X173926309Y-96928571D01*
X173973928Y-96833333D01*
X174069166Y-96785714D01*
X174259642Y-96785714D01*
X174354880Y-96833333D01*
X173926309Y-97404761D02*
X174021547Y-97452380D01*
X174259642Y-97452380D01*
X174354880Y-97404761D01*
X174402500Y-97309523D01*
X174402500Y-97214285D01*
X174354880Y-97119047D01*
X174259642Y-97071428D01*
X174021547Y-97071428D01*
X173926309Y-97023809D01*
X173021547Y-97404761D02*
X173116785Y-97452380D01*
X173307261Y-97452380D01*
X173402500Y-97404761D01*
X173450119Y-97357142D01*
X173497738Y-97261904D01*
X173497738Y-96976190D01*
X173450119Y-96880952D01*
X173402500Y-96833333D01*
X173307261Y-96785714D01*
X173116785Y-96785714D01*
X173021547Y-96833333D01*
X172592976Y-97452380D02*
X172592976Y-96785714D01*
X172592976Y-96452380D02*
X172640595Y-96500000D01*
X172592976Y-96547619D01*
X172545357Y-96500000D01*
X172592976Y-96452380D01*
X172592976Y-96547619D01*
X172259642Y-96785714D02*
X171878690Y-96785714D01*
X172116785Y-96452380D02*
X172116785Y-97309523D01*
X172069166Y-97404761D01*
X171973928Y-97452380D01*
X171878690Y-97452380D01*
X171402500Y-97452380D02*
X171497738Y-97404761D01*
X171545357Y-97357142D01*
X171592976Y-97261904D01*
X171592976Y-96976190D01*
X171545357Y-96880952D01*
X171497738Y-96833333D01*
X171402500Y-96785714D01*
X171259642Y-96785714D01*
X171164404Y-96833333D01*
X171116785Y-96880952D01*
X171069166Y-96976190D01*
X171069166Y-97261904D01*
X171116785Y-97357142D01*
X171164404Y-97404761D01*
X171259642Y-97452380D01*
X171402500Y-97452380D01*
X170640595Y-97452380D02*
X170640595Y-96785714D01*
X170640595Y-96976190D02*
X170592976Y-96880952D01*
X170545357Y-96833333D01*
X170450119Y-96785714D01*
X170354880Y-96785714D01*
X176592976Y-93952380D02*
X176926309Y-93476190D01*
X177164404Y-93952380D02*
X177164404Y-92952380D01*
X176783452Y-92952380D01*
X176688214Y-93000000D01*
X176640595Y-93047619D01*
X176592976Y-93142857D01*
X176592976Y-93285714D01*
X176640595Y-93380952D01*
X176688214Y-93428571D01*
X176783452Y-93476190D01*
X177164404Y-93476190D01*
X175783452Y-93904761D02*
X175878690Y-93952380D01*
X176069166Y-93952380D01*
X176164404Y-93904761D01*
X176212023Y-93809523D01*
X176212023Y-93428571D01*
X176164404Y-93333333D01*
X176069166Y-93285714D01*
X175878690Y-93285714D01*
X175783452Y-93333333D01*
X175735833Y-93428571D01*
X175735833Y-93523809D01*
X176212023Y-93619047D01*
X175354880Y-93904761D02*
X175259642Y-93952380D01*
X175069166Y-93952380D01*
X174973928Y-93904761D01*
X174926309Y-93809523D01*
X174926309Y-93761904D01*
X174973928Y-93666666D01*
X175069166Y-93619047D01*
X175212023Y-93619047D01*
X175307261Y-93571428D01*
X175354880Y-93476190D01*
X175354880Y-93428571D01*
X175307261Y-93333333D01*
X175212023Y-93285714D01*
X175069166Y-93285714D01*
X174973928Y-93333333D01*
X174497738Y-93952380D02*
X174497738Y-93285714D01*
X174497738Y-92952380D02*
X174545357Y-93000000D01*
X174497738Y-93047619D01*
X174450119Y-93000000D01*
X174497738Y-92952380D01*
X174497738Y-93047619D01*
X174069166Y-93904761D02*
X173973928Y-93952380D01*
X173783452Y-93952380D01*
X173688214Y-93904761D01*
X173640595Y-93809523D01*
X173640595Y-93761904D01*
X173688214Y-93666666D01*
X173783452Y-93619047D01*
X173926309Y-93619047D01*
X174021547Y-93571428D01*
X174069166Y-93476190D01*
X174069166Y-93428571D01*
X174021547Y-93333333D01*
X173926309Y-93285714D01*
X173783452Y-93285714D01*
X173688214Y-93333333D01*
X173354880Y-93285714D02*
X172973928Y-93285714D01*
X173212023Y-92952380D02*
X173212023Y-93809523D01*
X173164404Y-93904761D01*
X173069166Y-93952380D01*
X172973928Y-93952380D01*
X172497738Y-93952380D02*
X172592976Y-93904761D01*
X172640595Y-93857142D01*
X172688214Y-93761904D01*
X172688214Y-93476190D01*
X172640595Y-93380952D01*
X172592976Y-93333333D01*
X172497738Y-93285714D01*
X172354880Y-93285714D01*
X172259642Y-93333333D01*
X172212023Y-93380952D01*
X172164404Y-93476190D01*
X172164404Y-93761904D01*
X172212023Y-93857142D01*
X172259642Y-93904761D01*
X172354880Y-93952380D01*
X172497738Y-93952380D01*
X171735833Y-93952380D02*
X171735833Y-93285714D01*
X171735833Y-93476190D02*
X171688214Y-93380952D01*
X171640595Y-93333333D01*
X171545357Y-93285714D01*
X171450119Y-93285714D01*
D10*
X180000000Y-93500000D02*
X179000000Y-93500000D01*
X183000000Y-94000000D02*
X183000000Y-93500000D01*
X180000000Y-94000000D02*
X183000000Y-94000000D01*
X180000000Y-93000000D02*
X180000000Y-94000000D01*
X183000000Y-93000000D02*
X180000000Y-93000000D01*
X183000000Y-93500000D02*
X183000000Y-93000000D01*
X184500000Y-93500000D02*
X183000000Y-93500000D01*
D11*
X178714285Y-112428571D02*
X178380952Y-112428571D01*
X178238095Y-112952380D02*
X178714285Y-112952380D01*
X178714285Y-111952380D01*
X178238095Y-111952380D01*
X183928571Y-109428571D02*
X183785714Y-109476190D01*
X183738095Y-109523809D01*
X183690476Y-109619047D01*
X183690476Y-109761904D01*
X183738095Y-109857142D01*
X183785714Y-109904761D01*
X183880952Y-109952380D01*
X184261904Y-109952380D01*
X184261904Y-108952380D01*
X183928571Y-108952380D01*
X183833333Y-109000000D01*
X183785714Y-109047619D01*
X183738095Y-109142857D01*
X183738095Y-109238095D01*
X183785714Y-109333333D01*
X183833333Y-109380952D01*
X183928571Y-109428571D01*
X184261904Y-109428571D01*
X178190476Y-106857142D02*
X178238095Y-106904761D01*
X178380952Y-106952380D01*
X178476190Y-106952380D01*
X178619047Y-106904761D01*
X178714285Y-106809523D01*
X178761904Y-106714285D01*
X178809523Y-106523809D01*
X178809523Y-106380952D01*
X178761904Y-106190476D01*
X178714285Y-106095238D01*
X178619047Y-106000000D01*
X178476190Y-105952380D01*
X178380952Y-105952380D01*
X178238095Y-106000000D01*
X178190476Y-106047619D01*
D10*
X179500000Y-111500000D02*
X179500000Y-113000000D01*
X179500000Y-107500000D02*
X179500000Y-106000000D01*
X181000000Y-110000000D02*
X180250000Y-110750000D01*
X181000000Y-109000000D02*
X179500000Y-107500000D01*
X181000000Y-107500000D02*
X181000000Y-111500000D01*
X183000000Y-109500000D02*
X181000000Y-109500000D01*
D11*
X206712023Y-92479761D02*
X206569166Y-92527380D01*
X206331071Y-92527380D01*
X206235833Y-92479761D01*
X206188214Y-92432142D01*
X206140595Y-92336904D01*
X206140595Y-92241666D01*
X206188214Y-92146428D01*
X206235833Y-92098809D01*
X206331071Y-92051190D01*
X206521547Y-92003571D01*
X206616785Y-91955952D01*
X206664404Y-91908333D01*
X206712023Y-91813095D01*
X206712023Y-91717857D01*
X206664404Y-91622619D01*
X206616785Y-91575000D01*
X206521547Y-91527380D01*
X206283452Y-91527380D01*
X206140595Y-91575000D01*
X205712023Y-92527380D02*
X205712023Y-91527380D01*
X204473928Y-91860714D02*
X204473928Y-92860714D01*
X204473928Y-91908333D02*
X204378690Y-91860714D01*
X204188214Y-91860714D01*
X204092976Y-91908333D01*
X204045357Y-91955952D01*
X203997738Y-92051190D01*
X203997738Y-92336904D01*
X204045357Y-92432142D01*
X204092976Y-92479761D01*
X204188214Y-92527380D01*
X204378690Y-92527380D01*
X204473928Y-92479761D01*
X203569166Y-92527380D02*
X203569166Y-91860714D01*
X203569166Y-92051190D02*
X203521547Y-91955952D01*
X203473928Y-91908333D01*
X203378690Y-91860714D01*
X203283452Y-91860714D01*
X202569166Y-92479761D02*
X202664404Y-92527380D01*
X202854880Y-92527380D01*
X202950119Y-92479761D01*
X202997738Y-92384523D01*
X202997738Y-92003571D01*
X202950119Y-91908333D01*
X202854880Y-91860714D01*
X202664404Y-91860714D01*
X202569166Y-91908333D01*
X202521547Y-92003571D01*
X202521547Y-92098809D01*
X202997738Y-92194047D01*
X202235833Y-91860714D02*
X201854880Y-91860714D01*
X202092976Y-92527380D02*
X202092976Y-91670238D01*
X202045357Y-91575000D01*
X201950119Y-91527380D01*
X201854880Y-91527380D01*
X201521547Y-92527380D02*
X201521547Y-91860714D01*
X201521547Y-91527380D02*
X201569166Y-91575000D01*
X201521547Y-91622619D01*
X201473928Y-91575000D01*
X201521547Y-91527380D01*
X201521547Y-91622619D01*
X201140595Y-92527380D02*
X200616785Y-91860714D01*
X201140595Y-91860714D02*
X200616785Y-92527380D01*
X199854880Y-92479761D02*
X199950119Y-92527380D01*
X200140595Y-92527380D01*
X200235833Y-92479761D01*
X200283452Y-92384523D01*
X200283452Y-92003571D01*
X200235833Y-91908333D01*
X200140595Y-91860714D01*
X199950119Y-91860714D01*
X199854880Y-91908333D01*
X199807261Y-92003571D01*
X199807261Y-92098809D01*
X200283452Y-92194047D01*
X199426309Y-92479761D02*
X199331071Y-92527380D01*
X199140595Y-92527380D01*
X199045357Y-92479761D01*
X198997738Y-92384523D01*
X198997738Y-92336904D01*
X199045357Y-92241666D01*
X199140595Y-92194047D01*
X199283452Y-92194047D01*
X199378690Y-92146428D01*
X199426309Y-92051190D01*
X199426309Y-92003571D01*
X199378690Y-91908333D01*
X199283452Y-91860714D01*
X199140595Y-91860714D01*
X199045357Y-91908333D01*
X206140595Y-94177380D02*
X206712023Y-94177380D01*
X206426309Y-94177380D02*
X206426309Y-93177380D01*
X206521547Y-93320238D01*
X206616785Y-93415476D01*
X206712023Y-93463095D01*
X205521547Y-93177380D02*
X205426309Y-93177380D01*
X205331071Y-93225000D01*
X205283452Y-93272619D01*
X205235833Y-93367857D01*
X205188214Y-93558333D01*
X205188214Y-93796428D01*
X205235833Y-93986904D01*
X205283452Y-94082142D01*
X205331071Y-94129761D01*
X205426309Y-94177380D01*
X205521547Y-94177380D01*
X205616785Y-94129761D01*
X205664404Y-94082142D01*
X205712023Y-93986904D01*
X205759642Y-93796428D01*
X205759642Y-93558333D01*
X205712023Y-93367857D01*
X205664404Y-93272619D01*
X205616785Y-93225000D01*
X205521547Y-93177380D01*
X204902500Y-93272619D02*
X204712023Y-93129761D01*
X204521547Y-93272619D01*
X203664404Y-94177380D02*
X204235833Y-94177380D01*
X203950119Y-94177380D02*
X203950119Y-93177380D01*
X204045357Y-93320238D01*
X204140595Y-93415476D01*
X204235833Y-93463095D01*
X203283452Y-93272619D02*
X203235833Y-93225000D01*
X203140595Y-93177380D01*
X202902500Y-93177380D01*
X202807261Y-93225000D01*
X202759642Y-93272619D01*
X202712023Y-93367857D01*
X202712023Y-93463095D01*
X202759642Y-93605952D01*
X203331071Y-94177380D01*
X202712023Y-94177380D01*
X200140595Y-93510714D02*
X199759642Y-93510714D01*
X199997738Y-93177380D02*
X199997738Y-94034523D01*
X199950119Y-94129761D01*
X199854880Y-94177380D01*
X199759642Y-94177380D01*
X199045357Y-94129761D02*
X199140595Y-94177380D01*
X199331071Y-94177380D01*
X199426309Y-94129761D01*
X199473928Y-94034523D01*
X199473928Y-93653571D01*
X199426309Y-93558333D01*
X199331071Y-93510714D01*
X199140595Y-93510714D01*
X199045357Y-93558333D01*
X198997738Y-93653571D01*
X198997738Y-93748809D01*
X199473928Y-93844047D01*
X198569166Y-94177380D02*
X198569166Y-93510714D01*
X198569166Y-93701190D02*
X198521547Y-93605952D01*
X198473928Y-93558333D01*
X198378690Y-93510714D01*
X198283452Y-93510714D01*
X197521547Y-94177380D02*
X197521547Y-93653571D01*
X197569166Y-93558333D01*
X197664404Y-93510714D01*
X197854880Y-93510714D01*
X197950119Y-93558333D01*
X197521547Y-94129761D02*
X197616785Y-94177380D01*
X197854880Y-94177380D01*
X197950119Y-94129761D01*
X197997738Y-94034523D01*
X197997738Y-93939285D01*
X197950119Y-93844047D01*
X197854880Y-93796428D01*
X197616785Y-93796428D01*
X197521547Y-93748809D01*
X194902500Y-93177380D02*
X194331071Y-93177380D01*
X194616785Y-94177380D02*
X194616785Y-93177380D01*
X206140595Y-95827380D02*
X206712023Y-95827380D01*
X206426309Y-95827380D02*
X206426309Y-94827380D01*
X206521547Y-94970238D01*
X206616785Y-95065476D01*
X206712023Y-95113095D01*
X205521547Y-94827380D02*
X205426309Y-94827380D01*
X205331071Y-94875000D01*
X205283452Y-94922619D01*
X205235833Y-95017857D01*
X205188214Y-95208333D01*
X205188214Y-95446428D01*
X205235833Y-95636904D01*
X205283452Y-95732142D01*
X205331071Y-95779761D01*
X205426309Y-95827380D01*
X205521547Y-95827380D01*
X205616785Y-95779761D01*
X205664404Y-95732142D01*
X205712023Y-95636904D01*
X205759642Y-95446428D01*
X205759642Y-95208333D01*
X205712023Y-95017857D01*
X205664404Y-94922619D01*
X205616785Y-94875000D01*
X205521547Y-94827380D01*
X204902500Y-94922619D02*
X204712023Y-94779761D01*
X204521547Y-94922619D01*
X204140595Y-95827380D02*
X203950119Y-95827380D01*
X203854880Y-95779761D01*
X203807261Y-95732142D01*
X203712023Y-95589285D01*
X203664404Y-95398809D01*
X203664404Y-95017857D01*
X203712023Y-94922619D01*
X203759642Y-94875000D01*
X203854880Y-94827380D01*
X204045357Y-94827380D01*
X204140595Y-94875000D01*
X204188214Y-94922619D01*
X204235833Y-95017857D01*
X204235833Y-95255952D01*
X204188214Y-95351190D01*
X204140595Y-95398809D01*
X204045357Y-95446428D01*
X203854880Y-95446428D01*
X203759642Y-95398809D01*
X203712023Y-95351190D01*
X203664404Y-95255952D01*
X199759642Y-95160714D02*
X199759642Y-95970238D01*
X199807261Y-96065476D01*
X199854880Y-96113095D01*
X199950119Y-96160714D01*
X200092976Y-96160714D01*
X200188214Y-96113095D01*
X199759642Y-95779761D02*
X199854880Y-95827380D01*
X200045357Y-95827380D01*
X200140595Y-95779761D01*
X200188214Y-95732142D01*
X200235833Y-95636904D01*
X200235833Y-95351190D01*
X200188214Y-95255952D01*
X200140595Y-95208333D01*
X200045357Y-95160714D01*
X199854880Y-95160714D01*
X199759642Y-95208333D01*
X199283452Y-95827380D02*
X199283452Y-95160714D01*
X199283452Y-94827380D02*
X199331071Y-94875000D01*
X199283452Y-94922619D01*
X199235833Y-94875000D01*
X199283452Y-94827380D01*
X199283452Y-94922619D01*
X198378690Y-95160714D02*
X198378690Y-95970238D01*
X198426309Y-96065476D01*
X198473928Y-96113095D01*
X198569166Y-96160714D01*
X198712023Y-96160714D01*
X198807261Y-96113095D01*
X198378690Y-95779761D02*
X198473928Y-95827380D01*
X198664404Y-95827380D01*
X198759642Y-95779761D01*
X198807261Y-95732142D01*
X198854880Y-95636904D01*
X198854880Y-95351190D01*
X198807261Y-95255952D01*
X198759642Y-95208333D01*
X198664404Y-95160714D01*
X198473928Y-95160714D01*
X198378690Y-95208333D01*
X197473928Y-95827380D02*
X197473928Y-95303571D01*
X197521547Y-95208333D01*
X197616785Y-95160714D01*
X197807261Y-95160714D01*
X197902500Y-95208333D01*
X197473928Y-95779761D02*
X197569166Y-95827380D01*
X197807261Y-95827380D01*
X197902500Y-95779761D01*
X197950119Y-95684523D01*
X197950119Y-95589285D01*
X197902500Y-95494047D01*
X197807261Y-95446428D01*
X197569166Y-95446428D01*
X197473928Y-95398809D01*
X194188214Y-94875000D02*
X194283452Y-94827380D01*
X194426309Y-94827380D01*
X194569166Y-94875000D01*
X194664404Y-94970238D01*
X194712023Y-95065476D01*
X194759642Y-95255952D01*
X194759642Y-95398809D01*
X194712023Y-95589285D01*
X194664404Y-95684523D01*
X194569166Y-95779761D01*
X194426309Y-95827380D01*
X194331071Y-95827380D01*
X194188214Y-95779761D01*
X194140595Y-95732142D01*
X194140595Y-95398809D01*
X194331071Y-95398809D01*
X206140595Y-97477380D02*
X206712023Y-97477380D01*
X206426309Y-97477380D02*
X206426309Y-96477380D01*
X206521547Y-96620238D01*
X206616785Y-96715476D01*
X206712023Y-96763095D01*
X205521547Y-96477380D02*
X205426309Y-96477380D01*
X205331071Y-96525000D01*
X205283452Y-96572619D01*
X205235833Y-96667857D01*
X205188214Y-96858333D01*
X205188214Y-97096428D01*
X205235833Y-97286904D01*
X205283452Y-97382142D01*
X205331071Y-97429761D01*
X205426309Y-97477380D01*
X205521547Y-97477380D01*
X205616785Y-97429761D01*
X205664404Y-97382142D01*
X205712023Y-97286904D01*
X205759642Y-97096428D01*
X205759642Y-96858333D01*
X205712023Y-96667857D01*
X205664404Y-96572619D01*
X205616785Y-96525000D01*
X205521547Y-96477380D01*
X204902500Y-96572619D02*
X204712023Y-96429761D01*
X204521547Y-96572619D01*
X203759642Y-96477380D02*
X203950119Y-96477380D01*
X204045357Y-96525000D01*
X204092976Y-96572619D01*
X204188214Y-96715476D01*
X204235833Y-96905952D01*
X204235833Y-97286904D01*
X204188214Y-97382142D01*
X204140595Y-97429761D01*
X204045357Y-97477380D01*
X203854880Y-97477380D01*
X203759642Y-97429761D01*
X203712023Y-97382142D01*
X203664404Y-97286904D01*
X203664404Y-97048809D01*
X203712023Y-96953571D01*
X203759642Y-96905952D01*
X203854880Y-96858333D01*
X204045357Y-96858333D01*
X204140595Y-96905952D01*
X204188214Y-96953571D01*
X204235833Y-97048809D01*
X200188214Y-97477380D02*
X200188214Y-96810714D01*
X200188214Y-96905952D02*
X200140595Y-96858333D01*
X200045357Y-96810714D01*
X199902500Y-96810714D01*
X199807261Y-96858333D01*
X199759642Y-96953571D01*
X199759642Y-97477380D01*
X199759642Y-96953571D02*
X199712023Y-96858333D01*
X199616785Y-96810714D01*
X199473928Y-96810714D01*
X199378690Y-96858333D01*
X199331071Y-96953571D01*
X199331071Y-97477380D01*
X198473928Y-97429761D02*
X198569166Y-97477380D01*
X198759642Y-97477380D01*
X198854880Y-97429761D01*
X198902500Y-97334523D01*
X198902500Y-96953571D01*
X198854880Y-96858333D01*
X198759642Y-96810714D01*
X198569166Y-96810714D01*
X198473928Y-96858333D01*
X198426309Y-96953571D01*
X198426309Y-97048809D01*
X198902500Y-97144047D01*
X197569166Y-96810714D02*
X197569166Y-97620238D01*
X197616785Y-97715476D01*
X197664404Y-97763095D01*
X197759642Y-97810714D01*
X197902500Y-97810714D01*
X197997738Y-97763095D01*
X197569166Y-97429761D02*
X197664404Y-97477380D01*
X197854880Y-97477380D01*
X197950119Y-97429761D01*
X197997738Y-97382142D01*
X198045357Y-97286904D01*
X198045357Y-97001190D01*
X197997738Y-96905952D01*
X197950119Y-96858333D01*
X197854880Y-96810714D01*
X197664404Y-96810714D01*
X197569166Y-96858333D01*
X196664404Y-97477380D02*
X196664404Y-96953571D01*
X196712023Y-96858333D01*
X196807261Y-96810714D01*
X196997738Y-96810714D01*
X197092976Y-96858333D01*
X196664404Y-97429761D02*
X196759642Y-97477380D01*
X196997738Y-97477380D01*
X197092976Y-97429761D01*
X197140595Y-97334523D01*
X197140595Y-97239285D01*
X197092976Y-97144047D01*
X196997738Y-97096428D01*
X196759642Y-97096428D01*
X196664404Y-97048809D01*
X194664404Y-97477380D02*
X194664404Y-96477380D01*
X194331071Y-97191666D01*
X193997738Y-96477380D01*
X193997738Y-97477380D01*
X206140595Y-99127380D02*
X206712023Y-99127380D01*
X206426309Y-99127380D02*
X206426309Y-98127380D01*
X206521547Y-98270238D01*
X206616785Y-98365476D01*
X206712023Y-98413095D01*
X205521547Y-98127380D02*
X205426309Y-98127380D01*
X205331071Y-98175000D01*
X205283452Y-98222619D01*
X205235833Y-98317857D01*
X205188214Y-98508333D01*
X205188214Y-98746428D01*
X205235833Y-98936904D01*
X205283452Y-99032142D01*
X205331071Y-99079761D01*
X205426309Y-99127380D01*
X205521547Y-99127380D01*
X205616785Y-99079761D01*
X205664404Y-99032142D01*
X205712023Y-98936904D01*
X205759642Y-98746428D01*
X205759642Y-98508333D01*
X205712023Y-98317857D01*
X205664404Y-98222619D01*
X205616785Y-98175000D01*
X205521547Y-98127380D01*
X204902500Y-98222619D02*
X204712023Y-98079761D01*
X204521547Y-98222619D01*
X204283452Y-98127380D02*
X203664404Y-98127380D01*
X203997738Y-98508333D01*
X203854880Y-98508333D01*
X203759642Y-98555952D01*
X203712023Y-98603571D01*
X203664404Y-98698809D01*
X203664404Y-98936904D01*
X203712023Y-99032142D01*
X203759642Y-99079761D01*
X203854880Y-99127380D01*
X204140595Y-99127380D01*
X204235833Y-99079761D01*
X204283452Y-99032142D01*
X200188214Y-99127380D02*
X200188214Y-98127380D01*
X200092976Y-98746428D02*
X199807261Y-99127380D01*
X199807261Y-98460714D02*
X200188214Y-98841666D01*
X199378690Y-99127380D02*
X199378690Y-98460714D01*
X199378690Y-98127380D02*
X199426309Y-98175000D01*
X199378690Y-98222619D01*
X199331071Y-98175000D01*
X199378690Y-98127380D01*
X199378690Y-98222619D01*
X198759642Y-99127380D02*
X198854880Y-99079761D01*
X198902500Y-98984523D01*
X198902500Y-98127380D01*
X198235833Y-99127380D02*
X198331071Y-99079761D01*
X198378690Y-99032142D01*
X198426309Y-98936904D01*
X198426309Y-98651190D01*
X198378690Y-98555952D01*
X198331071Y-98508333D01*
X198235833Y-98460714D01*
X198092976Y-98460714D01*
X197997738Y-98508333D01*
X197950119Y-98555952D01*
X197902500Y-98651190D01*
X197902500Y-98936904D01*
X197950119Y-99032142D01*
X197997738Y-99079761D01*
X198092976Y-99127380D01*
X198235833Y-99127380D01*
X194426309Y-99127380D02*
X194426309Y-98127380D01*
X194331071Y-98746428D02*
X194045357Y-99127380D01*
X194045357Y-98460714D02*
X194426309Y-98841666D01*
X206664404Y-100396428D02*
X205902500Y-100396428D01*
X205426309Y-100396428D02*
X204664404Y-100396428D01*
X204188214Y-100396428D02*
X203426309Y-100396428D01*
X202950119Y-100396428D02*
X202188214Y-100396428D01*
X201712023Y-100396428D02*
X200950119Y-100396428D01*
X200473928Y-100396428D02*
X199712023Y-100396428D01*
X199235833Y-100396428D02*
X198473928Y-100396428D01*
X197997738Y-100396428D02*
X197235833Y-100396428D01*
X196759642Y-100396428D02*
X195997738Y-100396428D01*
X195521547Y-100396428D02*
X194759642Y-100396428D01*
X194283452Y-100396428D02*
X193521547Y-100396428D01*
X206140595Y-102427380D02*
X206712023Y-102427380D01*
X206426309Y-102427380D02*
X206426309Y-101427380D01*
X206521547Y-101570238D01*
X206616785Y-101665476D01*
X206712023Y-101713095D01*
X205521547Y-101427380D02*
X205426309Y-101427380D01*
X205331071Y-101475000D01*
X205283452Y-101522619D01*
X205235833Y-101617857D01*
X205188214Y-101808333D01*
X205188214Y-102046428D01*
X205235833Y-102236904D01*
X205283452Y-102332142D01*
X205331071Y-102379761D01*
X205426309Y-102427380D01*
X205521547Y-102427380D01*
X205616785Y-102379761D01*
X205664404Y-102332142D01*
X205712023Y-102236904D01*
X205759642Y-102046428D01*
X205759642Y-101808333D01*
X205712023Y-101617857D01*
X205664404Y-101522619D01*
X205616785Y-101475000D01*
X205521547Y-101427380D01*
X204902500Y-101522619D02*
X204712023Y-101379761D01*
X204521547Y-101522619D01*
X204188214Y-102046428D02*
X203426309Y-102046428D01*
X203045357Y-101427380D02*
X202426309Y-101427380D01*
X202759642Y-101808333D01*
X202616785Y-101808333D01*
X202521547Y-101855952D01*
X202473928Y-101903571D01*
X202426309Y-101998809D01*
X202426309Y-102236904D01*
X202473928Y-102332142D01*
X202521547Y-102379761D01*
X202616785Y-102427380D01*
X202902500Y-102427380D01*
X202997738Y-102379761D01*
X203045357Y-102332142D01*
X199712023Y-102427380D02*
X199712023Y-101760714D01*
X199712023Y-101855952D02*
X199664404Y-101808333D01*
X199569166Y-101760714D01*
X199426309Y-101760714D01*
X199331071Y-101808333D01*
X199283452Y-101903571D01*
X199283452Y-102427380D01*
X199283452Y-101903571D02*
X199235833Y-101808333D01*
X199140595Y-101760714D01*
X198997738Y-101760714D01*
X198902500Y-101808333D01*
X198854880Y-101903571D01*
X198854880Y-102427380D01*
X198378690Y-102427380D02*
X198378690Y-101760714D01*
X198378690Y-101427380D02*
X198426309Y-101475000D01*
X198378690Y-101522619D01*
X198331071Y-101475000D01*
X198378690Y-101427380D01*
X198378690Y-101522619D01*
X197759642Y-102427380D02*
X197854880Y-102379761D01*
X197902500Y-102284523D01*
X197902500Y-101427380D01*
X197378690Y-102427380D02*
X197378690Y-101760714D01*
X197378690Y-101427380D02*
X197426309Y-101475000D01*
X197378690Y-101522619D01*
X197331071Y-101475000D01*
X197378690Y-101427380D01*
X197378690Y-101522619D01*
X193854880Y-102427380D02*
X193854880Y-101760714D01*
X193854880Y-101855952D02*
X193807261Y-101808333D01*
X193712023Y-101760714D01*
X193569166Y-101760714D01*
X193473928Y-101808333D01*
X193426309Y-101903571D01*
X193426309Y-102427380D01*
X193426309Y-101903571D02*
X193378690Y-101808333D01*
X193283452Y-101760714D01*
X193140595Y-101760714D01*
X193045357Y-101808333D01*
X192997738Y-101903571D01*
X192997738Y-102427380D01*
X206140595Y-104077380D02*
X206712023Y-104077380D01*
X206426309Y-104077380D02*
X206426309Y-103077380D01*
X206521547Y-103220238D01*
X206616785Y-103315476D01*
X206712023Y-103363095D01*
X205521547Y-103077380D02*
X205426309Y-103077380D01*
X205331071Y-103125000D01*
X205283452Y-103172619D01*
X205235833Y-103267857D01*
X205188214Y-103458333D01*
X205188214Y-103696428D01*
X205235833Y-103886904D01*
X205283452Y-103982142D01*
X205331071Y-104029761D01*
X205426309Y-104077380D01*
X205521547Y-104077380D01*
X205616785Y-104029761D01*
X205664404Y-103982142D01*
X205712023Y-103886904D01*
X205759642Y-103696428D01*
X205759642Y-103458333D01*
X205712023Y-103267857D01*
X205664404Y-103172619D01*
X205616785Y-103125000D01*
X205521547Y-103077380D01*
X204902500Y-103172619D02*
X204712023Y-103029761D01*
X204521547Y-103172619D01*
X204188214Y-103696428D02*
X203426309Y-103696428D01*
X202521547Y-103077380D02*
X202712023Y-103077380D01*
X202807261Y-103125000D01*
X202854880Y-103172619D01*
X202950119Y-103315476D01*
X202997738Y-103505952D01*
X202997738Y-103886904D01*
X202950119Y-103982142D01*
X202902500Y-104029761D01*
X202807261Y-104077380D01*
X202616785Y-104077380D01*
X202521547Y-104029761D01*
X202473928Y-103982142D01*
X202426309Y-103886904D01*
X202426309Y-103648809D01*
X202473928Y-103553571D01*
X202521547Y-103505952D01*
X202616785Y-103458333D01*
X202807261Y-103458333D01*
X202902500Y-103505952D01*
X202950119Y-103553571D01*
X202997738Y-103648809D01*
X199712023Y-104077380D02*
X199712023Y-103410714D01*
X199712023Y-103505952D02*
X199664404Y-103458333D01*
X199569166Y-103410714D01*
X199426309Y-103410714D01*
X199331071Y-103458333D01*
X199283452Y-103553571D01*
X199283452Y-104077380D01*
X199283452Y-103553571D02*
X199235833Y-103458333D01*
X199140595Y-103410714D01*
X198997738Y-103410714D01*
X198902500Y-103458333D01*
X198854880Y-103553571D01*
X198854880Y-104077380D01*
X198378690Y-104077380D02*
X198378690Y-103410714D01*
X198378690Y-103077380D02*
X198426309Y-103125000D01*
X198378690Y-103172619D01*
X198331071Y-103125000D01*
X198378690Y-103077380D01*
X198378690Y-103172619D01*
X197473928Y-104029761D02*
X197569166Y-104077380D01*
X197759642Y-104077380D01*
X197854880Y-104029761D01*
X197902500Y-103982142D01*
X197950119Y-103886904D01*
X197950119Y-103601190D01*
X197902500Y-103505952D01*
X197854880Y-103458333D01*
X197759642Y-103410714D01*
X197569166Y-103410714D01*
X197473928Y-103458333D01*
X197045357Y-104077380D02*
X197045357Y-103410714D01*
X197045357Y-103601190D02*
X196997738Y-103505952D01*
X196950119Y-103458333D01*
X196854880Y-103410714D01*
X196759642Y-103410714D01*
X196283452Y-104077380D02*
X196378690Y-104029761D01*
X196426309Y-103982142D01*
X196473928Y-103886904D01*
X196473928Y-103601190D01*
X196426309Y-103505952D01*
X196378690Y-103458333D01*
X196283452Y-103410714D01*
X196140595Y-103410714D01*
X196045357Y-103458333D01*
X195997738Y-103505952D01*
X195950119Y-103601190D01*
X195950119Y-103886904D01*
X195997738Y-103982142D01*
X196045357Y-104029761D01*
X196140595Y-104077380D01*
X196283452Y-104077380D01*
X193997738Y-103410714D02*
X193997738Y-104410714D01*
X193521547Y-103934523D02*
X193473928Y-104029761D01*
X193378690Y-104077380D01*
X193997738Y-103934523D02*
X193950119Y-104029761D01*
X193854880Y-104077380D01*
X193664404Y-104077380D01*
X193569166Y-104029761D01*
X193521547Y-103934523D01*
X193521547Y-103410714D01*
X206140595Y-105727380D02*
X206712023Y-105727380D01*
X206426309Y-105727380D02*
X206426309Y-104727380D01*
X206521547Y-104870238D01*
X206616785Y-104965476D01*
X206712023Y-105013095D01*
X205521547Y-104727380D02*
X205426309Y-104727380D01*
X205331071Y-104775000D01*
X205283452Y-104822619D01*
X205235833Y-104917857D01*
X205188214Y-105108333D01*
X205188214Y-105346428D01*
X205235833Y-105536904D01*
X205283452Y-105632142D01*
X205331071Y-105679761D01*
X205426309Y-105727380D01*
X205521547Y-105727380D01*
X205616785Y-105679761D01*
X205664404Y-105632142D01*
X205712023Y-105536904D01*
X205759642Y-105346428D01*
X205759642Y-105108333D01*
X205712023Y-104917857D01*
X205664404Y-104822619D01*
X205616785Y-104775000D01*
X205521547Y-104727380D01*
X204902500Y-104822619D02*
X204712023Y-104679761D01*
X204521547Y-104822619D01*
X204188214Y-105346428D02*
X203426309Y-105346428D01*
X202902500Y-105727380D02*
X202712023Y-105727380D01*
X202616785Y-105679761D01*
X202569166Y-105632142D01*
X202473928Y-105489285D01*
X202426309Y-105298809D01*
X202426309Y-104917857D01*
X202473928Y-104822619D01*
X202521547Y-104775000D01*
X202616785Y-104727380D01*
X202807261Y-104727380D01*
X202902500Y-104775000D01*
X202950119Y-104822619D01*
X202997738Y-104917857D01*
X202997738Y-105155952D01*
X202950119Y-105251190D01*
X202902500Y-105298809D01*
X202807261Y-105346428D01*
X202616785Y-105346428D01*
X202521547Y-105298809D01*
X202473928Y-105251190D01*
X202426309Y-105155952D01*
X199712023Y-105060714D02*
X199712023Y-105727380D01*
X199712023Y-105155952D02*
X199664404Y-105108333D01*
X199569166Y-105060714D01*
X199426309Y-105060714D01*
X199331071Y-105108333D01*
X199283452Y-105203571D01*
X199283452Y-105727380D01*
X198378690Y-105727380D02*
X198378690Y-105203571D01*
X198426309Y-105108333D01*
X198521547Y-105060714D01*
X198712023Y-105060714D01*
X198807261Y-105108333D01*
X198378690Y-105679761D02*
X198473928Y-105727380D01*
X198712023Y-105727380D01*
X198807261Y-105679761D01*
X198854880Y-105584523D01*
X198854880Y-105489285D01*
X198807261Y-105394047D01*
X198712023Y-105346428D01*
X198473928Y-105346428D01*
X198378690Y-105298809D01*
X197902500Y-105060714D02*
X197902500Y-105727380D01*
X197902500Y-105155952D02*
X197854880Y-105108333D01*
X197759642Y-105060714D01*
X197616785Y-105060714D01*
X197521547Y-105108333D01*
X197473928Y-105203571D01*
X197473928Y-105727380D01*
X196854880Y-105727380D02*
X196950119Y-105679761D01*
X196997738Y-105632142D01*
X197045357Y-105536904D01*
X197045357Y-105251190D01*
X196997738Y-105155952D01*
X196950119Y-105108333D01*
X196854880Y-105060714D01*
X196712023Y-105060714D01*
X196616785Y-105108333D01*
X196569166Y-105155952D01*
X196521547Y-105251190D01*
X196521547Y-105536904D01*
X196569166Y-105632142D01*
X196616785Y-105679761D01*
X196712023Y-105727380D01*
X196854880Y-105727380D01*
X193807261Y-105060714D02*
X193807261Y-105727380D01*
X193807261Y-105155952D02*
X193759642Y-105108333D01*
X193664404Y-105060714D01*
X193521547Y-105060714D01*
X193426309Y-105108333D01*
X193378690Y-105203571D01*
X193378690Y-105727380D01*
X206140595Y-107377380D02*
X206712023Y-107377380D01*
X206426309Y-107377380D02*
X206426309Y-106377380D01*
X206521547Y-106520238D01*
X206616785Y-106615476D01*
X206712023Y-106663095D01*
X205521547Y-106377380D02*
X205426309Y-106377380D01*
X205331071Y-106425000D01*
X205283452Y-106472619D01*
X205235833Y-106567857D01*
X205188214Y-106758333D01*
X205188214Y-106996428D01*
X205235833Y-107186904D01*
X205283452Y-107282142D01*
X205331071Y-107329761D01*
X205426309Y-107377380D01*
X205521547Y-107377380D01*
X205616785Y-107329761D01*
X205664404Y-107282142D01*
X205712023Y-107186904D01*
X205759642Y-106996428D01*
X205759642Y-106758333D01*
X205712023Y-106567857D01*
X205664404Y-106472619D01*
X205616785Y-106425000D01*
X205521547Y-106377380D01*
X204902500Y-106472619D02*
X204712023Y-106329761D01*
X204521547Y-106472619D01*
X204188214Y-106996428D02*
X203426309Y-106996428D01*
X202426309Y-107377380D02*
X202997738Y-107377380D01*
X202712023Y-107377380D02*
X202712023Y-106377380D01*
X202807261Y-106520238D01*
X202902500Y-106615476D01*
X202997738Y-106663095D01*
X202045357Y-106472619D02*
X201997738Y-106425000D01*
X201902500Y-106377380D01*
X201664404Y-106377380D01*
X201569166Y-106425000D01*
X201521547Y-106472619D01*
X201473928Y-106567857D01*
X201473928Y-106663095D01*
X201521547Y-106805952D01*
X202092976Y-107377380D01*
X201473928Y-107377380D01*
X199521547Y-106710714D02*
X199521547Y-107710714D01*
X199521547Y-106758333D02*
X199426309Y-106710714D01*
X199235833Y-106710714D01*
X199140595Y-106758333D01*
X199092976Y-106805952D01*
X199045357Y-106901190D01*
X199045357Y-107186904D01*
X199092976Y-107282142D01*
X199140595Y-107329761D01*
X199235833Y-107377380D01*
X199426309Y-107377380D01*
X199521547Y-107329761D01*
X198616785Y-107377380D02*
X198616785Y-106710714D01*
X198616785Y-106377380D02*
X198664404Y-106425000D01*
X198616785Y-106472619D01*
X198569166Y-106425000D01*
X198616785Y-106377380D01*
X198616785Y-106472619D01*
X197712023Y-107329761D02*
X197807261Y-107377380D01*
X197997738Y-107377380D01*
X198092976Y-107329761D01*
X198140595Y-107282142D01*
X198188214Y-107186904D01*
X198188214Y-106901190D01*
X198140595Y-106805952D01*
X198092976Y-106758333D01*
X197997738Y-106710714D01*
X197807261Y-106710714D01*
X197712023Y-106758333D01*
X197140595Y-107377380D02*
X197235833Y-107329761D01*
X197283452Y-107282142D01*
X197331071Y-107186904D01*
X197331071Y-106901190D01*
X197283452Y-106805952D01*
X197235833Y-106758333D01*
X197140595Y-106710714D01*
X196997738Y-106710714D01*
X196902500Y-106758333D01*
X196854880Y-106805952D01*
X196807261Y-106901190D01*
X196807261Y-107186904D01*
X196854880Y-107282142D01*
X196902500Y-107329761D01*
X196997738Y-107377380D01*
X197140595Y-107377380D01*
X194092976Y-106710714D02*
X194092976Y-107710714D01*
X194092976Y-106758333D02*
X193997738Y-106710714D01*
X193807261Y-106710714D01*
X193712023Y-106758333D01*
X193664404Y-106805952D01*
X193616785Y-106901190D01*
X193616785Y-107186904D01*
X193664404Y-107282142D01*
X193712023Y-107329761D01*
X193807261Y-107377380D01*
X193997738Y-107377380D01*
X194092976Y-107329761D01*
X184759642Y-77302380D02*
X184521547Y-78302380D01*
X184331071Y-77588095D01*
X184140595Y-78302380D01*
X183902500Y-77302380D01*
X183092976Y-78302380D02*
X183092976Y-77778571D01*
X183140595Y-77683333D01*
X183235833Y-77635714D01*
X183426309Y-77635714D01*
X183521547Y-77683333D01*
X183092976Y-78254761D02*
X183188214Y-78302380D01*
X183426309Y-78302380D01*
X183521547Y-78254761D01*
X183569166Y-78159523D01*
X183569166Y-78064285D01*
X183521547Y-77969047D01*
X183426309Y-77921428D01*
X183188214Y-77921428D01*
X183092976Y-77873809D01*
X182712023Y-77635714D02*
X182473928Y-78302380D01*
X182235833Y-77635714D01*
X181473928Y-78254761D02*
X181569166Y-78302380D01*
X181759642Y-78302380D01*
X181854880Y-78254761D01*
X181902500Y-78159523D01*
X181902500Y-77778571D01*
X181854880Y-77683333D01*
X181759642Y-77635714D01*
X181569166Y-77635714D01*
X181473928Y-77683333D01*
X181426309Y-77778571D01*
X181426309Y-77873809D01*
X181902500Y-77969047D01*
X180854880Y-78302380D02*
X180950119Y-78254761D01*
X180997738Y-78159523D01*
X180997738Y-77302380D01*
X180092976Y-78254761D02*
X180188214Y-78302380D01*
X180378690Y-78302380D01*
X180473928Y-78254761D01*
X180521547Y-78159523D01*
X180521547Y-77778571D01*
X180473928Y-77683333D01*
X180378690Y-77635714D01*
X180188214Y-77635714D01*
X180092976Y-77683333D01*
X180045357Y-77778571D01*
X180045357Y-77873809D01*
X180521547Y-77969047D01*
X179616785Y-77635714D02*
X179616785Y-78302380D01*
X179616785Y-77730952D02*
X179569166Y-77683333D01*
X179473928Y-77635714D01*
X179331071Y-77635714D01*
X179235833Y-77683333D01*
X179188214Y-77778571D01*
X179188214Y-78302380D01*
X178283452Y-77635714D02*
X178283452Y-78445238D01*
X178331071Y-78540476D01*
X178378690Y-78588095D01*
X178473928Y-78635714D01*
X178616785Y-78635714D01*
X178712023Y-78588095D01*
X178283452Y-78254761D02*
X178378690Y-78302380D01*
X178569166Y-78302380D01*
X178664404Y-78254761D01*
X178712023Y-78207142D01*
X178759642Y-78111904D01*
X178759642Y-77826190D01*
X178712023Y-77730952D01*
X178664404Y-77683333D01*
X178569166Y-77635714D01*
X178378690Y-77635714D01*
X178283452Y-77683333D01*
X177950119Y-77635714D02*
X177569166Y-77635714D01*
X177807261Y-77302380D02*
X177807261Y-78159523D01*
X177759642Y-78254761D01*
X177664404Y-78302380D01*
X177569166Y-78302380D01*
X177235833Y-78302380D02*
X177235833Y-77302380D01*
X176807261Y-78302380D02*
X176807261Y-77778571D01*
X176854880Y-77683333D01*
X176950119Y-77635714D01*
X177092976Y-77635714D01*
X177188214Y-77683333D01*
X177235833Y-77730952D01*
X184521547Y-79285714D02*
X184759642Y-79952380D01*
X184759642Y-78952380D02*
X184664404Y-78952380D01*
X184616785Y-79000000D01*
X184521547Y-79285714D01*
X184283452Y-79952380D01*
X183616785Y-80285714D02*
X183854880Y-80285714D01*
X183854880Y-78857142D01*
X183616785Y-78857142D01*
X183235833Y-79952380D02*
X183235833Y-79285714D01*
X183235833Y-79380952D02*
X183188214Y-79333333D01*
X183092976Y-79285714D01*
X182950119Y-79285714D01*
X182854880Y-79333333D01*
X182807261Y-79428571D01*
X182807261Y-79952380D01*
X182807261Y-79428571D02*
X182759642Y-79333333D01*
X182664404Y-79285714D01*
X182521547Y-79285714D01*
X182426309Y-79333333D01*
X182378690Y-79428571D01*
X182378690Y-79952380D01*
X181997738Y-80285714D02*
X181759642Y-80285714D01*
X181759642Y-78857142D01*
X181997738Y-78857142D01*
X180473928Y-79428571D02*
X179712023Y-79428571D01*
X179712023Y-79714285D02*
X180473928Y-79714285D01*
X178045357Y-79904761D02*
X178140595Y-79952380D01*
X178331071Y-79952380D01*
X178426309Y-79904761D01*
X178473928Y-79857142D01*
X178521547Y-79761904D01*
X178521547Y-79476190D01*
X178473928Y-79380952D01*
X178426309Y-79333333D01*
X178331071Y-79285714D01*
X178140595Y-79285714D01*
X178045357Y-79333333D01*
X176902500Y-78904761D02*
X177759642Y-80190476D01*
X176712023Y-79285714D02*
X176331071Y-79285714D01*
X176569166Y-79952380D02*
X176569166Y-79095238D01*
X176521547Y-79000000D01*
X176426309Y-78952380D01*
X176331071Y-78952380D01*
X175712023Y-80285714D02*
X175950119Y-80285714D01*
X175950119Y-78857142D01*
X175712023Y-78857142D01*
X175331071Y-79952380D02*
X175331071Y-78952380D01*
X175331071Y-79428571D02*
X174759642Y-79428571D01*
X174759642Y-79952380D02*
X174759642Y-78952380D01*
X174378690Y-79285714D02*
X173854880Y-79285714D01*
X174378690Y-79952380D01*
X173854880Y-79952380D01*
X173569166Y-80285714D02*
X173331071Y-80285714D01*
X173331071Y-78857142D01*
X173569166Y-78857142D01*
X184235833Y-81554761D02*
X184331071Y-81602380D01*
X184521547Y-81602380D01*
X184616785Y-81554761D01*
X184664404Y-81507142D01*
X184712023Y-81411904D01*
X184712023Y-81126190D01*
X184664404Y-81030952D01*
X184616785Y-80983333D01*
X184521547Y-80935714D01*
X184331071Y-80935714D01*
X184235833Y-80983333D01*
X183045357Y-81078571D02*
X182283452Y-81078571D01*
X182283452Y-81364285D02*
X183045357Y-81364285D01*
X181092976Y-80697619D02*
X181045357Y-80650000D01*
X180950119Y-80602380D01*
X180712023Y-80602380D01*
X180616785Y-80650000D01*
X180569166Y-80697619D01*
X180521547Y-80792857D01*
X180521547Y-80888095D01*
X180569166Y-81030952D01*
X181140595Y-81602380D01*
X180521547Y-81602380D01*
X180045357Y-81602380D02*
X179854880Y-81602380D01*
X179759642Y-81554761D01*
X179712023Y-81507142D01*
X179616785Y-81364285D01*
X179569166Y-81173809D01*
X179569166Y-80792857D01*
X179616785Y-80697619D01*
X179664404Y-80650000D01*
X179759642Y-80602380D01*
X179950119Y-80602380D01*
X180045357Y-80650000D01*
X180092976Y-80697619D01*
X180140595Y-80792857D01*
X180140595Y-81030952D01*
X180092976Y-81126190D01*
X180045357Y-81173809D01*
X179950119Y-81221428D01*
X179759642Y-81221428D01*
X179664404Y-81173809D01*
X179616785Y-81126190D01*
X179569166Y-81030952D01*
X179092976Y-81602380D02*
X178902500Y-81602380D01*
X178807261Y-81554761D01*
X178759642Y-81507142D01*
X178664404Y-81364285D01*
X178616785Y-81173809D01*
X178616785Y-80792857D01*
X178664404Y-80697619D01*
X178712023Y-80650000D01*
X178807261Y-80602380D01*
X178997738Y-80602380D01*
X179092976Y-80650000D01*
X179140595Y-80697619D01*
X179188214Y-80792857D01*
X179188214Y-81030952D01*
X179140595Y-81126190D01*
X179092976Y-81173809D01*
X178997738Y-81221428D01*
X178807261Y-81221428D01*
X178712023Y-81173809D01*
X178664404Y-81126190D01*
X178616785Y-81030952D01*
X178140595Y-80602380D02*
X178235833Y-80792857D01*
X177807261Y-80602380D02*
X177140595Y-80602380D01*
X177569166Y-81602380D01*
X176712023Y-81602380D02*
X176521547Y-81602380D01*
X176426309Y-81554761D01*
X176378690Y-81507142D01*
X176283452Y-81364285D01*
X176235833Y-81173809D01*
X176235833Y-80792857D01*
X176283452Y-80697619D01*
X176331071Y-80650000D01*
X176426309Y-80602380D01*
X176616785Y-80602380D01*
X176712023Y-80650000D01*
X176759642Y-80697619D01*
X176807261Y-80792857D01*
X176807261Y-81030952D01*
X176759642Y-81126190D01*
X176712023Y-81173809D01*
X176616785Y-81221428D01*
X176426309Y-81221428D01*
X176331071Y-81173809D01*
X176283452Y-81126190D01*
X176235833Y-81030952D01*
X175854880Y-80697619D02*
X175807261Y-80650000D01*
X175712023Y-80602380D01*
X175473928Y-80602380D01*
X175378690Y-80650000D01*
X175331071Y-80697619D01*
X175283452Y-80792857D01*
X175283452Y-80888095D01*
X175331071Y-81030952D01*
X175902500Y-81602380D01*
X175283452Y-81602380D01*
X174807261Y-80602380D02*
X174902500Y-80792857D01*
X173950119Y-80935714D02*
X173950119Y-81602380D01*
X174188214Y-80554761D02*
X174426309Y-81269047D01*
X173807261Y-81269047D01*
X172950119Y-80602380D02*
X173426309Y-80602380D01*
X173473928Y-81078571D01*
X173426309Y-81030952D01*
X173331071Y-80983333D01*
X173092976Y-80983333D01*
X172997738Y-81030952D01*
X172950119Y-81078571D01*
X172902500Y-81173809D01*
X172902500Y-81411904D01*
X172950119Y-81507142D01*
X172997738Y-81554761D01*
X173092976Y-81602380D01*
X173331071Y-81602380D01*
X173426309Y-81554761D01*
X173473928Y-81507142D01*
X172331071Y-81030952D02*
X172426309Y-80983333D01*
X172473928Y-80935714D01*
X172521547Y-80840476D01*
X172521547Y-80792857D01*
X172473928Y-80697619D01*
X172426309Y-80650000D01*
X172331071Y-80602380D01*
X172140595Y-80602380D01*
X172045357Y-80650000D01*
X171997738Y-80697619D01*
X171950119Y-80792857D01*
X171950119Y-80840476D01*
X171997738Y-80935714D01*
X172045357Y-80983333D01*
X172140595Y-81030952D01*
X172331071Y-81030952D01*
X172426309Y-81078571D01*
X172473928Y-81126190D01*
X172521547Y-81221428D01*
X172521547Y-81411904D01*
X172473928Y-81507142D01*
X172426309Y-81554761D01*
X172331071Y-81602380D01*
X172140595Y-81602380D01*
X172045357Y-81554761D01*
X171997738Y-81507142D01*
X171950119Y-81411904D01*
X171950119Y-81221428D01*
X171997738Y-81126190D01*
X172045357Y-81078571D01*
X172140595Y-81030952D01*
X170759642Y-81602380D02*
X170759642Y-80935714D01*
X170759642Y-81030952D02*
X170712023Y-80983333D01*
X170616785Y-80935714D01*
X170473928Y-80935714D01*
X170378690Y-80983333D01*
X170331071Y-81078571D01*
X170331071Y-81602380D01*
X170331071Y-81078571D02*
X170283452Y-80983333D01*
X170188214Y-80935714D01*
X170045357Y-80935714D01*
X169950119Y-80983333D01*
X169902500Y-81078571D01*
X169902500Y-81602380D01*
X168712023Y-80554761D02*
X169569166Y-81840476D01*
X168426309Y-81554761D02*
X168331071Y-81602380D01*
X168140595Y-81602380D01*
X168045357Y-81554761D01*
X167997738Y-81459523D01*
X167997738Y-81411904D01*
X168045357Y-81316666D01*
X168140595Y-81269047D01*
X168283452Y-81269047D01*
X168378690Y-81221428D01*
X168426309Y-81126190D01*
X168426309Y-81078571D01*
X168378690Y-80983333D01*
X168283452Y-80935714D01*
X168140595Y-80935714D01*
X168045357Y-80983333D01*
X192476190Y-121952380D02*
X192476190Y-122761904D01*
X192428571Y-122857142D01*
X192380952Y-122904761D01*
X192285714Y-122952380D01*
X192095238Y-122952380D01*
X192000000Y-122904761D01*
X191952380Y-122857142D01*
X191904761Y-122761904D01*
X191904761Y-121952380D01*
X191285714Y-122952380D02*
X191380952Y-122904761D01*
X191428571Y-122857142D01*
X191476190Y-122761904D01*
X191476190Y-122476190D01*
X191428571Y-122380952D01*
X191380952Y-122333333D01*
X191285714Y-122285714D01*
X191142857Y-122285714D01*
X191047619Y-122333333D01*
X191000000Y-122380952D01*
X190952380Y-122476190D01*
X190952380Y-122761904D01*
X191000000Y-122857142D01*
X191047619Y-122904761D01*
X191142857Y-122952380D01*
X191285714Y-122952380D01*
X190095238Y-122285714D02*
X190095238Y-122952380D01*
X190523809Y-122285714D02*
X190523809Y-122809523D01*
X190476190Y-122904761D01*
X190380952Y-122952380D01*
X190238095Y-122952380D01*
X190142857Y-122904761D01*
X190095238Y-122857142D01*
X189761904Y-122285714D02*
X189380952Y-122285714D01*
X189619047Y-121952380D02*
X189619047Y-122809523D01*
X189571428Y-122904761D01*
X189476190Y-122952380D01*
X189380952Y-122952380D01*
X199476190Y-116452380D02*
X199476190Y-117261904D01*
X199428571Y-117357142D01*
X199380952Y-117404761D01*
X199285714Y-117452380D01*
X199095238Y-117452380D01*
X199000000Y-117404761D01*
X198952380Y-117357142D01*
X198904761Y-117261904D01*
X198904761Y-116452380D01*
X198428571Y-117452380D02*
X198428571Y-116785714D01*
X198428571Y-116452380D02*
X198476190Y-116500000D01*
X198428571Y-116547619D01*
X198380952Y-116500000D01*
X198428571Y-116452380D01*
X198428571Y-116547619D01*
X197952380Y-116785714D02*
X197952380Y-117452380D01*
X197952380Y-116880952D02*
X197904761Y-116833333D01*
X197809523Y-116785714D01*
X197666666Y-116785714D01*
X197571428Y-116833333D01*
X197523809Y-116928571D01*
X197523809Y-117452380D01*
X196666666Y-125452380D02*
X197000000Y-124976190D01*
X197238095Y-125452380D02*
X197238095Y-124452380D01*
X196857142Y-124452380D01*
X196761904Y-124500000D01*
X196714285Y-124547619D01*
X196666666Y-124642857D01*
X196666666Y-124785714D01*
X196714285Y-124880952D01*
X196761904Y-124928571D01*
X196857142Y-124976190D01*
X197238095Y-124976190D01*
X196285714Y-124547619D02*
X196238095Y-124500000D01*
X196142857Y-124452380D01*
X195904761Y-124452380D01*
X195809523Y-124500000D01*
X195761904Y-124547619D01*
X195714285Y-124642857D01*
X195714285Y-124738095D01*
X195761904Y-124880952D01*
X196333333Y-125452380D01*
X195714285Y-125452380D01*
X196666666Y-120452380D02*
X197000000Y-119976190D01*
X197238095Y-120452380D02*
X197238095Y-119452380D01*
X196857142Y-119452380D01*
X196761904Y-119500000D01*
X196714285Y-119547619D01*
X196666666Y-119642857D01*
X196666666Y-119785714D01*
X196714285Y-119880952D01*
X196761904Y-119928571D01*
X196857142Y-119976190D01*
X197238095Y-119976190D01*
X195714285Y-120452380D02*
X196285714Y-120452380D01*
X196000000Y-120452380D02*
X196000000Y-119452380D01*
X196095238Y-119595238D01*
X196190476Y-119690476D01*
X196285714Y-119738095D01*
D10*
X195000000Y-117000000D02*
X195000000Y-118500000D01*
X197000000Y-117000000D02*
X195000000Y-117000000D01*
X195000000Y-128000000D02*
X197000000Y-128000000D01*
X195000000Y-128000000D02*
X193000000Y-128000000D01*
X195000000Y-126500000D02*
X195000000Y-128000000D01*
X195000000Y-122500000D02*
X193000000Y-122500000D01*
X195000000Y-123500000D02*
X195000000Y-122500000D01*
X195000000Y-121500000D02*
X195000000Y-123500000D01*
X195500000Y-126500000D02*
X195500000Y-123500000D01*
X194500000Y-126500000D02*
X195500000Y-126500000D01*
X194500000Y-123500000D02*
X194500000Y-126500000D01*
X195500000Y-123500000D02*
X194500000Y-123500000D01*
X195500000Y-121500000D02*
X195500000Y-118500000D01*
X194500000Y-121500000D02*
X195500000Y-121500000D01*
X194500000Y-118500000D02*
X194500000Y-121500000D01*
X195500000Y-118500000D02*
X194500000Y-118500000D01*
D11*
X206807261Y-112627380D02*
X206473928Y-113627380D01*
X206140595Y-112627380D01*
X205664404Y-113627380D02*
X205759642Y-113579761D01*
X205807261Y-113532142D01*
X205854880Y-113436904D01*
X205854880Y-113151190D01*
X205807261Y-113055952D01*
X205759642Y-113008333D01*
X205664404Y-112960714D01*
X205521547Y-112960714D01*
X205426309Y-113008333D01*
X205378690Y-113055952D01*
X205331071Y-113151190D01*
X205331071Y-113436904D01*
X205378690Y-113532142D01*
X205426309Y-113579761D01*
X205521547Y-113627380D01*
X205664404Y-113627380D01*
X204759642Y-113627380D02*
X204854880Y-113579761D01*
X204902500Y-113484523D01*
X204902500Y-112627380D01*
X204521547Y-112960714D02*
X204140595Y-112960714D01*
X204378690Y-112627380D02*
X204378690Y-113484523D01*
X204331071Y-113579761D01*
X204235833Y-113627380D01*
X204140595Y-113627380D01*
X203378690Y-113627380D02*
X203378690Y-113103571D01*
X203426309Y-113008333D01*
X203521547Y-112960714D01*
X203712023Y-112960714D01*
X203807261Y-113008333D01*
X203378690Y-113579761D02*
X203473928Y-113627380D01*
X203712023Y-113627380D01*
X203807261Y-113579761D01*
X203854880Y-113484523D01*
X203854880Y-113389285D01*
X203807261Y-113294047D01*
X203712023Y-113246428D01*
X203473928Y-113246428D01*
X203378690Y-113198809D01*
X202473928Y-112960714D02*
X202473928Y-113770238D01*
X202521547Y-113865476D01*
X202569166Y-113913095D01*
X202664404Y-113960714D01*
X202807261Y-113960714D01*
X202902500Y-113913095D01*
X202473928Y-113579761D02*
X202569166Y-113627380D01*
X202759642Y-113627380D01*
X202854880Y-113579761D01*
X202902500Y-113532142D01*
X202950119Y-113436904D01*
X202950119Y-113151190D01*
X202902500Y-113055952D01*
X202854880Y-113008333D01*
X202759642Y-112960714D01*
X202569166Y-112960714D01*
X202473928Y-113008333D01*
X201616785Y-113579761D02*
X201712023Y-113627380D01*
X201902500Y-113627380D01*
X201997738Y-113579761D01*
X202045357Y-113484523D01*
X202045357Y-113103571D01*
X201997738Y-113008333D01*
X201902500Y-112960714D01*
X201712023Y-112960714D01*
X201616785Y-113008333D01*
X201569166Y-113103571D01*
X201569166Y-113198809D01*
X202045357Y-113294047D01*
X200378690Y-113627380D02*
X200378690Y-112627380D01*
X200140595Y-112627380D01*
X199997738Y-112675000D01*
X199902500Y-112770238D01*
X199854880Y-112865476D01*
X199807261Y-113055952D01*
X199807261Y-113198809D01*
X199854880Y-113389285D01*
X199902500Y-113484523D01*
X199997738Y-113579761D01*
X200140595Y-113627380D01*
X200378690Y-113627380D01*
X199378690Y-113627380D02*
X199378690Y-112960714D01*
X199378690Y-112627380D02*
X199426309Y-112675000D01*
X199378690Y-112722619D01*
X199331071Y-112675000D01*
X199378690Y-112627380D01*
X199378690Y-112722619D01*
X198997738Y-112960714D02*
X198759642Y-113627380D01*
X198521547Y-112960714D01*
X198140595Y-113627380D02*
X198140595Y-112960714D01*
X198140595Y-112627380D02*
X198188214Y-112675000D01*
X198140595Y-112722619D01*
X198092976Y-112675000D01*
X198140595Y-112627380D01*
X198140595Y-112722619D01*
X197235833Y-113627380D02*
X197235833Y-112627380D01*
X197235833Y-113579761D02*
X197331071Y-113627380D01*
X197521547Y-113627380D01*
X197616785Y-113579761D01*
X197664404Y-113532142D01*
X197712023Y-113436904D01*
X197712023Y-113151190D01*
X197664404Y-113055952D01*
X197616785Y-113008333D01*
X197521547Y-112960714D01*
X197331071Y-112960714D01*
X197235833Y-113008333D01*
X196378690Y-113579761D02*
X196473928Y-113627380D01*
X196664404Y-113627380D01*
X196759642Y-113579761D01*
X196807261Y-113484523D01*
X196807261Y-113103571D01*
X196759642Y-113008333D01*
X196664404Y-112960714D01*
X196473928Y-112960714D01*
X196378690Y-113008333D01*
X196331071Y-113103571D01*
X196331071Y-113198809D01*
X196807261Y-113294047D01*
X195902500Y-113627380D02*
X195902500Y-112960714D01*
X195902500Y-113151190D02*
X195854880Y-113055952D01*
X195807261Y-113008333D01*
X195712023Y-112960714D01*
X195616785Y-112960714D01*
X206664404Y-114277380D02*
X206664404Y-115086904D01*
X206616785Y-115182142D01*
X206569166Y-115229761D01*
X206473928Y-115277380D01*
X206283452Y-115277380D01*
X206188214Y-115229761D01*
X206140595Y-115182142D01*
X206092976Y-115086904D01*
X206092976Y-114277380D01*
X205473928Y-115277380D02*
X205569166Y-115229761D01*
X205616785Y-115182142D01*
X205664404Y-115086904D01*
X205664404Y-114801190D01*
X205616785Y-114705952D01*
X205569166Y-114658333D01*
X205473928Y-114610714D01*
X205331071Y-114610714D01*
X205235833Y-114658333D01*
X205188214Y-114705952D01*
X205140595Y-114801190D01*
X205140595Y-115086904D01*
X205188214Y-115182142D01*
X205235833Y-115229761D01*
X205331071Y-115277380D01*
X205473928Y-115277380D01*
X204283452Y-114610714D02*
X204283452Y-115277380D01*
X204712023Y-114610714D02*
X204712023Y-115134523D01*
X204664404Y-115229761D01*
X204569166Y-115277380D01*
X204426309Y-115277380D01*
X204331071Y-115229761D01*
X204283452Y-115182142D01*
X203950119Y-114610714D02*
X203569166Y-114610714D01*
X203807261Y-114277380D02*
X203807261Y-115134523D01*
X203759642Y-115229761D01*
X203664404Y-115277380D01*
X203569166Y-115277380D01*
X202473928Y-114753571D02*
X201712023Y-114753571D01*
X201712023Y-115039285D02*
X202473928Y-115039285D01*
X200188214Y-115658333D02*
X200235833Y-115610714D01*
X200331071Y-115467857D01*
X200378690Y-115372619D01*
X200426309Y-115229761D01*
X200473928Y-114991666D01*
X200473928Y-114801190D01*
X200426309Y-114563095D01*
X200378690Y-114420238D01*
X200331071Y-114325000D01*
X200235833Y-114182142D01*
X200188214Y-114134523D01*
X199807261Y-114277380D02*
X199807261Y-115086904D01*
X199759642Y-115182142D01*
X199712023Y-115229761D01*
X199616785Y-115277380D01*
X199426309Y-115277380D01*
X199331071Y-115229761D01*
X199283452Y-115182142D01*
X199235833Y-115086904D01*
X199235833Y-114277380D01*
X198759642Y-115277380D02*
X198759642Y-114610714D01*
X198759642Y-114277380D02*
X198807261Y-114325000D01*
X198759642Y-114372619D01*
X198712023Y-114325000D01*
X198759642Y-114277380D01*
X198759642Y-114372619D01*
X198283452Y-114610714D02*
X198283452Y-115277380D01*
X198283452Y-114705952D02*
X198235833Y-114658333D01*
X198140595Y-114610714D01*
X197997738Y-114610714D01*
X197902500Y-114658333D01*
X197854880Y-114753571D01*
X197854880Y-115277380D01*
X197235833Y-114277380D02*
X197235833Y-114515476D01*
X197473928Y-114420238D02*
X197235833Y-114515476D01*
X196997738Y-114420238D01*
X197378690Y-114705952D02*
X197235833Y-114515476D01*
X197092976Y-114705952D01*
X196045357Y-115277380D02*
X196378690Y-114801190D01*
X196616785Y-115277380D02*
X196616785Y-114277380D01*
X196235833Y-114277380D01*
X196140595Y-114325000D01*
X196092976Y-114372619D01*
X196045357Y-114467857D01*
X196045357Y-114610714D01*
X196092976Y-114705952D01*
X196140595Y-114753571D01*
X196235833Y-114801190D01*
X196616785Y-114801190D01*
X195664404Y-114372619D02*
X195616785Y-114325000D01*
X195521547Y-114277380D01*
X195283452Y-114277380D01*
X195188214Y-114325000D01*
X195140595Y-114372619D01*
X195092976Y-114467857D01*
X195092976Y-114563095D01*
X195140595Y-114705952D01*
X195712023Y-115277380D01*
X195092976Y-115277380D01*
X194759642Y-115658333D02*
X194712023Y-115610714D01*
X194616785Y-115467857D01*
X194569166Y-115372619D01*
X194521547Y-115229761D01*
X194473928Y-114991666D01*
X194473928Y-114801190D01*
X194521547Y-114563095D01*
X194569166Y-114420238D01*
X194616785Y-114325000D01*
X194712023Y-114182142D01*
X194759642Y-114134523D01*
X193283452Y-114229761D02*
X194140595Y-115515476D01*
X192664404Y-115658333D02*
X192712023Y-115610714D01*
X192807261Y-115467857D01*
X192854880Y-115372619D01*
X192902500Y-115229761D01*
X192950119Y-114991666D01*
X192950119Y-114801190D01*
X192902500Y-114563095D01*
X192854880Y-114420238D01*
X192807261Y-114325000D01*
X192712023Y-114182142D01*
X192664404Y-114134523D01*
X191712023Y-115277380D02*
X192045357Y-114801190D01*
X192283452Y-115277380D02*
X192283452Y-114277380D01*
X191902500Y-114277380D01*
X191807261Y-114325000D01*
X191759642Y-114372619D01*
X191712023Y-114467857D01*
X191712023Y-114610714D01*
X191759642Y-114705952D01*
X191807261Y-114753571D01*
X191902500Y-114801190D01*
X192283452Y-114801190D01*
X190759642Y-115277380D02*
X191331071Y-115277380D01*
X191045357Y-115277380D02*
X191045357Y-114277380D01*
X191140595Y-114420238D01*
X191235833Y-114515476D01*
X191331071Y-114563095D01*
X190331071Y-114896428D02*
X189569166Y-114896428D01*
X189950119Y-115277380D02*
X189950119Y-114515476D01*
X188521547Y-115277380D02*
X188854880Y-114801190D01*
X189092976Y-115277380D02*
X189092976Y-114277380D01*
X188712023Y-114277380D01*
X188616785Y-114325000D01*
X188569166Y-114372619D01*
X188521547Y-114467857D01*
X188521547Y-114610714D01*
X188569166Y-114705952D01*
X188616785Y-114753571D01*
X188712023Y-114801190D01*
X189092976Y-114801190D01*
X188140595Y-114372619D02*
X188092976Y-114325000D01*
X187997738Y-114277380D01*
X187759642Y-114277380D01*
X187664404Y-114325000D01*
X187616785Y-114372619D01*
X187569166Y-114467857D01*
X187569166Y-114563095D01*
X187616785Y-114705952D01*
X188188214Y-115277380D01*
X187569166Y-115277380D01*
X187235833Y-115658333D02*
X187188214Y-115610714D01*
X187092976Y-115467857D01*
X187045357Y-115372619D01*
X186997738Y-115229761D01*
X186950119Y-114991666D01*
X186950119Y-114801190D01*
X186997738Y-114563095D01*
X187045357Y-114420238D01*
X187092976Y-114325000D01*
X187188214Y-114182142D01*
X187235833Y-114134523D01*
X206664404Y-83477380D02*
X206664404Y-82477380D01*
X206283452Y-82477380D01*
X206188214Y-82525000D01*
X206140595Y-82572619D01*
X206092976Y-82667857D01*
X206092976Y-82810714D01*
X206140595Y-82905952D01*
X206188214Y-82953571D01*
X206283452Y-83001190D01*
X206664404Y-83001190D01*
X205521547Y-83477380D02*
X205616785Y-83429761D01*
X205664404Y-83382142D01*
X205712023Y-83286904D01*
X205712023Y-83001190D01*
X205664404Y-82905952D01*
X205616785Y-82858333D01*
X205521547Y-82810714D01*
X205378690Y-82810714D01*
X205283452Y-82858333D01*
X205235833Y-82905952D01*
X205188214Y-83001190D01*
X205188214Y-83286904D01*
X205235833Y-83382142D01*
X205283452Y-83429761D01*
X205378690Y-83477380D01*
X205521547Y-83477380D01*
X204854880Y-82810714D02*
X204664404Y-83477380D01*
X204473928Y-83001190D01*
X204283452Y-83477380D01*
X204092976Y-82810714D01*
X203331071Y-83429761D02*
X203426309Y-83477380D01*
X203616785Y-83477380D01*
X203712023Y-83429761D01*
X203759642Y-83334523D01*
X203759642Y-82953571D01*
X203712023Y-82858333D01*
X203616785Y-82810714D01*
X203426309Y-82810714D01*
X203331071Y-82858333D01*
X203283452Y-82953571D01*
X203283452Y-83048809D01*
X203759642Y-83144047D01*
X202854880Y-83477380D02*
X202854880Y-82810714D01*
X202854880Y-83001190D02*
X202807261Y-82905952D01*
X202759642Y-82858333D01*
X202664404Y-82810714D01*
X202569166Y-82810714D01*
X206664404Y-85127380D02*
X206664404Y-84127380D01*
X206283452Y-84127380D01*
X206188214Y-84175000D01*
X206140595Y-84222619D01*
X206092976Y-84317857D01*
X206092976Y-84460714D01*
X206140595Y-84555952D01*
X206188214Y-84603571D01*
X206283452Y-84651190D01*
X206664404Y-84651190D01*
X205378690Y-85460714D02*
X205616785Y-85460714D01*
X205616785Y-84032142D01*
X205378690Y-84032142D01*
X205092976Y-84127380D02*
X204854880Y-85127380D01*
X204664404Y-84413095D01*
X204473928Y-85127380D01*
X204235833Y-84127380D01*
X203950119Y-85460714D02*
X203712023Y-85460714D01*
X203712023Y-84032142D01*
X203950119Y-84032142D01*
X202426309Y-84603571D02*
X201664404Y-84603571D01*
X201664404Y-84889285D02*
X202426309Y-84889285D01*
X200426309Y-84127380D02*
X200426309Y-84936904D01*
X200378690Y-85032142D01*
X200331071Y-85079761D01*
X200235833Y-85127380D01*
X200045357Y-85127380D01*
X199950119Y-85079761D01*
X199902500Y-85032142D01*
X199854880Y-84936904D01*
X199854880Y-84127380D01*
X199092976Y-85460714D02*
X199331071Y-85460714D01*
X199331071Y-84032142D01*
X199092976Y-84032142D01*
X198854880Y-84127380D02*
X198521547Y-85127380D01*
X198188214Y-84127380D01*
X197950119Y-85460714D02*
X197712023Y-85460714D01*
X197712023Y-84032142D01*
X197950119Y-84032142D01*
X196283452Y-84127380D02*
X196283452Y-84365476D01*
X196521547Y-84270238D02*
X196283452Y-84365476D01*
X196045357Y-84270238D01*
X196426309Y-84555952D02*
X196283452Y-84365476D01*
X196140595Y-84555952D01*
X194902500Y-85127380D02*
X194902500Y-84127380D01*
X194140595Y-85460714D02*
X194378690Y-85460714D01*
X194378690Y-84032142D01*
X194140595Y-84032142D01*
X193807261Y-84841666D02*
X193331071Y-84841666D01*
X193902500Y-85127380D02*
X193569166Y-84127380D01*
X193235833Y-85127380D01*
X192997738Y-85460714D02*
X192759642Y-85460714D01*
X192759642Y-84032142D01*
X192997738Y-84032142D01*
X206664404Y-86777380D02*
X206664404Y-85777380D01*
X206283452Y-85777380D01*
X206188214Y-85825000D01*
X206140595Y-85872619D01*
X206092976Y-85967857D01*
X206092976Y-86110714D01*
X206140595Y-86205952D01*
X206188214Y-86253571D01*
X206283452Y-86301190D01*
X206664404Y-86301190D01*
X205378690Y-87110714D02*
X205616785Y-87110714D01*
X205616785Y-85682142D01*
X205378690Y-85682142D01*
X205092976Y-85777380D02*
X204854880Y-86777380D01*
X204664404Y-86063095D01*
X204473928Y-86777380D01*
X204235833Y-85777380D01*
X203950119Y-87110714D02*
X203712023Y-87110714D01*
X203712023Y-85682142D01*
X203950119Y-85682142D01*
X202426309Y-86253571D02*
X201664404Y-86253571D01*
X201664404Y-86539285D02*
X202426309Y-86539285D01*
X200426309Y-86777380D02*
X200426309Y-85777380D01*
X199664404Y-87110714D02*
X199902500Y-87110714D01*
X199902500Y-85682142D01*
X199664404Y-85682142D01*
X199331071Y-86491666D02*
X198854880Y-86491666D01*
X199426309Y-86777380D02*
X199092976Y-85777380D01*
X198759642Y-86777380D01*
X198521547Y-87110714D02*
X198283452Y-87110714D01*
X198283452Y-85682142D01*
X198521547Y-85682142D01*
X197902500Y-85872619D02*
X197712023Y-85729761D01*
X197521547Y-85872619D01*
X197235833Y-85872619D02*
X197188214Y-85825000D01*
X197092976Y-85777380D01*
X196854880Y-85777380D01*
X196759642Y-85825000D01*
X196712023Y-85872619D01*
X196664404Y-85967857D01*
X196664404Y-86063095D01*
X196712023Y-86205952D01*
X197283452Y-86777380D01*
X196664404Y-86777380D01*
X196092976Y-85777380D02*
X196092976Y-86015476D01*
X196331071Y-85920238D02*
X196092976Y-86015476D01*
X195854880Y-85920238D01*
X196235833Y-86205952D02*
X196092976Y-86015476D01*
X195950119Y-86205952D01*
X194902500Y-86777380D02*
X195235833Y-86301190D01*
X195473928Y-86777380D02*
X195473928Y-85777380D01*
X195092976Y-85777380D01*
X194997738Y-85825000D01*
X194950119Y-85872619D01*
X194902500Y-85967857D01*
X194902500Y-86110714D01*
X194950119Y-86205952D01*
X194997738Y-86253571D01*
X195092976Y-86301190D01*
X195473928Y-86301190D01*
X194188214Y-87110714D02*
X194426309Y-87110714D01*
X194426309Y-85682142D01*
X194188214Y-85682142D01*
X193854880Y-86777380D02*
X193616785Y-86777380D01*
X193616785Y-86586904D01*
X193712023Y-86539285D01*
X193807261Y-86444047D01*
X193854880Y-86301190D01*
X193854880Y-86063095D01*
X193807261Y-85920238D01*
X193712023Y-85825000D01*
X193569166Y-85777380D01*
X193378690Y-85777380D01*
X193235833Y-85825000D01*
X193140595Y-85920238D01*
X193092976Y-86063095D01*
X193092976Y-86301190D01*
X193140595Y-86444047D01*
X193235833Y-86539285D01*
X193331071Y-86586904D01*
X193331071Y-86777380D01*
X193092976Y-86777380D01*
X192759642Y-87110714D02*
X192521547Y-87110714D01*
X192521547Y-85682142D01*
X192759642Y-85682142D01*
X206664404Y-88427380D02*
X206664404Y-87427380D01*
X206283452Y-87427380D01*
X206188214Y-87475000D01*
X206140595Y-87522619D01*
X206092976Y-87617857D01*
X206092976Y-87760714D01*
X206140595Y-87855952D01*
X206188214Y-87903571D01*
X206283452Y-87951190D01*
X206664404Y-87951190D01*
X205378690Y-88760714D02*
X205616785Y-88760714D01*
X205616785Y-87332142D01*
X205378690Y-87332142D01*
X205092976Y-87427380D02*
X204854880Y-88427380D01*
X204664404Y-87713095D01*
X204473928Y-88427380D01*
X204235833Y-87427380D01*
X203950119Y-88760714D02*
X203712023Y-88760714D01*
X203712023Y-87332142D01*
X203950119Y-87332142D01*
X202426309Y-87903571D02*
X201664404Y-87903571D01*
X201664404Y-88189285D02*
X202426309Y-88189285D01*
X200426309Y-87427380D02*
X200426309Y-88236904D01*
X200378690Y-88332142D01*
X200331071Y-88379761D01*
X200235833Y-88427380D01*
X200045357Y-88427380D01*
X199950119Y-88379761D01*
X199902500Y-88332142D01*
X199854880Y-88236904D01*
X199854880Y-87427380D01*
X199092976Y-88760714D02*
X199331071Y-88760714D01*
X199331071Y-87332142D01*
X199092976Y-87332142D01*
X198854880Y-87427380D02*
X198521547Y-88427380D01*
X198188214Y-87427380D01*
X197950119Y-88760714D02*
X197712023Y-88760714D01*
X197712023Y-87332142D01*
X197950119Y-87332142D01*
X197331071Y-87522619D02*
X197140595Y-87379761D01*
X196950119Y-87522619D01*
X196664404Y-87522619D02*
X196616785Y-87475000D01*
X196521547Y-87427380D01*
X196283452Y-87427380D01*
X196188214Y-87475000D01*
X196140595Y-87522619D01*
X196092976Y-87617857D01*
X196092976Y-87713095D01*
X196140595Y-87855952D01*
X196712023Y-88427380D01*
X196092976Y-88427380D01*
X194950119Y-87379761D02*
X195807261Y-88665476D01*
X194045357Y-88427380D02*
X194378690Y-87951190D01*
X194616785Y-88427380D02*
X194616785Y-87427380D01*
X194235833Y-87427380D01*
X194140595Y-87475000D01*
X194092976Y-87522619D01*
X194045357Y-87617857D01*
X194045357Y-87760714D01*
X194092976Y-87855952D01*
X194140595Y-87903571D01*
X194235833Y-87951190D01*
X194616785Y-87951190D01*
X193331071Y-88760714D02*
X193569166Y-88760714D01*
X193569166Y-87332142D01*
X193331071Y-87332142D01*
X192997738Y-88427380D02*
X192759642Y-88427380D01*
X192759642Y-88236904D01*
X192854880Y-88189285D01*
X192950119Y-88094047D01*
X192997738Y-87951190D01*
X192997738Y-87713095D01*
X192950119Y-87570238D01*
X192854880Y-87475000D01*
X192712023Y-87427380D01*
X192521547Y-87427380D01*
X192378690Y-87475000D01*
X192283452Y-87570238D01*
X192235833Y-87713095D01*
X192235833Y-87951190D01*
X192283452Y-88094047D01*
X192378690Y-88189285D01*
X192473928Y-88236904D01*
X192473928Y-88427380D01*
X192235833Y-88427380D01*
X191902500Y-88760714D02*
X191664404Y-88760714D01*
X191664404Y-87332142D01*
X191902500Y-87332142D01*
X206473928Y-77627380D02*
X206283452Y-77627380D01*
X206188214Y-77675000D01*
X206092976Y-77770238D01*
X206045357Y-77960714D01*
X206045357Y-78294047D01*
X206092976Y-78484523D01*
X206188214Y-78579761D01*
X206283452Y-78627380D01*
X206473928Y-78627380D01*
X206569166Y-78579761D01*
X206664404Y-78484523D01*
X206712023Y-78294047D01*
X206712023Y-77960714D01*
X206664404Y-77770238D01*
X206569166Y-77675000D01*
X206473928Y-77627380D01*
X205616785Y-78627380D02*
X205616785Y-77627380D01*
X205188214Y-78627380D02*
X205188214Y-78103571D01*
X205235833Y-78008333D01*
X205331071Y-77960714D01*
X205473928Y-77960714D01*
X205569166Y-78008333D01*
X205616785Y-78055952D01*
X204712023Y-78627380D02*
X204712023Y-77960714D01*
X204712023Y-78055952D02*
X204664404Y-78008333D01*
X204569166Y-77960714D01*
X204426309Y-77960714D01*
X204331071Y-78008333D01*
X204283452Y-78103571D01*
X204283452Y-78627380D01*
X204283452Y-78103571D02*
X204235833Y-78008333D01*
X204140595Y-77960714D01*
X203997738Y-77960714D01*
X203902500Y-78008333D01*
X203854880Y-78103571D01*
X203854880Y-78627380D01*
X203331071Y-77627380D02*
X203426309Y-77817857D01*
X202950119Y-78579761D02*
X202854880Y-78627380D01*
X202664404Y-78627380D01*
X202569166Y-78579761D01*
X202521547Y-78484523D01*
X202521547Y-78436904D01*
X202569166Y-78341666D01*
X202664404Y-78294047D01*
X202807261Y-78294047D01*
X202902500Y-78246428D01*
X202950119Y-78151190D01*
X202950119Y-78103571D01*
X202902500Y-78008333D01*
X202807261Y-77960714D01*
X202664404Y-77960714D01*
X202569166Y-78008333D01*
X200854880Y-78627380D02*
X201331071Y-78627380D01*
X201331071Y-77627380D01*
X200092976Y-78627380D02*
X200092976Y-78103571D01*
X200140595Y-78008333D01*
X200235833Y-77960714D01*
X200426309Y-77960714D01*
X200521547Y-78008333D01*
X200092976Y-78579761D02*
X200188214Y-78627380D01*
X200426309Y-78627380D01*
X200521547Y-78579761D01*
X200569166Y-78484523D01*
X200569166Y-78389285D01*
X200521547Y-78294047D01*
X200426309Y-78246428D01*
X200188214Y-78246428D01*
X200092976Y-78198809D01*
X199712023Y-77960714D02*
X199521547Y-78627380D01*
X199331071Y-78151190D01*
X199140595Y-78627380D01*
X198950119Y-77960714D01*
X206092976Y-80277380D02*
X206426309Y-79801190D01*
X206664404Y-80277380D02*
X206664404Y-79277380D01*
X206283452Y-79277380D01*
X206188214Y-79325000D01*
X206140595Y-79372619D01*
X206092976Y-79467857D01*
X206092976Y-79610714D01*
X206140595Y-79705952D01*
X206188214Y-79753571D01*
X206283452Y-79801190D01*
X206664404Y-79801190D01*
X205378690Y-80610714D02*
X205616785Y-80610714D01*
X205616785Y-79182142D01*
X205378690Y-79182142D01*
X205045357Y-80277380D02*
X204807261Y-80277380D01*
X204807261Y-80086904D01*
X204902500Y-80039285D01*
X204997738Y-79944047D01*
X205045357Y-79801190D01*
X205045357Y-79563095D01*
X204997738Y-79420238D01*
X204902500Y-79325000D01*
X204759642Y-79277380D01*
X204569166Y-79277380D01*
X204426309Y-79325000D01*
X204331071Y-79420238D01*
X204283452Y-79563095D01*
X204283452Y-79801190D01*
X204331071Y-79944047D01*
X204426309Y-80039285D01*
X204521547Y-80086904D01*
X204521547Y-80277380D01*
X204283452Y-80277380D01*
X203950119Y-80610714D02*
X203712023Y-80610714D01*
X203712023Y-79182142D01*
X203950119Y-79182142D01*
X203188214Y-79753571D02*
X202426309Y-79753571D01*
X202426309Y-80039285D02*
X203188214Y-80039285D01*
X201950119Y-79277380D02*
X201950119Y-80086904D01*
X201902500Y-80182142D01*
X201854880Y-80229761D01*
X201759642Y-80277380D01*
X201569166Y-80277380D01*
X201473928Y-80229761D01*
X201426309Y-80182142D01*
X201378690Y-80086904D01*
X201378690Y-79277380D01*
X200616785Y-80610714D02*
X200854880Y-80610714D01*
X200854880Y-79182142D01*
X200616785Y-79182142D01*
X200378690Y-79277380D02*
X200045357Y-80277380D01*
X199712023Y-79277380D01*
X199473928Y-80610714D02*
X199235833Y-80610714D01*
X199235833Y-79182142D01*
X199473928Y-79182142D01*
X197997738Y-79229761D02*
X198854880Y-80515476D01*
X197664404Y-80277380D02*
X197664404Y-79277380D01*
X196902500Y-80610714D02*
X197140595Y-80610714D01*
X197140595Y-79182142D01*
X196902500Y-79182142D01*
X196569166Y-79991666D02*
X196092976Y-79991666D01*
X196664404Y-80277380D02*
X196331071Y-79277380D01*
X195997738Y-80277380D01*
X195759642Y-80610714D02*
X195521547Y-80610714D01*
X195521547Y-79182142D01*
X195759642Y-79182142D01*
M02*
