G04 #@! TF.GenerationSoftware,KiCad,Pcbnew,5.1.8-1.fc33*
G04 #@! TF.CreationDate,2021-01-13T18:10:52+01:00*
G04 #@! TF.ProjectId,holder,686f6c64-6572-42e6-9b69-6361645f7063,rev?*
G04 #@! TF.SameCoordinates,Original*
G04 #@! TF.FileFunction,Copper,L2,Bot*
G04 #@! TF.FilePolarity,Positive*
%FSLAX46Y46*%
G04 Gerber Fmt 4.6, Leading zero omitted, Abs format (unit mm)*
G04 Created by KiCad (PCBNEW 5.1.8-1.fc33) date 2021-01-13 18:10:52*
%MOMM*%
%LPD*%
G01*
G04 APERTURE LIST*
G04 #@! TA.AperFunction,ComponentPad*
%ADD10C,2.000000*%
G04 #@! TD*
G04 #@! TA.AperFunction,ComponentPad*
%ADD11C,2.340000*%
G04 #@! TD*
G04 #@! TA.AperFunction,ComponentPad*
%ADD12O,1.700000X1.700000*%
G04 #@! TD*
G04 #@! TA.AperFunction,ComponentPad*
%ADD13R,1.700000X1.700000*%
G04 #@! TD*
G04 #@! TA.AperFunction,ComponentPad*
%ADD14O,1.350000X1.350000*%
G04 #@! TD*
G04 #@! TA.AperFunction,ComponentPad*
%ADD15R,1.350000X1.350000*%
G04 #@! TD*
G04 #@! TA.AperFunction,ComponentPad*
%ADD16O,1.000000X1.000000*%
G04 #@! TD*
G04 #@! TA.AperFunction,ComponentPad*
%ADD17R,1.000000X1.000000*%
G04 #@! TD*
G04 #@! TA.AperFunction,ComponentPad*
%ADD18O,0.850000X0.850000*%
G04 #@! TD*
G04 #@! TA.AperFunction,ComponentPad*
%ADD19R,0.850000X0.850000*%
G04 #@! TD*
G04 #@! TA.AperFunction,ComponentPad*
%ADD20C,1.500000*%
G04 #@! TD*
G04 #@! TA.AperFunction,NonConductor*
%ADD21C,0.254000*%
G04 #@! TD*
G04 #@! TA.AperFunction,NonConductor*
%ADD22C,0.100000*%
G04 #@! TD*
G04 APERTURE END LIST*
D10*
X207000000Y-119500000D03*
X207000000Y-124000000D03*
X200500000Y-119500000D03*
X200500000Y-124000000D03*
D11*
X170500000Y-143000000D03*
X173000000Y-138000000D03*
X175500000Y-143000000D03*
D12*
X214500000Y-144160000D03*
X214500000Y-141620000D03*
X214500000Y-139080000D03*
X214500000Y-136540000D03*
D13*
X214500000Y-134000000D03*
D14*
X214500000Y-128000000D03*
X214500000Y-126000000D03*
X214500000Y-124000000D03*
X214500000Y-122000000D03*
D15*
X214500000Y-120000000D03*
D16*
X214500000Y-82580000D03*
X214500000Y-81310000D03*
X214500000Y-80040000D03*
X214500000Y-78770000D03*
D17*
X214500000Y-77500000D03*
D18*
X214630000Y-72326000D03*
X214630000Y-71326000D03*
X214630000Y-70326000D03*
X214630000Y-69326000D03*
D19*
X214630000Y-68326000D03*
D20*
X176380000Y-129500000D03*
X171500000Y-129500000D03*
D21*
X175065424Y-60669580D02*
X175128356Y-60688580D01*
X175186405Y-60719445D01*
X175237343Y-60760989D01*
X175279248Y-60811644D01*
X175310515Y-60869471D01*
X175329956Y-60932272D01*
X175340694Y-61034439D01*
X175342015Y-61082946D01*
X175363618Y-61177954D01*
X179350096Y-73137393D01*
X179364041Y-73270069D01*
X179376068Y-73328658D01*
X179387277Y-73387423D01*
X179389941Y-73396245D01*
X179447653Y-73582683D01*
X179470838Y-73637838D01*
X179493242Y-73693291D01*
X179497568Y-73701427D01*
X179590393Y-73873104D01*
X179623846Y-73922699D01*
X179656600Y-73972753D01*
X179662424Y-73979894D01*
X179786828Y-74130272D01*
X179829263Y-74172411D01*
X179871126Y-74215161D01*
X179878227Y-74221034D01*
X180029469Y-74344384D01*
X180079277Y-74377477D01*
X180128651Y-74411284D01*
X180136757Y-74415667D01*
X180309080Y-74507292D01*
X180364392Y-74530090D01*
X180419366Y-74553652D01*
X180428169Y-74556377D01*
X180615006Y-74612786D01*
X180673686Y-74624405D01*
X180732196Y-74636842D01*
X180741361Y-74637805D01*
X180935594Y-74656850D01*
X180935598Y-74656850D01*
X180967581Y-74660000D01*
X197032419Y-74660000D01*
X197060674Y-74657217D01*
X197066801Y-74657260D01*
X197075972Y-74656360D01*
X197270069Y-74635959D01*
X197328658Y-74623932D01*
X197387423Y-74612723D01*
X197396245Y-74610059D01*
X197582683Y-74552347D01*
X197637838Y-74529162D01*
X197693291Y-74506758D01*
X197701427Y-74502432D01*
X197873104Y-74409607D01*
X197922699Y-74376154D01*
X197972753Y-74343400D01*
X197979894Y-74337576D01*
X198130272Y-74213172D01*
X198172411Y-74170737D01*
X198215161Y-74128874D01*
X198221034Y-74121773D01*
X198344384Y-73970531D01*
X198377477Y-73920723D01*
X198411284Y-73871349D01*
X198415667Y-73863243D01*
X198507292Y-73690920D01*
X198530090Y-73635608D01*
X198553652Y-73580634D01*
X198556377Y-73571831D01*
X198612786Y-73384994D01*
X198624405Y-73326314D01*
X198636842Y-73267804D01*
X198637805Y-73258639D01*
X198649606Y-73138284D01*
X200395367Y-67901000D01*
X213566928Y-67901000D01*
X213566928Y-68751000D01*
X213579188Y-68875482D01*
X213615498Y-68995180D01*
X213617862Y-68999603D01*
X213610735Y-69016809D01*
X213570000Y-69221599D01*
X213570000Y-69430401D01*
X213610735Y-69635191D01*
X213689771Y-69826000D01*
X213610735Y-70016809D01*
X213570000Y-70221599D01*
X213570000Y-70430401D01*
X213610735Y-70635191D01*
X213689771Y-70826000D01*
X213610735Y-71016809D01*
X213570000Y-71221599D01*
X213570000Y-71430401D01*
X213610735Y-71635191D01*
X213689771Y-71826000D01*
X213610735Y-72016809D01*
X213570000Y-72221599D01*
X213570000Y-72430401D01*
X213610735Y-72635191D01*
X213690640Y-72828098D01*
X213806644Y-73001711D01*
X213954289Y-73149356D01*
X214127902Y-73265360D01*
X214320809Y-73345265D01*
X214525599Y-73386000D01*
X214734401Y-73386000D01*
X214939191Y-73345265D01*
X215132098Y-73265360D01*
X215305711Y-73149356D01*
X215453356Y-73001711D01*
X215569360Y-72828098D01*
X215649265Y-72635191D01*
X215690000Y-72430401D01*
X215690000Y-72221599D01*
X215649265Y-72016809D01*
X215570229Y-71826000D01*
X215649265Y-71635191D01*
X215690000Y-71430401D01*
X215690000Y-71221599D01*
X215649265Y-71016809D01*
X215570229Y-70826000D01*
X215649265Y-70635191D01*
X215690000Y-70430401D01*
X215690000Y-70221599D01*
X215649265Y-70016809D01*
X215570229Y-69826000D01*
X215649265Y-69635191D01*
X215690000Y-69430401D01*
X215690000Y-69221599D01*
X215649265Y-69016809D01*
X215642138Y-68999603D01*
X215644502Y-68995180D01*
X215680812Y-68875482D01*
X215693072Y-68751000D01*
X215693072Y-67901000D01*
X215680812Y-67776518D01*
X215644502Y-67656820D01*
X215585537Y-67546506D01*
X215506185Y-67449815D01*
X215409494Y-67370463D01*
X215299180Y-67311498D01*
X215179482Y-67275188D01*
X215055000Y-67262928D01*
X214205000Y-67262928D01*
X214080518Y-67275188D01*
X213960820Y-67311498D01*
X213850506Y-67370463D01*
X213753815Y-67449815D01*
X213674463Y-67546506D01*
X213615498Y-67656820D01*
X213579188Y-67776518D01*
X213566928Y-67901000D01*
X200395367Y-67901000D01*
X202636382Y-61177955D01*
X202657985Y-61082947D01*
X202659120Y-61041249D01*
X202669580Y-60934576D01*
X202688580Y-60871644D01*
X202719445Y-60813595D01*
X202760989Y-60762657D01*
X202811644Y-60720752D01*
X202869471Y-60689485D01*
X202932272Y-60670044D01*
X203027835Y-60660000D01*
X216967721Y-60660000D01*
X217065424Y-60669580D01*
X217128356Y-60688580D01*
X217186405Y-60719445D01*
X217237343Y-60760989D01*
X217279248Y-60811644D01*
X217310515Y-60869471D01*
X217329956Y-60932272D01*
X217340000Y-61027835D01*
X217340001Y-101340000D01*
X215660000Y-101340000D01*
X215660000Y-93967581D01*
X215656655Y-93933618D01*
X215656655Y-93907671D01*
X215655692Y-93898507D01*
X215612182Y-93510607D01*
X215599751Y-93452127D01*
X215588127Y-93393417D01*
X215585401Y-93384614D01*
X215467377Y-93012553D01*
X215443834Y-92957623D01*
X215421017Y-92902264D01*
X215416633Y-92894158D01*
X215228589Y-92552108D01*
X215194823Y-92502795D01*
X215161691Y-92452926D01*
X215155816Y-92445826D01*
X214904916Y-92146815D01*
X214862203Y-92104987D01*
X214820027Y-92062516D01*
X214812886Y-92056692D01*
X214508685Y-91812108D01*
X214458622Y-91779348D01*
X214409038Y-91745903D01*
X214400901Y-91741577D01*
X214054988Y-91560738D01*
X213999553Y-91538341D01*
X213944381Y-91515148D01*
X213935559Y-91512485D01*
X213561109Y-91402278D01*
X213502379Y-91391075D01*
X213443750Y-91379040D01*
X213434579Y-91378141D01*
X213045853Y-91342765D01*
X212986036Y-91343183D01*
X212926219Y-91342765D01*
X212917047Y-91343665D01*
X212917045Y-91343665D01*
X212528855Y-91384466D01*
X212470299Y-91396486D01*
X212411498Y-91407702D01*
X212402677Y-91410366D01*
X212029802Y-91525790D01*
X211974647Y-91548975D01*
X211919194Y-91571379D01*
X211911062Y-91575704D01*
X211911057Y-91575706D01*
X211911053Y-91575709D01*
X211567702Y-91761357D01*
X211518101Y-91794813D01*
X211468054Y-91827563D01*
X211460913Y-91833387D01*
X211160158Y-92082194D01*
X211118019Y-92124629D01*
X211075269Y-92166492D01*
X211069396Y-92173593D01*
X210822695Y-92476077D01*
X210789598Y-92525893D01*
X210755795Y-92575259D01*
X210751413Y-92583365D01*
X210568163Y-92928007D01*
X210545368Y-92983313D01*
X210521802Y-93038296D01*
X210519077Y-93047099D01*
X210406259Y-93420770D01*
X210394639Y-93479458D01*
X210382203Y-93537961D01*
X210381240Y-93547126D01*
X210343150Y-93935595D01*
X210340000Y-93967582D01*
X210340001Y-114032419D01*
X210343345Y-114066372D01*
X210343345Y-114092329D01*
X210344308Y-114101494D01*
X210387818Y-114489393D01*
X210400249Y-114547873D01*
X210411873Y-114606583D01*
X210414599Y-114615386D01*
X210532623Y-114987447D01*
X210556189Y-115042430D01*
X210578984Y-115097736D01*
X210583367Y-115105842D01*
X210771411Y-115447892D01*
X210805188Y-115497221D01*
X210838309Y-115547074D01*
X210844184Y-115554174D01*
X211095084Y-115853185D01*
X211137814Y-115895029D01*
X211179973Y-115937484D01*
X211187114Y-115943308D01*
X211491316Y-116187892D01*
X211541361Y-116220640D01*
X211590962Y-116254097D01*
X211599099Y-116258423D01*
X211945011Y-116439262D01*
X212000460Y-116461665D01*
X212055619Y-116484852D01*
X212064441Y-116487515D01*
X212438891Y-116597722D01*
X212497621Y-116608925D01*
X212556250Y-116620960D01*
X212565421Y-116621859D01*
X212954147Y-116657235D01*
X213013964Y-116656817D01*
X213073781Y-116657235D01*
X213082952Y-116656335D01*
X213082954Y-116656335D01*
X213471145Y-116615534D01*
X213529708Y-116603513D01*
X213588501Y-116592298D01*
X213597323Y-116589634D01*
X213970198Y-116474210D01*
X214025353Y-116451025D01*
X214080806Y-116428621D01*
X214088943Y-116424294D01*
X214432298Y-116238643D01*
X214481849Y-116205220D01*
X214531946Y-116172438D01*
X214539087Y-116166613D01*
X214839841Y-115917806D01*
X214881981Y-115875371D01*
X214924730Y-115833508D01*
X214930604Y-115826408D01*
X215177305Y-115523923D01*
X215210409Y-115474096D01*
X215244204Y-115424741D01*
X215248587Y-115416635D01*
X215431837Y-115071993D01*
X215454631Y-115016689D01*
X215478198Y-114961705D01*
X215480923Y-114952902D01*
X215593741Y-114579230D01*
X215605361Y-114520542D01*
X215617797Y-114462039D01*
X215618760Y-114452874D01*
X215656850Y-114064405D01*
X215656850Y-114064402D01*
X215660000Y-114032419D01*
X215660000Y-106660000D01*
X217340000Y-106660000D01*
X217340001Y-146967711D01*
X217330420Y-147065424D01*
X217311420Y-147128357D01*
X217280554Y-147186406D01*
X217239011Y-147237343D01*
X217188356Y-147279248D01*
X217130529Y-147310515D01*
X217067728Y-147329956D01*
X216972165Y-147340000D01*
X210045358Y-147340000D01*
X189096816Y-144447107D01*
X189039186Y-144437966D01*
X188999999Y-144439497D01*
X188960813Y-144437966D01*
X188903190Y-144447106D01*
X167954648Y-147340000D01*
X161032279Y-147340000D01*
X160934576Y-147330420D01*
X160871643Y-147311420D01*
X160813594Y-147280554D01*
X160762657Y-147239011D01*
X160720752Y-147188356D01*
X160689485Y-147130529D01*
X160670044Y-147067728D01*
X160660000Y-146972165D01*
X160660000Y-142822223D01*
X168695000Y-142822223D01*
X168695000Y-143177777D01*
X168764365Y-143526499D01*
X168900429Y-143854988D01*
X169097965Y-144150621D01*
X169349379Y-144402035D01*
X169645012Y-144599571D01*
X169973501Y-144735635D01*
X170322223Y-144805000D01*
X170677777Y-144805000D01*
X171026499Y-144735635D01*
X171354988Y-144599571D01*
X171650621Y-144402035D01*
X171902035Y-144150621D01*
X172099571Y-143854988D01*
X172235635Y-143526499D01*
X172305000Y-143177777D01*
X172305000Y-142822223D01*
X173695000Y-142822223D01*
X173695000Y-143177777D01*
X173764365Y-143526499D01*
X173900429Y-143854988D01*
X174097965Y-144150621D01*
X174349379Y-144402035D01*
X174645012Y-144599571D01*
X174973501Y-144735635D01*
X175322223Y-144805000D01*
X175677777Y-144805000D01*
X176026499Y-144735635D01*
X176354988Y-144599571D01*
X176650621Y-144402035D01*
X176902035Y-144150621D01*
X177099571Y-143854988D01*
X177235635Y-143526499D01*
X177305000Y-143177777D01*
X177305000Y-142822223D01*
X177235635Y-142473501D01*
X177099571Y-142145012D01*
X176902035Y-141849379D01*
X176650621Y-141597965D01*
X176354988Y-141400429D01*
X176026499Y-141264365D01*
X175677777Y-141195000D01*
X175322223Y-141195000D01*
X174973501Y-141264365D01*
X174645012Y-141400429D01*
X174349379Y-141597965D01*
X174097965Y-141849379D01*
X173900429Y-142145012D01*
X173764365Y-142473501D01*
X173695000Y-142822223D01*
X172305000Y-142822223D01*
X172235635Y-142473501D01*
X172099571Y-142145012D01*
X171902035Y-141849379D01*
X171650621Y-141597965D01*
X171354988Y-141400429D01*
X171026499Y-141264365D01*
X170677777Y-141195000D01*
X170322223Y-141195000D01*
X169973501Y-141264365D01*
X169645012Y-141400429D01*
X169349379Y-141597965D01*
X169097965Y-141849379D01*
X168900429Y-142145012D01*
X168764365Y-142473501D01*
X168695000Y-142822223D01*
X160660000Y-142822223D01*
X160660000Y-137822223D01*
X171195000Y-137822223D01*
X171195000Y-138177777D01*
X171264365Y-138526499D01*
X171400429Y-138854988D01*
X171597965Y-139150621D01*
X171849379Y-139402035D01*
X172145012Y-139599571D01*
X172473501Y-139735635D01*
X172822223Y-139805000D01*
X173177777Y-139805000D01*
X173526499Y-139735635D01*
X173854988Y-139599571D01*
X174150621Y-139402035D01*
X174402035Y-139150621D01*
X174599571Y-138854988D01*
X174735635Y-138526499D01*
X174805000Y-138177777D01*
X174805000Y-137822223D01*
X174735635Y-137473501D01*
X174599571Y-137145012D01*
X174402035Y-136849379D01*
X174150621Y-136597965D01*
X173854988Y-136400429D01*
X173526499Y-136264365D01*
X173177777Y-136195000D01*
X172822223Y-136195000D01*
X172473501Y-136264365D01*
X172145012Y-136400429D01*
X171849379Y-136597965D01*
X171597965Y-136849379D01*
X171400429Y-137145012D01*
X171264365Y-137473501D01*
X171195000Y-137822223D01*
X160660000Y-137822223D01*
X160660000Y-133150000D01*
X213011928Y-133150000D01*
X213011928Y-134850000D01*
X213024188Y-134974482D01*
X213060498Y-135094180D01*
X213119463Y-135204494D01*
X213198815Y-135301185D01*
X213295506Y-135380537D01*
X213405820Y-135439502D01*
X213478380Y-135461513D01*
X213346525Y-135593368D01*
X213184010Y-135836589D01*
X213072068Y-136106842D01*
X213015000Y-136393740D01*
X213015000Y-136686260D01*
X213072068Y-136973158D01*
X213184010Y-137243411D01*
X213346525Y-137486632D01*
X213553368Y-137693475D01*
X213727760Y-137810000D01*
X213553368Y-137926525D01*
X213346525Y-138133368D01*
X213184010Y-138376589D01*
X213072068Y-138646842D01*
X213015000Y-138933740D01*
X213015000Y-139226260D01*
X213072068Y-139513158D01*
X213184010Y-139783411D01*
X213346525Y-140026632D01*
X213553368Y-140233475D01*
X213727760Y-140350000D01*
X213553368Y-140466525D01*
X213346525Y-140673368D01*
X213184010Y-140916589D01*
X213072068Y-141186842D01*
X213015000Y-141473740D01*
X213015000Y-141766260D01*
X213072068Y-142053158D01*
X213184010Y-142323411D01*
X213346525Y-142566632D01*
X213553368Y-142773475D01*
X213727760Y-142890000D01*
X213553368Y-143006525D01*
X213346525Y-143213368D01*
X213184010Y-143456589D01*
X213072068Y-143726842D01*
X213015000Y-144013740D01*
X213015000Y-144306260D01*
X213072068Y-144593158D01*
X213184010Y-144863411D01*
X213346525Y-145106632D01*
X213553368Y-145313475D01*
X213796589Y-145475990D01*
X214066842Y-145587932D01*
X214353740Y-145645000D01*
X214646260Y-145645000D01*
X214933158Y-145587932D01*
X215203411Y-145475990D01*
X215446632Y-145313475D01*
X215653475Y-145106632D01*
X215815990Y-144863411D01*
X215927932Y-144593158D01*
X215985000Y-144306260D01*
X215985000Y-144013740D01*
X215927932Y-143726842D01*
X215815990Y-143456589D01*
X215653475Y-143213368D01*
X215446632Y-143006525D01*
X215272240Y-142890000D01*
X215446632Y-142773475D01*
X215653475Y-142566632D01*
X215815990Y-142323411D01*
X215927932Y-142053158D01*
X215985000Y-141766260D01*
X215985000Y-141473740D01*
X215927932Y-141186842D01*
X215815990Y-140916589D01*
X215653475Y-140673368D01*
X215446632Y-140466525D01*
X215272240Y-140350000D01*
X215446632Y-140233475D01*
X215653475Y-140026632D01*
X215815990Y-139783411D01*
X215927932Y-139513158D01*
X215985000Y-139226260D01*
X215985000Y-138933740D01*
X215927932Y-138646842D01*
X215815990Y-138376589D01*
X215653475Y-138133368D01*
X215446632Y-137926525D01*
X215272240Y-137810000D01*
X215446632Y-137693475D01*
X215653475Y-137486632D01*
X215815990Y-137243411D01*
X215927932Y-136973158D01*
X215985000Y-136686260D01*
X215985000Y-136393740D01*
X215927932Y-136106842D01*
X215815990Y-135836589D01*
X215653475Y-135593368D01*
X215521620Y-135461513D01*
X215594180Y-135439502D01*
X215704494Y-135380537D01*
X215801185Y-135301185D01*
X215880537Y-135204494D01*
X215939502Y-135094180D01*
X215975812Y-134974482D01*
X215988072Y-134850000D01*
X215988072Y-133150000D01*
X215975812Y-133025518D01*
X215939502Y-132905820D01*
X215880537Y-132795506D01*
X215801185Y-132698815D01*
X215704494Y-132619463D01*
X215594180Y-132560498D01*
X215474482Y-132524188D01*
X215350000Y-132511928D01*
X213650000Y-132511928D01*
X213525518Y-132524188D01*
X213405820Y-132560498D01*
X213295506Y-132619463D01*
X213198815Y-132698815D01*
X213119463Y-132795506D01*
X213060498Y-132905820D01*
X213024188Y-133025518D01*
X213011928Y-133150000D01*
X160660000Y-133150000D01*
X160660000Y-129363589D01*
X170115000Y-129363589D01*
X170115000Y-129636411D01*
X170168225Y-129903989D01*
X170272629Y-130156043D01*
X170424201Y-130382886D01*
X170617114Y-130575799D01*
X170843957Y-130727371D01*
X171096011Y-130831775D01*
X171363589Y-130885000D01*
X171636411Y-130885000D01*
X171903989Y-130831775D01*
X172156043Y-130727371D01*
X172382886Y-130575799D01*
X172575799Y-130382886D01*
X172727371Y-130156043D01*
X172831775Y-129903989D01*
X172885000Y-129636411D01*
X172885000Y-129363589D01*
X174995000Y-129363589D01*
X174995000Y-129636411D01*
X175048225Y-129903989D01*
X175152629Y-130156043D01*
X175304201Y-130382886D01*
X175497114Y-130575799D01*
X175723957Y-130727371D01*
X175976011Y-130831775D01*
X176243589Y-130885000D01*
X176516411Y-130885000D01*
X176783989Y-130831775D01*
X177036043Y-130727371D01*
X177262886Y-130575799D01*
X177455799Y-130382886D01*
X177607371Y-130156043D01*
X177711775Y-129903989D01*
X177765000Y-129636411D01*
X177765000Y-129363589D01*
X177711775Y-129096011D01*
X177607371Y-128843957D01*
X177455799Y-128617114D01*
X177262886Y-128424201D01*
X177036043Y-128272629D01*
X176783989Y-128168225D01*
X176516411Y-128115000D01*
X176243589Y-128115000D01*
X175976011Y-128168225D01*
X175723957Y-128272629D01*
X175497114Y-128424201D01*
X175304201Y-128617114D01*
X175152629Y-128843957D01*
X175048225Y-129096011D01*
X174995000Y-129363589D01*
X172885000Y-129363589D01*
X172831775Y-129096011D01*
X172727371Y-128843957D01*
X172575799Y-128617114D01*
X172382886Y-128424201D01*
X172156043Y-128272629D01*
X171903989Y-128168225D01*
X171636411Y-128115000D01*
X171363589Y-128115000D01*
X171096011Y-128168225D01*
X170843957Y-128272629D01*
X170617114Y-128424201D01*
X170424201Y-128617114D01*
X170272629Y-128843957D01*
X170168225Y-129096011D01*
X170115000Y-129363589D01*
X160660000Y-129363589D01*
X160660000Y-123838967D01*
X198865000Y-123838967D01*
X198865000Y-124161033D01*
X198927832Y-124476912D01*
X199051082Y-124774463D01*
X199230013Y-125042252D01*
X199457748Y-125269987D01*
X199725537Y-125448918D01*
X200023088Y-125572168D01*
X200338967Y-125635000D01*
X200661033Y-125635000D01*
X200976912Y-125572168D01*
X201274463Y-125448918D01*
X201542252Y-125269987D01*
X201769987Y-125042252D01*
X201948918Y-124774463D01*
X202072168Y-124476912D01*
X202135000Y-124161033D01*
X202135000Y-123838967D01*
X205365000Y-123838967D01*
X205365000Y-124161033D01*
X205427832Y-124476912D01*
X205551082Y-124774463D01*
X205730013Y-125042252D01*
X205957748Y-125269987D01*
X206225537Y-125448918D01*
X206523088Y-125572168D01*
X206838967Y-125635000D01*
X207161033Y-125635000D01*
X207476912Y-125572168D01*
X207774463Y-125448918D01*
X208042252Y-125269987D01*
X208269987Y-125042252D01*
X208448918Y-124774463D01*
X208572168Y-124476912D01*
X208635000Y-124161033D01*
X208635000Y-123838967D01*
X208572168Y-123523088D01*
X208448918Y-123225537D01*
X208269987Y-122957748D01*
X208042252Y-122730013D01*
X207774463Y-122551082D01*
X207476912Y-122427832D01*
X207161033Y-122365000D01*
X206838967Y-122365000D01*
X206523088Y-122427832D01*
X206225537Y-122551082D01*
X205957748Y-122730013D01*
X205730013Y-122957748D01*
X205551082Y-123225537D01*
X205427832Y-123523088D01*
X205365000Y-123838967D01*
X202135000Y-123838967D01*
X202072168Y-123523088D01*
X201948918Y-123225537D01*
X201769987Y-122957748D01*
X201542252Y-122730013D01*
X201274463Y-122551082D01*
X200976912Y-122427832D01*
X200661033Y-122365000D01*
X200338967Y-122365000D01*
X200023088Y-122427832D01*
X199725537Y-122551082D01*
X199457748Y-122730013D01*
X199230013Y-122957748D01*
X199051082Y-123225537D01*
X198927832Y-123523088D01*
X198865000Y-123838967D01*
X160660000Y-123838967D01*
X160660000Y-119338967D01*
X198865000Y-119338967D01*
X198865000Y-119661033D01*
X198927832Y-119976912D01*
X199051082Y-120274463D01*
X199230013Y-120542252D01*
X199457748Y-120769987D01*
X199725537Y-120948918D01*
X200023088Y-121072168D01*
X200338967Y-121135000D01*
X200661033Y-121135000D01*
X200976912Y-121072168D01*
X201274463Y-120948918D01*
X201542252Y-120769987D01*
X201769987Y-120542252D01*
X201948918Y-120274463D01*
X202072168Y-119976912D01*
X202135000Y-119661033D01*
X202135000Y-119338967D01*
X205365000Y-119338967D01*
X205365000Y-119661033D01*
X205427832Y-119976912D01*
X205551082Y-120274463D01*
X205730013Y-120542252D01*
X205957748Y-120769987D01*
X206225537Y-120948918D01*
X206523088Y-121072168D01*
X206838967Y-121135000D01*
X207161033Y-121135000D01*
X207476912Y-121072168D01*
X207774463Y-120948918D01*
X208042252Y-120769987D01*
X208269987Y-120542252D01*
X208448918Y-120274463D01*
X208572168Y-119976912D01*
X208635000Y-119661033D01*
X208635000Y-119338967D01*
X208632222Y-119325000D01*
X213186928Y-119325000D01*
X213186928Y-120675000D01*
X213199188Y-120799482D01*
X213235498Y-120919180D01*
X213294463Y-121029494D01*
X213373815Y-121126185D01*
X213460697Y-121197487D01*
X213339093Y-121379482D01*
X213240342Y-121617887D01*
X213190000Y-121870976D01*
X213190000Y-122129024D01*
X213240342Y-122382113D01*
X213339093Y-122620518D01*
X213482456Y-122835077D01*
X213647379Y-123000000D01*
X213482456Y-123164923D01*
X213339093Y-123379482D01*
X213240342Y-123617887D01*
X213190000Y-123870976D01*
X213190000Y-124129024D01*
X213240342Y-124382113D01*
X213339093Y-124620518D01*
X213482456Y-124835077D01*
X213647379Y-125000000D01*
X213482456Y-125164923D01*
X213339093Y-125379482D01*
X213240342Y-125617887D01*
X213190000Y-125870976D01*
X213190000Y-126129024D01*
X213240342Y-126382113D01*
X213339093Y-126620518D01*
X213482456Y-126835077D01*
X213647379Y-127000000D01*
X213482456Y-127164923D01*
X213339093Y-127379482D01*
X213240342Y-127617887D01*
X213190000Y-127870976D01*
X213190000Y-128129024D01*
X213240342Y-128382113D01*
X213339093Y-128620518D01*
X213482456Y-128835077D01*
X213664923Y-129017544D01*
X213879482Y-129160907D01*
X214117887Y-129259658D01*
X214370976Y-129310000D01*
X214629024Y-129310000D01*
X214882113Y-129259658D01*
X215120518Y-129160907D01*
X215335077Y-129017544D01*
X215517544Y-128835077D01*
X215660907Y-128620518D01*
X215759658Y-128382113D01*
X215810000Y-128129024D01*
X215810000Y-127870976D01*
X215759658Y-127617887D01*
X215660907Y-127379482D01*
X215517544Y-127164923D01*
X215352621Y-127000000D01*
X215517544Y-126835077D01*
X215660907Y-126620518D01*
X215759658Y-126382113D01*
X215810000Y-126129024D01*
X215810000Y-125870976D01*
X215759658Y-125617887D01*
X215660907Y-125379482D01*
X215517544Y-125164923D01*
X215352621Y-125000000D01*
X215517544Y-124835077D01*
X215660907Y-124620518D01*
X215759658Y-124382113D01*
X215810000Y-124129024D01*
X215810000Y-123870976D01*
X215759658Y-123617887D01*
X215660907Y-123379482D01*
X215517544Y-123164923D01*
X215352621Y-123000000D01*
X215517544Y-122835077D01*
X215660907Y-122620518D01*
X215759658Y-122382113D01*
X215810000Y-122129024D01*
X215810000Y-121870976D01*
X215759658Y-121617887D01*
X215660907Y-121379482D01*
X215539303Y-121197487D01*
X215626185Y-121126185D01*
X215705537Y-121029494D01*
X215764502Y-120919180D01*
X215800812Y-120799482D01*
X215813072Y-120675000D01*
X215813072Y-119325000D01*
X215800812Y-119200518D01*
X215764502Y-119080820D01*
X215705537Y-118970506D01*
X215626185Y-118873815D01*
X215529494Y-118794463D01*
X215419180Y-118735498D01*
X215299482Y-118699188D01*
X215175000Y-118686928D01*
X213825000Y-118686928D01*
X213700518Y-118699188D01*
X213580820Y-118735498D01*
X213470506Y-118794463D01*
X213373815Y-118873815D01*
X213294463Y-118970506D01*
X213235498Y-119080820D01*
X213199188Y-119200518D01*
X213186928Y-119325000D01*
X208632222Y-119325000D01*
X208572168Y-119023088D01*
X208448918Y-118725537D01*
X208269987Y-118457748D01*
X208042252Y-118230013D01*
X207774463Y-118051082D01*
X207476912Y-117927832D01*
X207161033Y-117865000D01*
X206838967Y-117865000D01*
X206523088Y-117927832D01*
X206225537Y-118051082D01*
X205957748Y-118230013D01*
X205730013Y-118457748D01*
X205551082Y-118725537D01*
X205427832Y-119023088D01*
X205365000Y-119338967D01*
X202135000Y-119338967D01*
X202072168Y-119023088D01*
X201948918Y-118725537D01*
X201769987Y-118457748D01*
X201542252Y-118230013D01*
X201274463Y-118051082D01*
X200976912Y-117927832D01*
X200661033Y-117865000D01*
X200338967Y-117865000D01*
X200023088Y-117927832D01*
X199725537Y-118051082D01*
X199457748Y-118230013D01*
X199230013Y-118457748D01*
X199051082Y-118725537D01*
X198927832Y-119023088D01*
X198865000Y-119338967D01*
X160660000Y-119338967D01*
X160660000Y-106660000D01*
X162340001Y-106660000D01*
X162340000Y-114032418D01*
X162343345Y-114066381D01*
X162343345Y-114092329D01*
X162344308Y-114101494D01*
X162387818Y-114489393D01*
X162400249Y-114547873D01*
X162411873Y-114606583D01*
X162414599Y-114615386D01*
X162532623Y-114987447D01*
X162556189Y-115042430D01*
X162578984Y-115097736D01*
X162583367Y-115105842D01*
X162771411Y-115447892D01*
X162805188Y-115497221D01*
X162838309Y-115547074D01*
X162844184Y-115554174D01*
X163095084Y-115853185D01*
X163137814Y-115895029D01*
X163179973Y-115937484D01*
X163187114Y-115943308D01*
X163491316Y-116187892D01*
X163541361Y-116220640D01*
X163590962Y-116254097D01*
X163599099Y-116258423D01*
X163945011Y-116439262D01*
X164000460Y-116461665D01*
X164055619Y-116484852D01*
X164064441Y-116487515D01*
X164438891Y-116597722D01*
X164497621Y-116608925D01*
X164556250Y-116620960D01*
X164565421Y-116621859D01*
X164954147Y-116657235D01*
X165013964Y-116656817D01*
X165073781Y-116657235D01*
X165082952Y-116656335D01*
X165082954Y-116656335D01*
X165471145Y-116615534D01*
X165529708Y-116603513D01*
X165588501Y-116592298D01*
X165597323Y-116589634D01*
X165970198Y-116474210D01*
X166025353Y-116451025D01*
X166080806Y-116428621D01*
X166088943Y-116424294D01*
X166432298Y-116238643D01*
X166481849Y-116205220D01*
X166531946Y-116172438D01*
X166539087Y-116166613D01*
X166839841Y-115917806D01*
X166881981Y-115875371D01*
X166924730Y-115833508D01*
X166930604Y-115826408D01*
X167177305Y-115523923D01*
X167210409Y-115474096D01*
X167244204Y-115424741D01*
X167248587Y-115416635D01*
X167431837Y-115071993D01*
X167454631Y-115016689D01*
X167478198Y-114961705D01*
X167480923Y-114952902D01*
X167593741Y-114579230D01*
X167605361Y-114520542D01*
X167617797Y-114462039D01*
X167618760Y-114452874D01*
X167656850Y-114064405D01*
X167656850Y-114064402D01*
X167660000Y-114032419D01*
X167660000Y-93967581D01*
X167656655Y-93933618D01*
X167656655Y-93907671D01*
X167655692Y-93898507D01*
X167612182Y-93510607D01*
X167599751Y-93452127D01*
X167588127Y-93393417D01*
X167585401Y-93384614D01*
X167467377Y-93012553D01*
X167443834Y-92957623D01*
X167421017Y-92902264D01*
X167416633Y-92894158D01*
X167228589Y-92552108D01*
X167194823Y-92502795D01*
X167161691Y-92452926D01*
X167155816Y-92445826D01*
X166904916Y-92146815D01*
X166862203Y-92104987D01*
X166820027Y-92062516D01*
X166812886Y-92056692D01*
X166508685Y-91812108D01*
X166458622Y-91779348D01*
X166409038Y-91745903D01*
X166400901Y-91741577D01*
X166054988Y-91560738D01*
X165999553Y-91538341D01*
X165944381Y-91515148D01*
X165935559Y-91512485D01*
X165561109Y-91402278D01*
X165502379Y-91391075D01*
X165443750Y-91379040D01*
X165434579Y-91378141D01*
X165045853Y-91342765D01*
X164986036Y-91343183D01*
X164926219Y-91342765D01*
X164917047Y-91343665D01*
X164917045Y-91343665D01*
X164528855Y-91384466D01*
X164470299Y-91396486D01*
X164411498Y-91407702D01*
X164402677Y-91410366D01*
X164029802Y-91525790D01*
X163974647Y-91548975D01*
X163919194Y-91571379D01*
X163911062Y-91575704D01*
X163911057Y-91575706D01*
X163911053Y-91575709D01*
X163567702Y-91761357D01*
X163518101Y-91794813D01*
X163468054Y-91827563D01*
X163460913Y-91833387D01*
X163160158Y-92082194D01*
X163118019Y-92124629D01*
X163075269Y-92166492D01*
X163069396Y-92173593D01*
X162822695Y-92476077D01*
X162789598Y-92525893D01*
X162755795Y-92575259D01*
X162751413Y-92583365D01*
X162568163Y-92928007D01*
X162545368Y-92983313D01*
X162521802Y-93038296D01*
X162519077Y-93047099D01*
X162406259Y-93420770D01*
X162394639Y-93479458D01*
X162382203Y-93537961D01*
X162381240Y-93547126D01*
X162343150Y-93935595D01*
X162343150Y-93935608D01*
X162340001Y-93967581D01*
X162340000Y-101340000D01*
X160660000Y-101340000D01*
X160660000Y-77000000D01*
X213361928Y-77000000D01*
X213361928Y-78000000D01*
X213374188Y-78124482D01*
X213410498Y-78244180D01*
X213454888Y-78327226D01*
X213408617Y-78438933D01*
X213365000Y-78658212D01*
X213365000Y-78881788D01*
X213408617Y-79101067D01*
X213494176Y-79307624D01*
X213559241Y-79405000D01*
X213494176Y-79502376D01*
X213408617Y-79708933D01*
X213365000Y-79928212D01*
X213365000Y-80151788D01*
X213408617Y-80371067D01*
X213494176Y-80577624D01*
X213559241Y-80675000D01*
X213494176Y-80772376D01*
X213408617Y-80978933D01*
X213365000Y-81198212D01*
X213365000Y-81421788D01*
X213408617Y-81641067D01*
X213494176Y-81847624D01*
X213559241Y-81945000D01*
X213494176Y-82042376D01*
X213408617Y-82248933D01*
X213365000Y-82468212D01*
X213365000Y-82691788D01*
X213408617Y-82911067D01*
X213494176Y-83117624D01*
X213618388Y-83303520D01*
X213776480Y-83461612D01*
X213962376Y-83585824D01*
X214168933Y-83671383D01*
X214388212Y-83715000D01*
X214611788Y-83715000D01*
X214831067Y-83671383D01*
X215037624Y-83585824D01*
X215223520Y-83461612D01*
X215381612Y-83303520D01*
X215505824Y-83117624D01*
X215591383Y-82911067D01*
X215635000Y-82691788D01*
X215635000Y-82468212D01*
X215591383Y-82248933D01*
X215505824Y-82042376D01*
X215440759Y-81945000D01*
X215505824Y-81847624D01*
X215591383Y-81641067D01*
X215635000Y-81421788D01*
X215635000Y-81198212D01*
X215591383Y-80978933D01*
X215505824Y-80772376D01*
X215440759Y-80675000D01*
X215505824Y-80577624D01*
X215591383Y-80371067D01*
X215635000Y-80151788D01*
X215635000Y-79928212D01*
X215591383Y-79708933D01*
X215505824Y-79502376D01*
X215440759Y-79405000D01*
X215505824Y-79307624D01*
X215591383Y-79101067D01*
X215635000Y-78881788D01*
X215635000Y-78658212D01*
X215591383Y-78438933D01*
X215545112Y-78327226D01*
X215589502Y-78244180D01*
X215625812Y-78124482D01*
X215638072Y-78000000D01*
X215638072Y-77000000D01*
X215625812Y-76875518D01*
X215589502Y-76755820D01*
X215530537Y-76645506D01*
X215451185Y-76548815D01*
X215354494Y-76469463D01*
X215244180Y-76410498D01*
X215124482Y-76374188D01*
X215000000Y-76361928D01*
X214000000Y-76361928D01*
X213875518Y-76374188D01*
X213755820Y-76410498D01*
X213645506Y-76469463D01*
X213548815Y-76548815D01*
X213469463Y-76645506D01*
X213410498Y-76755820D01*
X213374188Y-76875518D01*
X213361928Y-77000000D01*
X160660000Y-77000000D01*
X160660000Y-60660000D01*
X174967721Y-60660000D01*
X175065424Y-60669580D01*
G04 #@! TA.AperFunction,NonConductor*
D22*
G36*
X175065424Y-60669580D02*
G01*
X175128356Y-60688580D01*
X175186405Y-60719445D01*
X175237343Y-60760989D01*
X175279248Y-60811644D01*
X175310515Y-60869471D01*
X175329956Y-60932272D01*
X175340694Y-61034439D01*
X175342015Y-61082946D01*
X175363618Y-61177954D01*
X179350096Y-73137393D01*
X179364041Y-73270069D01*
X179376068Y-73328658D01*
X179387277Y-73387423D01*
X179389941Y-73396245D01*
X179447653Y-73582683D01*
X179470838Y-73637838D01*
X179493242Y-73693291D01*
X179497568Y-73701427D01*
X179590393Y-73873104D01*
X179623846Y-73922699D01*
X179656600Y-73972753D01*
X179662424Y-73979894D01*
X179786828Y-74130272D01*
X179829263Y-74172411D01*
X179871126Y-74215161D01*
X179878227Y-74221034D01*
X180029469Y-74344384D01*
X180079277Y-74377477D01*
X180128651Y-74411284D01*
X180136757Y-74415667D01*
X180309080Y-74507292D01*
X180364392Y-74530090D01*
X180419366Y-74553652D01*
X180428169Y-74556377D01*
X180615006Y-74612786D01*
X180673686Y-74624405D01*
X180732196Y-74636842D01*
X180741361Y-74637805D01*
X180935594Y-74656850D01*
X180935598Y-74656850D01*
X180967581Y-74660000D01*
X197032419Y-74660000D01*
X197060674Y-74657217D01*
X197066801Y-74657260D01*
X197075972Y-74656360D01*
X197270069Y-74635959D01*
X197328658Y-74623932D01*
X197387423Y-74612723D01*
X197396245Y-74610059D01*
X197582683Y-74552347D01*
X197637838Y-74529162D01*
X197693291Y-74506758D01*
X197701427Y-74502432D01*
X197873104Y-74409607D01*
X197922699Y-74376154D01*
X197972753Y-74343400D01*
X197979894Y-74337576D01*
X198130272Y-74213172D01*
X198172411Y-74170737D01*
X198215161Y-74128874D01*
X198221034Y-74121773D01*
X198344384Y-73970531D01*
X198377477Y-73920723D01*
X198411284Y-73871349D01*
X198415667Y-73863243D01*
X198507292Y-73690920D01*
X198530090Y-73635608D01*
X198553652Y-73580634D01*
X198556377Y-73571831D01*
X198612786Y-73384994D01*
X198624405Y-73326314D01*
X198636842Y-73267804D01*
X198637805Y-73258639D01*
X198649606Y-73138284D01*
X200395367Y-67901000D01*
X213566928Y-67901000D01*
X213566928Y-68751000D01*
X213579188Y-68875482D01*
X213615498Y-68995180D01*
X213617862Y-68999603D01*
X213610735Y-69016809D01*
X213570000Y-69221599D01*
X213570000Y-69430401D01*
X213610735Y-69635191D01*
X213689771Y-69826000D01*
X213610735Y-70016809D01*
X213570000Y-70221599D01*
X213570000Y-70430401D01*
X213610735Y-70635191D01*
X213689771Y-70826000D01*
X213610735Y-71016809D01*
X213570000Y-71221599D01*
X213570000Y-71430401D01*
X213610735Y-71635191D01*
X213689771Y-71826000D01*
X213610735Y-72016809D01*
X213570000Y-72221599D01*
X213570000Y-72430401D01*
X213610735Y-72635191D01*
X213690640Y-72828098D01*
X213806644Y-73001711D01*
X213954289Y-73149356D01*
X214127902Y-73265360D01*
X214320809Y-73345265D01*
X214525599Y-73386000D01*
X214734401Y-73386000D01*
X214939191Y-73345265D01*
X215132098Y-73265360D01*
X215305711Y-73149356D01*
X215453356Y-73001711D01*
X215569360Y-72828098D01*
X215649265Y-72635191D01*
X215690000Y-72430401D01*
X215690000Y-72221599D01*
X215649265Y-72016809D01*
X215570229Y-71826000D01*
X215649265Y-71635191D01*
X215690000Y-71430401D01*
X215690000Y-71221599D01*
X215649265Y-71016809D01*
X215570229Y-70826000D01*
X215649265Y-70635191D01*
X215690000Y-70430401D01*
X215690000Y-70221599D01*
X215649265Y-70016809D01*
X215570229Y-69826000D01*
X215649265Y-69635191D01*
X215690000Y-69430401D01*
X215690000Y-69221599D01*
X215649265Y-69016809D01*
X215642138Y-68999603D01*
X215644502Y-68995180D01*
X215680812Y-68875482D01*
X215693072Y-68751000D01*
X215693072Y-67901000D01*
X215680812Y-67776518D01*
X215644502Y-67656820D01*
X215585537Y-67546506D01*
X215506185Y-67449815D01*
X215409494Y-67370463D01*
X215299180Y-67311498D01*
X215179482Y-67275188D01*
X215055000Y-67262928D01*
X214205000Y-67262928D01*
X214080518Y-67275188D01*
X213960820Y-67311498D01*
X213850506Y-67370463D01*
X213753815Y-67449815D01*
X213674463Y-67546506D01*
X213615498Y-67656820D01*
X213579188Y-67776518D01*
X213566928Y-67901000D01*
X200395367Y-67901000D01*
X202636382Y-61177955D01*
X202657985Y-61082947D01*
X202659120Y-61041249D01*
X202669580Y-60934576D01*
X202688580Y-60871644D01*
X202719445Y-60813595D01*
X202760989Y-60762657D01*
X202811644Y-60720752D01*
X202869471Y-60689485D01*
X202932272Y-60670044D01*
X203027835Y-60660000D01*
X216967721Y-60660000D01*
X217065424Y-60669580D01*
X217128356Y-60688580D01*
X217186405Y-60719445D01*
X217237343Y-60760989D01*
X217279248Y-60811644D01*
X217310515Y-60869471D01*
X217329956Y-60932272D01*
X217340000Y-61027835D01*
X217340001Y-101340000D01*
X215660000Y-101340000D01*
X215660000Y-93967581D01*
X215656655Y-93933618D01*
X215656655Y-93907671D01*
X215655692Y-93898507D01*
X215612182Y-93510607D01*
X215599751Y-93452127D01*
X215588127Y-93393417D01*
X215585401Y-93384614D01*
X215467377Y-93012553D01*
X215443834Y-92957623D01*
X215421017Y-92902264D01*
X215416633Y-92894158D01*
X215228589Y-92552108D01*
X215194823Y-92502795D01*
X215161691Y-92452926D01*
X215155816Y-92445826D01*
X214904916Y-92146815D01*
X214862203Y-92104987D01*
X214820027Y-92062516D01*
X214812886Y-92056692D01*
X214508685Y-91812108D01*
X214458622Y-91779348D01*
X214409038Y-91745903D01*
X214400901Y-91741577D01*
X214054988Y-91560738D01*
X213999553Y-91538341D01*
X213944381Y-91515148D01*
X213935559Y-91512485D01*
X213561109Y-91402278D01*
X213502379Y-91391075D01*
X213443750Y-91379040D01*
X213434579Y-91378141D01*
X213045853Y-91342765D01*
X212986036Y-91343183D01*
X212926219Y-91342765D01*
X212917047Y-91343665D01*
X212917045Y-91343665D01*
X212528855Y-91384466D01*
X212470299Y-91396486D01*
X212411498Y-91407702D01*
X212402677Y-91410366D01*
X212029802Y-91525790D01*
X211974647Y-91548975D01*
X211919194Y-91571379D01*
X211911062Y-91575704D01*
X211911057Y-91575706D01*
X211911053Y-91575709D01*
X211567702Y-91761357D01*
X211518101Y-91794813D01*
X211468054Y-91827563D01*
X211460913Y-91833387D01*
X211160158Y-92082194D01*
X211118019Y-92124629D01*
X211075269Y-92166492D01*
X211069396Y-92173593D01*
X210822695Y-92476077D01*
X210789598Y-92525893D01*
X210755795Y-92575259D01*
X210751413Y-92583365D01*
X210568163Y-92928007D01*
X210545368Y-92983313D01*
X210521802Y-93038296D01*
X210519077Y-93047099D01*
X210406259Y-93420770D01*
X210394639Y-93479458D01*
X210382203Y-93537961D01*
X210381240Y-93547126D01*
X210343150Y-93935595D01*
X210340000Y-93967582D01*
X210340001Y-114032419D01*
X210343345Y-114066372D01*
X210343345Y-114092329D01*
X210344308Y-114101494D01*
X210387818Y-114489393D01*
X210400249Y-114547873D01*
X210411873Y-114606583D01*
X210414599Y-114615386D01*
X210532623Y-114987447D01*
X210556189Y-115042430D01*
X210578984Y-115097736D01*
X210583367Y-115105842D01*
X210771411Y-115447892D01*
X210805188Y-115497221D01*
X210838309Y-115547074D01*
X210844184Y-115554174D01*
X211095084Y-115853185D01*
X211137814Y-115895029D01*
X211179973Y-115937484D01*
X211187114Y-115943308D01*
X211491316Y-116187892D01*
X211541361Y-116220640D01*
X211590962Y-116254097D01*
X211599099Y-116258423D01*
X211945011Y-116439262D01*
X212000460Y-116461665D01*
X212055619Y-116484852D01*
X212064441Y-116487515D01*
X212438891Y-116597722D01*
X212497621Y-116608925D01*
X212556250Y-116620960D01*
X212565421Y-116621859D01*
X212954147Y-116657235D01*
X213013964Y-116656817D01*
X213073781Y-116657235D01*
X213082952Y-116656335D01*
X213082954Y-116656335D01*
X213471145Y-116615534D01*
X213529708Y-116603513D01*
X213588501Y-116592298D01*
X213597323Y-116589634D01*
X213970198Y-116474210D01*
X214025353Y-116451025D01*
X214080806Y-116428621D01*
X214088943Y-116424294D01*
X214432298Y-116238643D01*
X214481849Y-116205220D01*
X214531946Y-116172438D01*
X214539087Y-116166613D01*
X214839841Y-115917806D01*
X214881981Y-115875371D01*
X214924730Y-115833508D01*
X214930604Y-115826408D01*
X215177305Y-115523923D01*
X215210409Y-115474096D01*
X215244204Y-115424741D01*
X215248587Y-115416635D01*
X215431837Y-115071993D01*
X215454631Y-115016689D01*
X215478198Y-114961705D01*
X215480923Y-114952902D01*
X215593741Y-114579230D01*
X215605361Y-114520542D01*
X215617797Y-114462039D01*
X215618760Y-114452874D01*
X215656850Y-114064405D01*
X215656850Y-114064402D01*
X215660000Y-114032419D01*
X215660000Y-106660000D01*
X217340000Y-106660000D01*
X217340001Y-146967711D01*
X217330420Y-147065424D01*
X217311420Y-147128357D01*
X217280554Y-147186406D01*
X217239011Y-147237343D01*
X217188356Y-147279248D01*
X217130529Y-147310515D01*
X217067728Y-147329956D01*
X216972165Y-147340000D01*
X210045358Y-147340000D01*
X189096816Y-144447107D01*
X189039186Y-144437966D01*
X188999999Y-144439497D01*
X188960813Y-144437966D01*
X188903190Y-144447106D01*
X167954648Y-147340000D01*
X161032279Y-147340000D01*
X160934576Y-147330420D01*
X160871643Y-147311420D01*
X160813594Y-147280554D01*
X160762657Y-147239011D01*
X160720752Y-147188356D01*
X160689485Y-147130529D01*
X160670044Y-147067728D01*
X160660000Y-146972165D01*
X160660000Y-142822223D01*
X168695000Y-142822223D01*
X168695000Y-143177777D01*
X168764365Y-143526499D01*
X168900429Y-143854988D01*
X169097965Y-144150621D01*
X169349379Y-144402035D01*
X169645012Y-144599571D01*
X169973501Y-144735635D01*
X170322223Y-144805000D01*
X170677777Y-144805000D01*
X171026499Y-144735635D01*
X171354988Y-144599571D01*
X171650621Y-144402035D01*
X171902035Y-144150621D01*
X172099571Y-143854988D01*
X172235635Y-143526499D01*
X172305000Y-143177777D01*
X172305000Y-142822223D01*
X173695000Y-142822223D01*
X173695000Y-143177777D01*
X173764365Y-143526499D01*
X173900429Y-143854988D01*
X174097965Y-144150621D01*
X174349379Y-144402035D01*
X174645012Y-144599571D01*
X174973501Y-144735635D01*
X175322223Y-144805000D01*
X175677777Y-144805000D01*
X176026499Y-144735635D01*
X176354988Y-144599571D01*
X176650621Y-144402035D01*
X176902035Y-144150621D01*
X177099571Y-143854988D01*
X177235635Y-143526499D01*
X177305000Y-143177777D01*
X177305000Y-142822223D01*
X177235635Y-142473501D01*
X177099571Y-142145012D01*
X176902035Y-141849379D01*
X176650621Y-141597965D01*
X176354988Y-141400429D01*
X176026499Y-141264365D01*
X175677777Y-141195000D01*
X175322223Y-141195000D01*
X174973501Y-141264365D01*
X174645012Y-141400429D01*
X174349379Y-141597965D01*
X174097965Y-141849379D01*
X173900429Y-142145012D01*
X173764365Y-142473501D01*
X173695000Y-142822223D01*
X172305000Y-142822223D01*
X172235635Y-142473501D01*
X172099571Y-142145012D01*
X171902035Y-141849379D01*
X171650621Y-141597965D01*
X171354988Y-141400429D01*
X171026499Y-141264365D01*
X170677777Y-141195000D01*
X170322223Y-141195000D01*
X169973501Y-141264365D01*
X169645012Y-141400429D01*
X169349379Y-141597965D01*
X169097965Y-141849379D01*
X168900429Y-142145012D01*
X168764365Y-142473501D01*
X168695000Y-142822223D01*
X160660000Y-142822223D01*
X160660000Y-137822223D01*
X171195000Y-137822223D01*
X171195000Y-138177777D01*
X171264365Y-138526499D01*
X171400429Y-138854988D01*
X171597965Y-139150621D01*
X171849379Y-139402035D01*
X172145012Y-139599571D01*
X172473501Y-139735635D01*
X172822223Y-139805000D01*
X173177777Y-139805000D01*
X173526499Y-139735635D01*
X173854988Y-139599571D01*
X174150621Y-139402035D01*
X174402035Y-139150621D01*
X174599571Y-138854988D01*
X174735635Y-138526499D01*
X174805000Y-138177777D01*
X174805000Y-137822223D01*
X174735635Y-137473501D01*
X174599571Y-137145012D01*
X174402035Y-136849379D01*
X174150621Y-136597965D01*
X173854988Y-136400429D01*
X173526499Y-136264365D01*
X173177777Y-136195000D01*
X172822223Y-136195000D01*
X172473501Y-136264365D01*
X172145012Y-136400429D01*
X171849379Y-136597965D01*
X171597965Y-136849379D01*
X171400429Y-137145012D01*
X171264365Y-137473501D01*
X171195000Y-137822223D01*
X160660000Y-137822223D01*
X160660000Y-133150000D01*
X213011928Y-133150000D01*
X213011928Y-134850000D01*
X213024188Y-134974482D01*
X213060498Y-135094180D01*
X213119463Y-135204494D01*
X213198815Y-135301185D01*
X213295506Y-135380537D01*
X213405820Y-135439502D01*
X213478380Y-135461513D01*
X213346525Y-135593368D01*
X213184010Y-135836589D01*
X213072068Y-136106842D01*
X213015000Y-136393740D01*
X213015000Y-136686260D01*
X213072068Y-136973158D01*
X213184010Y-137243411D01*
X213346525Y-137486632D01*
X213553368Y-137693475D01*
X213727760Y-137810000D01*
X213553368Y-137926525D01*
X213346525Y-138133368D01*
X213184010Y-138376589D01*
X213072068Y-138646842D01*
X213015000Y-138933740D01*
X213015000Y-139226260D01*
X213072068Y-139513158D01*
X213184010Y-139783411D01*
X213346525Y-140026632D01*
X213553368Y-140233475D01*
X213727760Y-140350000D01*
X213553368Y-140466525D01*
X213346525Y-140673368D01*
X213184010Y-140916589D01*
X213072068Y-141186842D01*
X213015000Y-141473740D01*
X213015000Y-141766260D01*
X213072068Y-142053158D01*
X213184010Y-142323411D01*
X213346525Y-142566632D01*
X213553368Y-142773475D01*
X213727760Y-142890000D01*
X213553368Y-143006525D01*
X213346525Y-143213368D01*
X213184010Y-143456589D01*
X213072068Y-143726842D01*
X213015000Y-144013740D01*
X213015000Y-144306260D01*
X213072068Y-144593158D01*
X213184010Y-144863411D01*
X213346525Y-145106632D01*
X213553368Y-145313475D01*
X213796589Y-145475990D01*
X214066842Y-145587932D01*
X214353740Y-145645000D01*
X214646260Y-145645000D01*
X214933158Y-145587932D01*
X215203411Y-145475990D01*
X215446632Y-145313475D01*
X215653475Y-145106632D01*
X215815990Y-144863411D01*
X215927932Y-144593158D01*
X215985000Y-144306260D01*
X215985000Y-144013740D01*
X215927932Y-143726842D01*
X215815990Y-143456589D01*
X215653475Y-143213368D01*
X215446632Y-143006525D01*
X215272240Y-142890000D01*
X215446632Y-142773475D01*
X215653475Y-142566632D01*
X215815990Y-142323411D01*
X215927932Y-142053158D01*
X215985000Y-141766260D01*
X215985000Y-141473740D01*
X215927932Y-141186842D01*
X215815990Y-140916589D01*
X215653475Y-140673368D01*
X215446632Y-140466525D01*
X215272240Y-140350000D01*
X215446632Y-140233475D01*
X215653475Y-140026632D01*
X215815990Y-139783411D01*
X215927932Y-139513158D01*
X215985000Y-139226260D01*
X215985000Y-138933740D01*
X215927932Y-138646842D01*
X215815990Y-138376589D01*
X215653475Y-138133368D01*
X215446632Y-137926525D01*
X215272240Y-137810000D01*
X215446632Y-137693475D01*
X215653475Y-137486632D01*
X215815990Y-137243411D01*
X215927932Y-136973158D01*
X215985000Y-136686260D01*
X215985000Y-136393740D01*
X215927932Y-136106842D01*
X215815990Y-135836589D01*
X215653475Y-135593368D01*
X215521620Y-135461513D01*
X215594180Y-135439502D01*
X215704494Y-135380537D01*
X215801185Y-135301185D01*
X215880537Y-135204494D01*
X215939502Y-135094180D01*
X215975812Y-134974482D01*
X215988072Y-134850000D01*
X215988072Y-133150000D01*
X215975812Y-133025518D01*
X215939502Y-132905820D01*
X215880537Y-132795506D01*
X215801185Y-132698815D01*
X215704494Y-132619463D01*
X215594180Y-132560498D01*
X215474482Y-132524188D01*
X215350000Y-132511928D01*
X213650000Y-132511928D01*
X213525518Y-132524188D01*
X213405820Y-132560498D01*
X213295506Y-132619463D01*
X213198815Y-132698815D01*
X213119463Y-132795506D01*
X213060498Y-132905820D01*
X213024188Y-133025518D01*
X213011928Y-133150000D01*
X160660000Y-133150000D01*
X160660000Y-129363589D01*
X170115000Y-129363589D01*
X170115000Y-129636411D01*
X170168225Y-129903989D01*
X170272629Y-130156043D01*
X170424201Y-130382886D01*
X170617114Y-130575799D01*
X170843957Y-130727371D01*
X171096011Y-130831775D01*
X171363589Y-130885000D01*
X171636411Y-130885000D01*
X171903989Y-130831775D01*
X172156043Y-130727371D01*
X172382886Y-130575799D01*
X172575799Y-130382886D01*
X172727371Y-130156043D01*
X172831775Y-129903989D01*
X172885000Y-129636411D01*
X172885000Y-129363589D01*
X174995000Y-129363589D01*
X174995000Y-129636411D01*
X175048225Y-129903989D01*
X175152629Y-130156043D01*
X175304201Y-130382886D01*
X175497114Y-130575799D01*
X175723957Y-130727371D01*
X175976011Y-130831775D01*
X176243589Y-130885000D01*
X176516411Y-130885000D01*
X176783989Y-130831775D01*
X177036043Y-130727371D01*
X177262886Y-130575799D01*
X177455799Y-130382886D01*
X177607371Y-130156043D01*
X177711775Y-129903989D01*
X177765000Y-129636411D01*
X177765000Y-129363589D01*
X177711775Y-129096011D01*
X177607371Y-128843957D01*
X177455799Y-128617114D01*
X177262886Y-128424201D01*
X177036043Y-128272629D01*
X176783989Y-128168225D01*
X176516411Y-128115000D01*
X176243589Y-128115000D01*
X175976011Y-128168225D01*
X175723957Y-128272629D01*
X175497114Y-128424201D01*
X175304201Y-128617114D01*
X175152629Y-128843957D01*
X175048225Y-129096011D01*
X174995000Y-129363589D01*
X172885000Y-129363589D01*
X172831775Y-129096011D01*
X172727371Y-128843957D01*
X172575799Y-128617114D01*
X172382886Y-128424201D01*
X172156043Y-128272629D01*
X171903989Y-128168225D01*
X171636411Y-128115000D01*
X171363589Y-128115000D01*
X171096011Y-128168225D01*
X170843957Y-128272629D01*
X170617114Y-128424201D01*
X170424201Y-128617114D01*
X170272629Y-128843957D01*
X170168225Y-129096011D01*
X170115000Y-129363589D01*
X160660000Y-129363589D01*
X160660000Y-123838967D01*
X198865000Y-123838967D01*
X198865000Y-124161033D01*
X198927832Y-124476912D01*
X199051082Y-124774463D01*
X199230013Y-125042252D01*
X199457748Y-125269987D01*
X199725537Y-125448918D01*
X200023088Y-125572168D01*
X200338967Y-125635000D01*
X200661033Y-125635000D01*
X200976912Y-125572168D01*
X201274463Y-125448918D01*
X201542252Y-125269987D01*
X201769987Y-125042252D01*
X201948918Y-124774463D01*
X202072168Y-124476912D01*
X202135000Y-124161033D01*
X202135000Y-123838967D01*
X205365000Y-123838967D01*
X205365000Y-124161033D01*
X205427832Y-124476912D01*
X205551082Y-124774463D01*
X205730013Y-125042252D01*
X205957748Y-125269987D01*
X206225537Y-125448918D01*
X206523088Y-125572168D01*
X206838967Y-125635000D01*
X207161033Y-125635000D01*
X207476912Y-125572168D01*
X207774463Y-125448918D01*
X208042252Y-125269987D01*
X208269987Y-125042252D01*
X208448918Y-124774463D01*
X208572168Y-124476912D01*
X208635000Y-124161033D01*
X208635000Y-123838967D01*
X208572168Y-123523088D01*
X208448918Y-123225537D01*
X208269987Y-122957748D01*
X208042252Y-122730013D01*
X207774463Y-122551082D01*
X207476912Y-122427832D01*
X207161033Y-122365000D01*
X206838967Y-122365000D01*
X206523088Y-122427832D01*
X206225537Y-122551082D01*
X205957748Y-122730013D01*
X205730013Y-122957748D01*
X205551082Y-123225537D01*
X205427832Y-123523088D01*
X205365000Y-123838967D01*
X202135000Y-123838967D01*
X202072168Y-123523088D01*
X201948918Y-123225537D01*
X201769987Y-122957748D01*
X201542252Y-122730013D01*
X201274463Y-122551082D01*
X200976912Y-122427832D01*
X200661033Y-122365000D01*
X200338967Y-122365000D01*
X200023088Y-122427832D01*
X199725537Y-122551082D01*
X199457748Y-122730013D01*
X199230013Y-122957748D01*
X199051082Y-123225537D01*
X198927832Y-123523088D01*
X198865000Y-123838967D01*
X160660000Y-123838967D01*
X160660000Y-119338967D01*
X198865000Y-119338967D01*
X198865000Y-119661033D01*
X198927832Y-119976912D01*
X199051082Y-120274463D01*
X199230013Y-120542252D01*
X199457748Y-120769987D01*
X199725537Y-120948918D01*
X200023088Y-121072168D01*
X200338967Y-121135000D01*
X200661033Y-121135000D01*
X200976912Y-121072168D01*
X201274463Y-120948918D01*
X201542252Y-120769987D01*
X201769987Y-120542252D01*
X201948918Y-120274463D01*
X202072168Y-119976912D01*
X202135000Y-119661033D01*
X202135000Y-119338967D01*
X205365000Y-119338967D01*
X205365000Y-119661033D01*
X205427832Y-119976912D01*
X205551082Y-120274463D01*
X205730013Y-120542252D01*
X205957748Y-120769987D01*
X206225537Y-120948918D01*
X206523088Y-121072168D01*
X206838967Y-121135000D01*
X207161033Y-121135000D01*
X207476912Y-121072168D01*
X207774463Y-120948918D01*
X208042252Y-120769987D01*
X208269987Y-120542252D01*
X208448918Y-120274463D01*
X208572168Y-119976912D01*
X208635000Y-119661033D01*
X208635000Y-119338967D01*
X208632222Y-119325000D01*
X213186928Y-119325000D01*
X213186928Y-120675000D01*
X213199188Y-120799482D01*
X213235498Y-120919180D01*
X213294463Y-121029494D01*
X213373815Y-121126185D01*
X213460697Y-121197487D01*
X213339093Y-121379482D01*
X213240342Y-121617887D01*
X213190000Y-121870976D01*
X213190000Y-122129024D01*
X213240342Y-122382113D01*
X213339093Y-122620518D01*
X213482456Y-122835077D01*
X213647379Y-123000000D01*
X213482456Y-123164923D01*
X213339093Y-123379482D01*
X213240342Y-123617887D01*
X213190000Y-123870976D01*
X213190000Y-124129024D01*
X213240342Y-124382113D01*
X213339093Y-124620518D01*
X213482456Y-124835077D01*
X213647379Y-125000000D01*
X213482456Y-125164923D01*
X213339093Y-125379482D01*
X213240342Y-125617887D01*
X213190000Y-125870976D01*
X213190000Y-126129024D01*
X213240342Y-126382113D01*
X213339093Y-126620518D01*
X213482456Y-126835077D01*
X213647379Y-127000000D01*
X213482456Y-127164923D01*
X213339093Y-127379482D01*
X213240342Y-127617887D01*
X213190000Y-127870976D01*
X213190000Y-128129024D01*
X213240342Y-128382113D01*
X213339093Y-128620518D01*
X213482456Y-128835077D01*
X213664923Y-129017544D01*
X213879482Y-129160907D01*
X214117887Y-129259658D01*
X214370976Y-129310000D01*
X214629024Y-129310000D01*
X214882113Y-129259658D01*
X215120518Y-129160907D01*
X215335077Y-129017544D01*
X215517544Y-128835077D01*
X215660907Y-128620518D01*
X215759658Y-128382113D01*
X215810000Y-128129024D01*
X215810000Y-127870976D01*
X215759658Y-127617887D01*
X215660907Y-127379482D01*
X215517544Y-127164923D01*
X215352621Y-127000000D01*
X215517544Y-126835077D01*
X215660907Y-126620518D01*
X215759658Y-126382113D01*
X215810000Y-126129024D01*
X215810000Y-125870976D01*
X215759658Y-125617887D01*
X215660907Y-125379482D01*
X215517544Y-125164923D01*
X215352621Y-125000000D01*
X215517544Y-124835077D01*
X215660907Y-124620518D01*
X215759658Y-124382113D01*
X215810000Y-124129024D01*
X215810000Y-123870976D01*
X215759658Y-123617887D01*
X215660907Y-123379482D01*
X215517544Y-123164923D01*
X215352621Y-123000000D01*
X215517544Y-122835077D01*
X215660907Y-122620518D01*
X215759658Y-122382113D01*
X215810000Y-122129024D01*
X215810000Y-121870976D01*
X215759658Y-121617887D01*
X215660907Y-121379482D01*
X215539303Y-121197487D01*
X215626185Y-121126185D01*
X215705537Y-121029494D01*
X215764502Y-120919180D01*
X215800812Y-120799482D01*
X215813072Y-120675000D01*
X215813072Y-119325000D01*
X215800812Y-119200518D01*
X215764502Y-119080820D01*
X215705537Y-118970506D01*
X215626185Y-118873815D01*
X215529494Y-118794463D01*
X215419180Y-118735498D01*
X215299482Y-118699188D01*
X215175000Y-118686928D01*
X213825000Y-118686928D01*
X213700518Y-118699188D01*
X213580820Y-118735498D01*
X213470506Y-118794463D01*
X213373815Y-118873815D01*
X213294463Y-118970506D01*
X213235498Y-119080820D01*
X213199188Y-119200518D01*
X213186928Y-119325000D01*
X208632222Y-119325000D01*
X208572168Y-119023088D01*
X208448918Y-118725537D01*
X208269987Y-118457748D01*
X208042252Y-118230013D01*
X207774463Y-118051082D01*
X207476912Y-117927832D01*
X207161033Y-117865000D01*
X206838967Y-117865000D01*
X206523088Y-117927832D01*
X206225537Y-118051082D01*
X205957748Y-118230013D01*
X205730013Y-118457748D01*
X205551082Y-118725537D01*
X205427832Y-119023088D01*
X205365000Y-119338967D01*
X202135000Y-119338967D01*
X202072168Y-119023088D01*
X201948918Y-118725537D01*
X201769987Y-118457748D01*
X201542252Y-118230013D01*
X201274463Y-118051082D01*
X200976912Y-117927832D01*
X200661033Y-117865000D01*
X200338967Y-117865000D01*
X200023088Y-117927832D01*
X199725537Y-118051082D01*
X199457748Y-118230013D01*
X199230013Y-118457748D01*
X199051082Y-118725537D01*
X198927832Y-119023088D01*
X198865000Y-119338967D01*
X160660000Y-119338967D01*
X160660000Y-106660000D01*
X162340001Y-106660000D01*
X162340000Y-114032418D01*
X162343345Y-114066381D01*
X162343345Y-114092329D01*
X162344308Y-114101494D01*
X162387818Y-114489393D01*
X162400249Y-114547873D01*
X162411873Y-114606583D01*
X162414599Y-114615386D01*
X162532623Y-114987447D01*
X162556189Y-115042430D01*
X162578984Y-115097736D01*
X162583367Y-115105842D01*
X162771411Y-115447892D01*
X162805188Y-115497221D01*
X162838309Y-115547074D01*
X162844184Y-115554174D01*
X163095084Y-115853185D01*
X163137814Y-115895029D01*
X163179973Y-115937484D01*
X163187114Y-115943308D01*
X163491316Y-116187892D01*
X163541361Y-116220640D01*
X163590962Y-116254097D01*
X163599099Y-116258423D01*
X163945011Y-116439262D01*
X164000460Y-116461665D01*
X164055619Y-116484852D01*
X164064441Y-116487515D01*
X164438891Y-116597722D01*
X164497621Y-116608925D01*
X164556250Y-116620960D01*
X164565421Y-116621859D01*
X164954147Y-116657235D01*
X165013964Y-116656817D01*
X165073781Y-116657235D01*
X165082952Y-116656335D01*
X165082954Y-116656335D01*
X165471145Y-116615534D01*
X165529708Y-116603513D01*
X165588501Y-116592298D01*
X165597323Y-116589634D01*
X165970198Y-116474210D01*
X166025353Y-116451025D01*
X166080806Y-116428621D01*
X166088943Y-116424294D01*
X166432298Y-116238643D01*
X166481849Y-116205220D01*
X166531946Y-116172438D01*
X166539087Y-116166613D01*
X166839841Y-115917806D01*
X166881981Y-115875371D01*
X166924730Y-115833508D01*
X166930604Y-115826408D01*
X167177305Y-115523923D01*
X167210409Y-115474096D01*
X167244204Y-115424741D01*
X167248587Y-115416635D01*
X167431837Y-115071993D01*
X167454631Y-115016689D01*
X167478198Y-114961705D01*
X167480923Y-114952902D01*
X167593741Y-114579230D01*
X167605361Y-114520542D01*
X167617797Y-114462039D01*
X167618760Y-114452874D01*
X167656850Y-114064405D01*
X167656850Y-114064402D01*
X167660000Y-114032419D01*
X167660000Y-93967581D01*
X167656655Y-93933618D01*
X167656655Y-93907671D01*
X167655692Y-93898507D01*
X167612182Y-93510607D01*
X167599751Y-93452127D01*
X167588127Y-93393417D01*
X167585401Y-93384614D01*
X167467377Y-93012553D01*
X167443834Y-92957623D01*
X167421017Y-92902264D01*
X167416633Y-92894158D01*
X167228589Y-92552108D01*
X167194823Y-92502795D01*
X167161691Y-92452926D01*
X167155816Y-92445826D01*
X166904916Y-92146815D01*
X166862203Y-92104987D01*
X166820027Y-92062516D01*
X166812886Y-92056692D01*
X166508685Y-91812108D01*
X166458622Y-91779348D01*
X166409038Y-91745903D01*
X166400901Y-91741577D01*
X166054988Y-91560738D01*
X165999553Y-91538341D01*
X165944381Y-91515148D01*
X165935559Y-91512485D01*
X165561109Y-91402278D01*
X165502379Y-91391075D01*
X165443750Y-91379040D01*
X165434579Y-91378141D01*
X165045853Y-91342765D01*
X164986036Y-91343183D01*
X164926219Y-91342765D01*
X164917047Y-91343665D01*
X164917045Y-91343665D01*
X164528855Y-91384466D01*
X164470299Y-91396486D01*
X164411498Y-91407702D01*
X164402677Y-91410366D01*
X164029802Y-91525790D01*
X163974647Y-91548975D01*
X163919194Y-91571379D01*
X163911062Y-91575704D01*
X163911057Y-91575706D01*
X163911053Y-91575709D01*
X163567702Y-91761357D01*
X163518101Y-91794813D01*
X163468054Y-91827563D01*
X163460913Y-91833387D01*
X163160158Y-92082194D01*
X163118019Y-92124629D01*
X163075269Y-92166492D01*
X163069396Y-92173593D01*
X162822695Y-92476077D01*
X162789598Y-92525893D01*
X162755795Y-92575259D01*
X162751413Y-92583365D01*
X162568163Y-92928007D01*
X162545368Y-92983313D01*
X162521802Y-93038296D01*
X162519077Y-93047099D01*
X162406259Y-93420770D01*
X162394639Y-93479458D01*
X162382203Y-93537961D01*
X162381240Y-93547126D01*
X162343150Y-93935595D01*
X162343150Y-93935608D01*
X162340001Y-93967581D01*
X162340000Y-101340000D01*
X160660000Y-101340000D01*
X160660000Y-77000000D01*
X213361928Y-77000000D01*
X213361928Y-78000000D01*
X213374188Y-78124482D01*
X213410498Y-78244180D01*
X213454888Y-78327226D01*
X213408617Y-78438933D01*
X213365000Y-78658212D01*
X213365000Y-78881788D01*
X213408617Y-79101067D01*
X213494176Y-79307624D01*
X213559241Y-79405000D01*
X213494176Y-79502376D01*
X213408617Y-79708933D01*
X213365000Y-79928212D01*
X213365000Y-80151788D01*
X213408617Y-80371067D01*
X213494176Y-80577624D01*
X213559241Y-80675000D01*
X213494176Y-80772376D01*
X213408617Y-80978933D01*
X213365000Y-81198212D01*
X213365000Y-81421788D01*
X213408617Y-81641067D01*
X213494176Y-81847624D01*
X213559241Y-81945000D01*
X213494176Y-82042376D01*
X213408617Y-82248933D01*
X213365000Y-82468212D01*
X213365000Y-82691788D01*
X213408617Y-82911067D01*
X213494176Y-83117624D01*
X213618388Y-83303520D01*
X213776480Y-83461612D01*
X213962376Y-83585824D01*
X214168933Y-83671383D01*
X214388212Y-83715000D01*
X214611788Y-83715000D01*
X214831067Y-83671383D01*
X215037624Y-83585824D01*
X215223520Y-83461612D01*
X215381612Y-83303520D01*
X215505824Y-83117624D01*
X215591383Y-82911067D01*
X215635000Y-82691788D01*
X215635000Y-82468212D01*
X215591383Y-82248933D01*
X215505824Y-82042376D01*
X215440759Y-81945000D01*
X215505824Y-81847624D01*
X215591383Y-81641067D01*
X215635000Y-81421788D01*
X215635000Y-81198212D01*
X215591383Y-80978933D01*
X215505824Y-80772376D01*
X215440759Y-80675000D01*
X215505824Y-80577624D01*
X215591383Y-80371067D01*
X215635000Y-80151788D01*
X215635000Y-79928212D01*
X215591383Y-79708933D01*
X215505824Y-79502376D01*
X215440759Y-79405000D01*
X215505824Y-79307624D01*
X215591383Y-79101067D01*
X215635000Y-78881788D01*
X215635000Y-78658212D01*
X215591383Y-78438933D01*
X215545112Y-78327226D01*
X215589502Y-78244180D01*
X215625812Y-78124482D01*
X215638072Y-78000000D01*
X215638072Y-77000000D01*
X215625812Y-76875518D01*
X215589502Y-76755820D01*
X215530537Y-76645506D01*
X215451185Y-76548815D01*
X215354494Y-76469463D01*
X215244180Y-76410498D01*
X215124482Y-76374188D01*
X215000000Y-76361928D01*
X214000000Y-76361928D01*
X213875518Y-76374188D01*
X213755820Y-76410498D01*
X213645506Y-76469463D01*
X213548815Y-76548815D01*
X213469463Y-76645506D01*
X213410498Y-76755820D01*
X213374188Y-76875518D01*
X213361928Y-77000000D01*
X160660000Y-77000000D01*
X160660000Y-60660000D01*
X174967721Y-60660000D01*
X175065424Y-60669580D01*
G37*
G04 #@! TD.AperFunction*
M02*
